Playwrite-Th18ShortFast.ufo
<glyph name="dollar" format="2">
  <advance width="668"/>
  <unicode hex="0024"/>
  <outline>
    <contour>
      <point x="291" y="-19" type="curve" smooth="yes"/>
      <point x="458" y="-19"/>
      <point x="593" y="91"/>
      <point x="593" y="245" type="curve" smooth="yes"/>
      <point x="593" y="371"/>
      <point x="494" y="416"/>
      <point x="401" y="471" type="curve" smooth="yes"/>
      <point x="305" y="529"/>
      <point x="244" y="568"/>
      <point x="244" y="663" type="curve" smooth="yes"/>
      <point x="244" y="778"/>
      <point x="339" y="853"/>
      <point x="459" y="853" type="curve" smooth="yes"/>
      <point x="558" y="853"/>
      <point x="616" y="811"/>
      <point x="665" y="761" type="curve" smooth="yes"/>
      <point x="675" y="751"/>
      <point x="684" y="750"/>
      <point x="691" y="756" type="curve" smooth="yes"/>
      <point x="700" y="764"/>
      <point x="704" y="770"/>
      <point x="695" y="781" type="curve" smooth="yes"/>
      <point x="641" y="844"/>
      <point x="569" y="890"/>
      <point x="463" y="890" type="curve" smooth="yes"/>
      <point x="316" y="890"/>
      <point x="204" y="800"/>
      <point x="204" y="661" type="curve" smooth="yes"/>
      <point x="204" y="540"/>
      <point x="289" y="491"/>
      <point x="376" y="443" type="curve" smooth="yes"/>
      <point x="488" y="380"/>
      <point x="553" y="340"/>
      <point x="553" y="243" type="curve" smooth="yes"/>
      <point x="553" y="110"/>
      <point x="440" y="19"/>
      <point x="291" y="19" type="curve" smooth="yes"/>
      <point x="178" y="19"/>
      <point x="95" y="76"/>
      <point x="56" y="130" type="curve" smooth="yes"/>
      <point x="53" y="135"/>
      <point x="46" y="143"/>
      <point x="33" y="133" type="curve" smooth="yes"/>
      <point x="21" y="125"/>
      <point x="23" y="118"/>
      <point x="28" y="109" type="curve" smooth="yes"/>
      <point x="55" y="65"/>
      <point x="144" y="-19"/>
    </contour>
    <contour>
      <point x="195" y="-126" type="curve" smooth="yes"/>
      <point x="209" y="-126"/>
      <point x="215" y="-122"/>
      <point x="219" y="-111" type="curve" smooth="yes"/>
      <point x="579" y="996" type="line" smooth="yes"/>
      <point x="583" y="1008"/>
      <point x="578" y="1011"/>
      <point x="565" y="1011" type="curve" smooth="yes"/>
      <point x="551" y="1011"/>
      <point x="545" y="1008"/>
      <point x="541" y="996" type="curve" smooth="yes"/>
      <point x="181" y="-111" type="line" smooth="yes"/>
      <point x="178" y="-122"/>
      <point x="181" y="-126"/>
    </contour>
  </outline>
</glyph>
<glyph name="quotesingle" format="2">
  <advance width="169"/>
  <unicode hex="0027"/>
  <outline>
    <contour>
      <point x="219" y="660" type="curve" smooth="yes"/>
      <point x="233" y="660"/>
      <point x="240" y="666"/>
      <point x="244" y="679" type="curve" smooth="yes"/>
      <point x="315" y="866" type="line" smooth="yes"/>
      <point x="320" y="880"/>
      <point x="314" y="894"/>
      <point x="290" y="894" type="curve" smooth="yes"/>
      <point x="269" y="894"/>
      <point x="259" y="883"/>
      <point x="255" y="869" type="curve" smooth="yes"/>
      <point x="204" y="680" type="line" smooth="yes"/>
      <point x="200" y="669"/>
      <point x="204" y="660"/>
    </contour>
  </outline>
</glyph>
<glyph name="slash" format="2">
  <advance width="323"/>
  <unicode hex="002F"/>
  <outline>
    <contour>
      <point x="-67" y="-75" type="curve"/>
      <point x="-55" y="-79"/>
      <point x="-49" y="-76"/>
      <point x="-42" y="-65" type="curve" smooth="yes"/>
      <point x="521" y="931" type="line"/>
      <point x="526" y="941"/>
      <point x="523" y="946"/>
      <point x="513" y="950" type="curve"/>
      <point x="500" y="954"/>
      <point x="494" y="951"/>
      <point x="488" y="940" type="curve" smooth="yes"/>
      <point x="-76" y="-56" type="line"/>
      <point x="-81" y="-66"/>
      <point x="-79" y="-71"/>
    </contour>
  </outline>
</glyph>
<glyph name="zero" format="2">
  <advance width="761"/>
  <unicode hex="0030"/>
  <outline>
    <contour>
      <point x="316" y="-19" type="curve" smooth="yes"/>
      <point x="616" y="-19"/>
      <point x="781" y="359"/>
      <point x="781" y="628" type="curve" smooth="yes"/>
      <point x="781" y="809"/>
      <point x="694" y="890"/>
      <point x="569" y="890" type="curve" smooth="yes"/>
      <point x="269" y="890"/>
      <point x="101" y="513"/>
      <point x="101" y="244" type="curve" smooth="yes"/>
      <point x="101" y="63"/>
      <point x="191" y="-19"/>
    </contour>
    <contour>
      <point x="328" y="19" type="curve" smooth="yes"/>
      <point x="221" y="19"/>
      <point x="143" y="74"/>
      <point x="143" y="250" type="curve" smooth="yes"/>
      <point x="143" y="494"/>
      <point x="308" y="853"/>
      <point x="558" y="853" type="curve" smooth="yes"/>
      <point x="664" y="853"/>
      <point x="740" y="796"/>
      <point x="740" y="621" type="curve" smooth="yes"/>
      <point x="740" y="378"/>
      <point x="578" y="19"/>
    </contour>
  </outline>
</glyph>
<glyph name="one" format="2">
  <advance width="450"/>
  <unicode hex="0031"/>
  <outline>
    <contour>
      <point x="164" y="-14" type="curve" smooth="yes"/>
      <point x="178" y="-14"/>
      <point x="183" y="-10"/>
      <point x="186" y="1" type="curve" smooth="yes"/>
      <point x="468" y="871" type="line" smooth="yes"/>
      <point x="471" y="885"/>
      <point x="465" y="890"/>
      <point x="451" y="890" type="curve" smooth="yes"/>
      <point x="440" y="890"/>
      <point x="434" y="888"/>
      <point x="418" y="875" type="curve" smooth="yes"/>
      <point x="351" y="821"/>
      <point x="268" y="768"/>
      <point x="200" y="734" type="curve" smooth="yes"/>
      <point x="188" y="728"/>
      <point x="183" y="721"/>
      <point x="188" y="710" type="curve" smooth="yes"/>
      <point x="193" y="699"/>
      <point x="204" y="698"/>
      <point x="218" y="705" type="curve" smooth="yes"/>
      <point x="271" y="731"/>
      <point x="348" y="779"/>
      <point x="416" y="830" type="curve"/>
      <point x="149" y="5" type="line" smooth="yes"/>
      <point x="145" y="-6"/>
      <point x="150" y="-14"/>
    </contour>
  </outline>
</glyph>
<glyph name="two" format="2">
  <advance width="663"/>
  <unicode hex="0032"/>
  <outline>
    <contour>
      <point x="1" y="0" type="curve" smooth="yes"/>
      <point x="494" y="0" type="line" smooth="yes"/>
      <point x="500" y="0"/>
      <point x="510" y="4"/>
      <point x="513" y="16" type="curve" smooth="yes"/>
      <point x="515" y="30"/>
      <point x="510" y="35"/>
      <point x="500" y="35" type="curve" smooth="yes"/>
      <point x="58" y="35" type="line"/>
      <point x="214" y="160" type="line" smooth="yes"/>
      <point x="614" y="480"/>
      <point x="721" y="583"/>
      <point x="721" y="713" type="curve" smooth="yes"/>
      <point x="721" y="828"/>
      <point x="636" y="890"/>
      <point x="515" y="890" type="curve" smooth="yes"/>
      <point x="410" y="890"/>
      <point x="323" y="844"/>
      <point x="258" y="780" type="curve" smooth="yes"/>
      <point x="246" y="769"/>
      <point x="244" y="760"/>
      <point x="254" y="750" type="curve" smooth="yes"/>
      <point x="263" y="741"/>
      <point x="270" y="741"/>
      <point x="284" y="754" type="curve" smooth="yes"/>
      <point x="350" y="814"/>
      <point x="415" y="853"/>
      <point x="511" y="853" type="curve" smooth="yes"/>
      <point x="616" y="853"/>
      <point x="681" y="804"/>
      <point x="681" y="709" type="curve" smooth="yes"/>
      <point x="681" y="595"/>
      <point x="599" y="518"/>
      <point x="196" y="190" type="curve" smooth="yes"/>
      <point x="-5" y="26" type="line" smooth="yes"/>
      <point x="-15" y="18"/>
      <point x="-15" y="0"/>
    </contour>
  </outline>
</glyph>
<glyph name="three" format="2">
  <advance width="663"/>
  <unicode hex="0033"/>
  <outline>
    <contour>
      <point x="280" y="-19" type="curve" smooth="yes"/>
      <point x="463" y="-19"/>
      <point x="593" y="123"/>
      <point x="593" y="290" type="curve" smooth="yes"/>
      <point x="593" y="375"/>
      <point x="539" y="445"/>
      <point x="459" y="468" type="curve"/>
      <point x="609" y="498"/>
      <point x="686" y="591"/>
      <point x="686" y="714" type="curve" smooth="yes"/>
      <point x="686" y="831"/>
      <point x="593" y="890"/>
      <point x="489" y="890" type="curve" smooth="yes"/>
      <point x="406" y="890"/>
      <point x="314" y="851"/>
      <point x="249" y="786" type="curve" smooth="yes"/>
      <point x="234" y="771"/>
      <point x="234" y="766"/>
      <point x="244" y="756" type="curve" smooth="yes"/>
      <point x="251" y="749"/>
      <point x="258" y="744"/>
      <point x="273" y="759" type="curve" smooth="yes"/>
      <point x="341" y="825"/>
      <point x="410" y="854"/>
      <point x="488" y="854" type="curve" smooth="yes"/>
      <point x="573" y="854"/>
      <point x="645" y="809"/>
      <point x="645" y="711" type="curve" smooth="yes"/>
      <point x="645" y="568"/>
      <point x="533" y="489"/>
      <point x="383" y="489" type="curve" smooth="yes"/>
      <point x="314" y="489" type="line" smooth="yes"/>
      <point x="308" y="489"/>
      <point x="300" y="484"/>
      <point x="296" y="471" type="curve" smooth="yes"/>
      <point x="293" y="459"/>
      <point x="296" y="454"/>
      <point x="303" y="454" type="curve" smooth="yes"/>
      <point x="368" y="454" type="line" smooth="yes"/>
      <point x="485" y="454"/>
      <point x="550" y="386"/>
      <point x="550" y="284" type="curve" smooth="yes"/>
      <point x="550" y="143"/>
      <point x="438" y="19"/>
      <point x="284" y="19" type="curve" smooth="yes"/>
      <point x="171" y="19"/>
      <point x="99" y="81"/>
      <point x="70" y="179" type="curve" smooth="yes"/>
      <point x="66" y="191"/>
      <point x="63" y="198"/>
      <point x="46" y="193" type="curve" smooth="yes"/>
      <point x="34" y="189"/>
      <point x="31" y="181"/>
      <point x="35" y="166" type="curve" smooth="yes"/>
      <point x="63" y="56"/>
      <point x="160" y="-19"/>
    </contour>
  </outline>
</glyph>
<glyph name="four" format="2">
  <advance width="675"/>
  <unicode hex="0034"/>
  <outline>
    <contour>
      <point x="416" y="-14" type="curve" smooth="yes"/>
      <point x="430" y="-14"/>
      <point x="436" y="-10"/>
      <point x="440" y="1" type="curve" smooth="yes"/>
      <point x="519" y="245" type="line"/>
      <point x="623" y="245" type="line" smooth="yes"/>
      <point x="634" y="245"/>
      <point x="639" y="249"/>
      <point x="643" y="263" type="curve" smooth="yes"/>
      <point x="646" y="276"/>
      <point x="644" y="280"/>
      <point x="633" y="280" type="curve" smooth="yes"/>
      <point x="531" y="280" type="line"/>
      <point x="643" y="625" type="line" smooth="yes"/>
      <point x="646" y="636"/>
      <point x="641" y="640"/>
      <point x="628" y="640" type="curve" smooth="yes"/>
      <point x="614" y="640"/>
      <point x="608" y="636"/>
      <point x="604" y="625" type="curve" smooth="yes"/>
      <point x="492" y="280" type="line"/>
      <point x="113" y="280" type="line"/>
      <point x="618" y="864" type="line" smooth="yes"/>
      <point x="629" y="878"/>
      <point x="625" y="883"/>
      <point x="613" y="890" type="curve" smooth="yes"/>
      <point x="598" y="899"/>
      <point x="591" y="890"/>
      <point x="578" y="875" type="curve" smooth="yes"/>
      <point x="60" y="271" type="line" smooth="yes"/>
      <point x="45" y="254"/>
      <point x="53" y="245"/>
      <point x="66" y="245" type="curve" smooth="yes"/>
      <point x="480" y="245" type="line"/>
      <point x="401" y="1" type="line" smooth="yes"/>
      <point x="398" y="-10"/>
      <point x="403" y="-14"/>
    </contour>
  </outline>
</glyph>
<glyph name="eight" format="2">
  <advance width="663"/>
  <unicode hex="0038"/>
  <outline>
    <contour>
      <point x="271" y="-19" type="curve" smooth="yes"/>
      <point x="446" y="-19"/>
      <point x="593" y="74"/>
      <point x="593" y="251" type="curve" smooth="yes"/>
      <point x="593" y="346"/>
      <point x="520" y="414"/>
      <point x="439" y="470" type="curve"/>
      <point x="571" y="524"/>
      <point x="701" y="598"/>
      <point x="701" y="725" type="curve" smooth="yes"/>
      <point x="701" y="831"/>
      <point x="610" y="890"/>
      <point x="494" y="890" type="curve" smooth="yes"/>
      <point x="335" y="890"/>
      <point x="224" y="809"/>
      <point x="224" y="670" type="curve" smooth="yes"/>
      <point x="224" y="601"/>
      <point x="266" y="536"/>
      <point x="360" y="475" type="curve"/>
      <point x="193" y="413"/>
      <point x="40" y="325"/>
      <point x="40" y="168" type="curve" smooth="yes"/>
      <point x="40" y="61"/>
      <point x="130" y="-19"/>
    </contour>
    <contour>
      <point x="283" y="19" type="curve" smooth="yes"/>
      <point x="156" y="19"/>
      <point x="81" y="80"/>
      <point x="81" y="168" type="curve" smooth="yes"/>
      <point x="81" y="315"/>
      <point x="226" y="390"/>
      <point x="396" y="451" type="curve"/>
      <point x="493" y="390"/>
      <point x="551" y="336"/>
      <point x="551" y="249" type="curve" smooth="yes"/>
      <point x="551" y="100"/>
      <point x="426" y="19"/>
    </contour>
    <contour>
      <point x="404" y="491" type="curve"/>
      <point x="324" y="543"/>
      <point x="264" y="593"/>
      <point x="264" y="673" type="curve" smooth="yes"/>
      <point x="264" y="794"/>
      <point x="363" y="854"/>
      <point x="484" y="854" type="curve" smooth="yes"/>
      <point x="588" y="854"/>
      <point x="661" y="811"/>
      <point x="661" y="723" type="curve" smooth="yes"/>
      <point x="661" y="613"/>
      <point x="545" y="546"/>
    </contour>
  </outline>
</glyph>
<glyph name="greater" format="2">
  <advance width="763"/>
  <unicode hex="003E"/>
  <outline>
    <contour>
      <point x="98" y="179" type="curve" smooth="yes"/>
      <point x="680" y="405" type="line" smooth="yes"/>
      <point x="705" y="415"/>
      <point x="715" y="419"/>
      <point x="721" y="436" type="curve" smooth="yes"/>
      <point x="726" y="453"/>
      <point x="720" y="458"/>
      <point x="700" y="468" type="curve" smooth="yes"/>
      <point x="265" y="694" type="line" smooth="yes"/>
      <point x="255" y="699"/>
      <point x="246" y="698"/>
      <point x="240" y="686" type="curve" smooth="yes"/>
      <point x="234" y="676"/>
      <point x="239" y="668"/>
      <point x="246" y="664" type="curve" smooth="yes"/>
      <point x="676" y="440" type="line"/>
      <point x="86" y="211" type="line" smooth="yes"/>
      <point x="74" y="206"/>
      <point x="73" y="200"/>
      <point x="76" y="188" type="curve" smooth="yes"/>
      <point x="80" y="175"/>
      <point x="85" y="174"/>
    </contour>
  </outline>
</glyph>
<glyph name="at" format="2">
  <advance width="878"/>
  <unicode hex="0040"/>
  <outline>
    <contour>
      <point x="254" y="168" type="curve" smooth="yes"/>
      <point x="254" y="98"/>
      <point x="289" y="53"/>
      <point x="341" y="53" type="curve" smooth="yes"/>
      <point x="402" y="53"/>
      <point x="471" y="106"/>
      <point x="549" y="244" type="curve"/>
      <point x="538" y="210"/>
      <point x="529" y="184"/>
      <point x="516" y="140" type="curve" smooth="yes"/>
      <point x="498" y="88"/>
      <point x="521" y="53"/>
      <point x="566" y="53" type="curve" smooth="yes"/>
      <point x="711" y="53"/>
      <point x="835" y="198"/>
      <point x="835" y="370" type="curve" smooth="yes"/>
      <point x="835" y="539"/>
      <point x="701" y="644"/>
      <point x="515" y="644" type="curve" smooth="yes"/>
      <point x="239" y="644"/>
      <point x="68" y="418"/>
      <point x="68" y="170" type="curve" smooth="yes"/>
      <point x="68" y="-11"/>
      <point x="175" y="-134"/>
      <point x="358" y="-134" type="curve" smooth="yes"/>
      <point x="436" y="-134"/>
      <point x="504" y="-122"/>
      <point x="578" y="-96" type="curve" smooth="yes"/>
      <point x="588" y="-92"/>
      <point x="591" y="-87"/>
      <point x="588" y="-75" type="curve" smooth="yes"/>
      <point x="585" y="-65"/>
      <point x="578" y="-61"/>
      <point x="568" y="-65" type="curve" smooth="yes"/>
      <point x="496" y="-90"/>
      <point x="431" y="-101"/>
      <point x="363" y="-101" type="curve" smooth="yes"/>
      <point x="199" y="-101"/>
      <point x="101" y="8"/>
      <point x="101" y="173" type="curve" smooth="yes"/>
      <point x="101" y="407"/>
      <point x="260" y="611"/>
      <point x="510" y="611" type="curve" smooth="yes"/>
      <point x="680" y="611"/>
      <point x="800" y="526"/>
      <point x="800" y="369" type="curve" smooth="yes"/>
      <point x="800" y="208"/>
      <point x="693" y="85"/>
      <point x="572" y="85" type="curve" smooth="yes"/>
      <point x="549" y="85"/>
      <point x="538" y="103"/>
      <point x="549" y="138" type="curve" smooth="yes"/>
      <point x="651" y="445" type="line" smooth="yes"/>
      <point x="653" y="454"/>
      <point x="652" y="463"/>
      <point x="636" y="463" type="curve" smooth="yes"/>
      <point x="624" y="463"/>
      <point x="619" y="460"/>
      <point x="616" y="450" type="curve" smooth="yes"/>
      <point x="611" y="436" type="line"/>
      <point x="583" y="454"/>
      <point x="546" y="466"/>
      <point x="509" y="466" type="curve" smooth="yes"/>
      <point x="351" y="466"/>
      <point x="254" y="285"/>
    </contour>
    <contour>
      <point x="291" y="169" type="curve" smooth="yes"/>
      <point x="291" y="271"/>
      <point x="374" y="434"/>
      <point x="504" y="434" type="curve" smooth="yes"/>
      <point x="532" y="434"/>
      <point x="562" y="429"/>
      <point x="601" y="406" type="curve"/>
      <point x="589" y="369" type="line"/>
      <point x="501" y="181"/>
      <point x="411" y="85"/>
      <point x="348" y="85" type="curve" smooth="yes"/>
      <point x="311" y="85"/>
      <point x="291" y="119"/>
    </contour>
  </outline>
</glyph>
<glyph name="A" format="2">
  <advance width="750"/>
  <unicode hex="0041"/>
  <anchor x="294" y="0" name="bottom"/>
  <anchor x="635" y="0" name="ogonek"/>
  <anchor x="528" y="838" name="top"/>
  <outline>
    <contour>
      <point x="-31" y="-14" type="curve" smooth="yes"/>
      <point x="-20" y="-14"/>
      <point x="-14" y="-10"/>
      <point x="-6" y="1" type="curve" smooth="yes"/>
      <point x="173" y="271" type="line"/>
      <point x="580" y="271" type="line"/>
      <point x="599" y="4" type="line" smooth="yes"/>
      <point x="600" y="-10"/>
      <point x="604" y="-14"/>
      <point x="618" y="-14" type="curve" smooth="yes"/>
      <point x="631" y="-14"/>
      <point x="636" y="-10"/>
      <point x="635" y="5" type="curve" smooth="yes"/>
      <point x="573" y="875" type="line" smooth="yes"/>
      <point x="571" y="886"/>
      <point x="568" y="890"/>
      <point x="555" y="890" type="curve" smooth="yes"/>
      <point x="543" y="890"/>
      <point x="538" y="886"/>
      <point x="533" y="878" type="curve" smooth="yes"/>
      <point x="-44" y="10" type="line" smooth="yes"/>
      <point x="-54" y="-6"/>
      <point x="-46" y="-14"/>
    </contour>
    <contour>
      <point x="195" y="306" type="line"/>
      <point x="543" y="833" type="line"/>
      <point x="578" y="306" type="line"/>
    </contour>
  </outline>
</glyph>
<glyph name="C" format="2">
  <advance width="775"/>
  <unicode hex="0043"/>
  <anchor x="356" y="0" name="bottom"/>
  <anchor x="615" y="838" name="top"/>
  <outline>
    <contour>
      <point x="390" y="-19" type="curve" smooth="yes"/>
      <point x="518" y="-19"/>
      <point x="638" y="64"/>
      <point x="731" y="185" type="curve" smooth="yes"/>
      <point x="740" y="196"/>
      <point x="739" y="206"/>
      <point x="730" y="213" type="curve" smooth="yes"/>
      <point x="719" y="221"/>
      <point x="713" y="220"/>
      <point x="705" y="210" type="curve" smooth="yes"/>
      <point x="620" y="104"/>
      <point x="515" y="19"/>
      <point x="393" y="19" type="curve" smooth="yes"/>
      <point x="259" y="19"/>
      <point x="174" y="118"/>
      <point x="174" y="293" type="curve" smooth="yes"/>
      <point x="174" y="538"/>
      <point x="349" y="853"/>
      <point x="635" y="853" type="curve" smooth="yes"/>
      <point x="718" y="853"/>
      <point x="785" y="829"/>
      <point x="830" y="778" type="curve" smooth="yes"/>
      <point x="844" y="763"/>
      <point x="846" y="759"/>
      <point x="858" y="764" type="curve" smooth="yes"/>
      <point x="873" y="771"/>
      <point x="878" y="780"/>
      <point x="870" y="791" type="curve" smooth="yes"/>
      <point x="823" y="858"/>
      <point x="741" y="890"/>
      <point x="638" y="890" type="curve" smooth="yes"/>
      <point x="320" y="890"/>
      <point x="133" y="554"/>
      <point x="133" y="293" type="curve" smooth="yes"/>
      <point x="133" y="94"/>
      <point x="233" y="-19"/>
    </contour>
  </outline>
</glyph>
<glyph name="G" format="2">
  <advance width="876"/>
  <unicode hex="0047"/>
  <anchor x="370" y="0" name="bottom"/>
  <anchor x="620" y="838" name="top"/>
  <outline>
    <contour>
      <point x="389" y="-19" type="curve" smooth="yes"/>
      <point x="580" y="-19"/>
      <point x="730" y="135"/>
      <point x="834" y="438" type="curve" smooth="yes"/>
      <point x="837" y="449"/>
      <point x="834" y="453"/>
      <point x="820" y="453" type="curve" smooth="yes"/>
      <point x="550" y="453" type="line" smooth="yes"/>
      <point x="539" y="453"/>
      <point x="534" y="448"/>
      <point x="530" y="436" type="curve" smooth="yes"/>
      <point x="527" y="429"/>
      <point x="525" y="418"/>
      <point x="539" y="418" type="curve" smooth="yes"/>
      <point x="786" y="418" type="line"/>
      <point x="689" y="154"/>
      <point x="555" y="19"/>
      <point x="389" y="19" type="curve" smooth="yes"/>
      <point x="259" y="19"/>
      <point x="171" y="118"/>
      <point x="171" y="280" type="curve" smooth="yes"/>
      <point x="171" y="538"/>
      <point x="351" y="853"/>
      <point x="642" y="853" type="curve" smooth="yes"/>
      <point x="715" y="853"/>
      <point x="775" y="828"/>
      <point x="819" y="778" type="curve" smooth="yes"/>
      <point x="832" y="763"/>
      <point x="836" y="759"/>
      <point x="847" y="764" type="curve" smooth="yes"/>
      <point x="862" y="771"/>
      <point x="867" y="780"/>
      <point x="860" y="791" type="curve" smooth="yes"/>
      <point x="814" y="856"/>
      <point x="739" y="890"/>
      <point x="645" y="890" type="curve" smooth="yes"/>
      <point x="324" y="890"/>
      <point x="130" y="554"/>
      <point x="130" y="280" type="curve" smooth="yes"/>
      <point x="130" y="95"/>
      <point x="230" y="-19"/>
    </contour>
  </outline>
</glyph>
<glyph name="I" format="2">
  <advance width="338"/>
  <unicode hex="0049"/>
  <anchor x="88" y="0" name="bottom"/>
  <anchor x="104" y="-6" name="ogonek"/>
  <anchor x="353" y="838" name="top"/>
  <outline>
    <contour>
      <point x="84" y="-14" type="curve" smooth="yes"/>
      <point x="100" y="-14"/>
      <point x="104" y="-10"/>
      <point x="108" y="1" type="curve" smooth="yes"/>
      <point x="390" y="875" type="line" smooth="yes"/>
      <point x="394" y="886"/>
      <point x="388" y="890"/>
      <point x="375" y="890" type="curve" smooth="yes"/>
      <point x="359" y="890"/>
      <point x="355" y="886"/>
      <point x="351" y="875" type="curve" smooth="yes"/>
      <point x="69" y="1" type="line" smooth="yes"/>
      <point x="65" y="-10"/>
      <point x="71" y="-14"/>
    </contour>
  </outline>
</glyph>
<glyph name="J" format="2">
  <advance width="650"/>
  <unicode hex="004A"/>
  <anchor x="244" y="0" name="bottom"/>
  <anchor x="683" y="838" name="top"/>
  <outline>
    <contour>
      <point x="253" y="-19" type="curve" smooth="yes"/>
      <point x="393" y="-19"/>
      <point x="458" y="66"/>
      <point x="529" y="285" type="curve" smooth="yes"/>
      <point x="720" y="875" type="line" smooth="yes"/>
      <point x="724" y="885"/>
      <point x="720" y="890"/>
      <point x="705" y="890" type="curve" smooth="yes"/>
      <point x="689" y="890"/>
      <point x="685" y="886"/>
      <point x="681" y="875" type="curve" smooth="yes"/>
      <point x="489" y="283" type="line" smooth="yes"/>
      <point x="426" y="91"/>
      <point x="368" y="19"/>
      <point x="256" y="19" type="curve" smooth="yes"/>
      <point x="161" y="19"/>
      <point x="114" y="74"/>
      <point x="83" y="164" type="curve" smooth="yes"/>
      <point x="79" y="175"/>
      <point x="74" y="183"/>
      <point x="59" y="179" type="curve" smooth="yes"/>
      <point x="48" y="175"/>
      <point x="40" y="171"/>
      <point x="45" y="154" type="curve" smooth="yes"/>
      <point x="76" y="46"/>
      <point x="148" y="-19"/>
    </contour>
  </outline>
</glyph>
<glyph name="L" format="2">
  <advance width="625"/>
  <unicode hex="004C"/>
  <anchor x="408" y="463" name="CAT"/>
  <anchor x="294" y="0" name="bottom"/>
  <anchor x="230" y="450" name="center"/>
  <anchor x="359" y="838" name="top"/>
  <anchor x="416" y="875" name="topright"/>
  <outline>
    <contour>
      <point x="89" y="0" type="curve" smooth="yes"/>
      <point x="499" y="0" type="line" smooth="yes"/>
      <point x="511" y="0"/>
      <point x="516" y="4"/>
      <point x="520" y="18" type="curve" smooth="yes"/>
      <point x="523" y="29"/>
      <point x="523" y="35"/>
      <point x="509" y="35" type="curve" smooth="yes"/>
      <point x="119" y="35" type="line"/>
      <point x="391" y="875" type="line" smooth="yes"/>
      <point x="395" y="886"/>
      <point x="389" y="890"/>
      <point x="376" y="890" type="curve" smooth="yes"/>
      <point x="360" y="890"/>
      <point x="356" y="886"/>
      <point x="353" y="875" type="curve" smooth="yes"/>
      <point x="74" y="15" type="line" smooth="yes"/>
      <point x="70" y="4"/>
      <point x="76" y="0"/>
    </contour>
  </outline>
</glyph>
<glyph name="R" format="2">
  <advance width="693"/>
  <unicode hex="0052"/>
  <anchor x="303" y="0" name="bottom"/>
  <anchor x="537" y="838" name="top"/>
  <outline>
    <contour>
      <point x="84" y="-14" type="curve" smooth="yes"/>
      <point x="100" y="-14"/>
      <point x="104" y="-10"/>
      <point x="108" y="1" type="curve" smooth="yes"/>
      <point x="240" y="409" type="line"/>
      <point x="318" y="271"/>
      <point x="408" y="134"/>
      <point x="524" y="0" type="curve" smooth="yes"/>
      <point x="537" y="-15"/>
      <point x="544" y="-20"/>
      <point x="557" y="-11" type="curve" smooth="yes"/>
      <point x="568" y="-2"/>
      <point x="568" y="5"/>
      <point x="559" y="15" type="curve" smooth="yes"/>
      <point x="447" y="144"/>
      <point x="358" y="276"/>
      <point x="284" y="406" type="curve"/>
      <point x="517" y="418"/>
      <point x="758" y="496"/>
      <point x="758" y="708" type="curve" smooth="yes"/>
      <point x="758" y="834"/>
      <point x="680" y="875"/>
      <point x="528" y="875" type="curve" smooth="yes"/>
      <point x="372" y="875" type="line" smooth="yes"/>
      <point x="355" y="875"/>
      <point x="352" y="871"/>
      <point x="348" y="860" type="curve" smooth="yes"/>
      <point x="69" y="1" type="line" smooth="yes"/>
      <point x="65" y="-10"/>
      <point x="72" y="-14"/>
    </contour>
    <contour>
      <point x="252" y="440" type="curve"/>
      <point x="380" y="840" type="line"/>
      <point x="528" y="840" type="line" smooth="yes"/>
      <point x="653" y="840"/>
      <point x="718" y="810"/>
      <point x="718" y="708" type="curve" smooth="yes"/>
      <point x="718" y="479"/>
      <point x="405" y="440"/>
    </contour>
  </outline>
</glyph>
<glyph name="underscore" format="2">
  <advance width="550"/>
  <unicode hex="005F"/>
  <outline>
    <contour>
      <point x="-50" y="-112" type="curve" smooth="yes"/>
      <point x="366" y="-112" type="line" smooth="yes"/>
      <point x="379" y="-112"/>
      <point x="384" y="-109"/>
      <point x="388" y="-95" type="curve" smooth="yes"/>
      <point x="390" y="-84"/>
      <point x="390" y="-77"/>
      <point x="376" y="-77" type="curve" smooth="yes"/>
      <point x="-40" y="-77" type="line" smooth="yes"/>
      <point x="-52" y="-77"/>
      <point x="-57" y="-81"/>
      <point x="-61" y="-94" type="curve" smooth="yes"/>
      <point x="-65" y="-106"/>
      <point x="-64" y="-112"/>
    </contour>
  </outline>
</glyph>
<glyph name="p" format="2">
  <advance width="599"/>
  <unicode hex="0070"/>
  <outline>
    <contour>
      <point x="-69" y="-390" type="curve" smooth="yes"/>
      <point x="-55" y="-390"/>
      <point x="-50" y="-386"/>
      <point x="-46" y="-375" type="curve" smooth="yes"/>
      <point x="84" y="25" type="line"/>
      <point x="122" y="-4"/>
      <point x="174" y="-17"/>
      <point x="216" y="-17" type="curve" smooth="yes"/>
      <point x="424" y="-17"/>
      <point x="549" y="218"/>
      <point x="549" y="371" type="curve" smooth="yes"/>
      <point x="549" y="463"/>
      <point x="504" y="519"/>
      <point x="436" y="519" type="curve" smooth="yes"/>
      <point x="352" y="519"/>
      <point x="261" y="440"/>
      <point x="161" y="263" type="curve"/>
      <point x="239" y="500" type="line" smooth="yes"/>
      <point x="242" y="510"/>
      <point x="234" y="515"/>
      <point x="221" y="515" type="curve" smooth="yes"/>
      <point x="206" y="515"/>
      <point x="202" y="511"/>
      <point x="199" y="500" type="curve" smooth="yes"/>
      <point x="-84" y="-369" type="line" smooth="yes"/>
      <point x="-88" y="-380"/>
      <point x="-85" y="-390"/>
    </contour>
    <contour>
      <point x="94" y="54" type="curve"/>
      <point x="112" y="111" type="line"/>
      <point x="229" y="360"/>
      <point x="347" y="484"/>
      <point x="430" y="484" type="curve" smooth="yes"/>
      <point x="484" y="484"/>
      <point x="510" y="438"/>
      <point x="510" y="370" type="curve" smooth="yes"/>
      <point x="510" y="229"/>
      <point x="396" y="18"/>
      <point x="222" y="18" type="curve" smooth="yes"/>
      <point x="185" y="18"/>
      <point x="145" y="24"/>
    </contour>
  </outline>
</glyph>
<glyph name="y" format="2">
  <advance width="616"/>
  <unicode hex="0079"/>
  <anchor x="536" y="0" name="bottom"/>
  <anchor x="371" y="500" name="top"/>
  <outline>
    <contour>
      <point x="154" y="-15" type="curve" smooth="yes"/>
      <point x="225" y="-15"/>
      <point x="350" y="54"/>
      <point x="466" y="273" type="curve"/>
      <point x="319" y="-182" type="line" smooth="yes"/>
      <point x="281" y="-299"/>
      <point x="248" y="-359"/>
      <point x="163" y="-359" type="curve" smooth="yes"/>
      <point x="100" y="-359"/>
      <point x="49" y="-327"/>
      <point x="-4" y="-270" type="curve" smooth="yes"/>
      <point x="-10" y="-264"/>
      <point x="-16" y="-262"/>
      <point x="-26" y="-272" type="curve" smooth="yes"/>
      <point x="-37" y="-281"/>
      <point x="-36" y="-291"/>
      <point x="-30" y="-299" type="curve" smooth="yes"/>
      <point x="24" y="-357"/>
      <point x="85" y="-394"/>
      <point x="159" y="-394" type="curve" smooth="yes"/>
      <point x="270" y="-394"/>
      <point x="313" y="-322"/>
      <point x="358" y="-185" type="curve" smooth="yes"/>
      <point x="578" y="494" type="line" smooth="yes"/>
      <point x="581" y="505"/>
      <point x="579" y="515"/>
      <point x="563" y="515" type="curve" smooth="yes"/>
      <point x="549" y="515"/>
      <point x="544" y="511"/>
      <point x="540" y="500" type="curve" smooth="yes"/>
      <point x="524" y="451" type="line"/>
      <point x="383" y="108"/>
      <point x="236" y="20"/>
      <point x="159" y="20" type="curve" smooth="yes"/>
      <point x="106" y="20"/>
      <point x="90" y="61"/>
      <point x="123" y="160" type="curve" smooth="yes"/>
      <point x="235" y="498" type="line" smooth="yes"/>
      <point x="239" y="508"/>
      <point x="231" y="515"/>
      <point x="219" y="515" type="curve" smooth="yes"/>
      <point x="204" y="515"/>
      <point x="200" y="511"/>
      <point x="196" y="500" type="curve" smooth="yes"/>
      <point x="81" y="154" type="line" smooth="yes"/>
      <point x="40" y="30"/>
      <point x="90" y="-15"/>
    </contour>
  </outline>
</glyph>
<glyph name="z" format="2">
  <advance width="495"/>
  <unicode hex="007A"/>
  <anchor x="175" y="0" name="bottom"/>
  <anchor x="256" y="250" name="center"/>
  <anchor x="325" y="500" name="top"/>
  <outline>
    <contour>
      <point x="6" y="0" type="curve" smooth="yes"/>
      <point x="361" y="0" type="line" smooth="yes"/>
      <point x="373" y="0"/>
      <point x="378" y="5"/>
      <point x="381" y="15" type="curve" smooth="yes"/>
      <point x="385" y="29"/>
      <point x="384" y="35"/>
      <point x="373" y="35" type="curve" smooth="yes"/>
      <point x="58" y="35" type="line"/>
      <point x="511" y="468" type="line" smooth="yes"/>
      <point x="526" y="483"/>
      <point x="525" y="500"/>
      <point x="510" y="500" type="curve" smooth="yes"/>
      <point x="166" y="500" type="line" smooth="yes"/>
      <point x="155" y="500"/>
      <point x="149" y="494"/>
      <point x="145" y="483" type="curve" smooth="yes"/>
      <point x="141" y="470"/>
      <point x="144" y="465"/>
      <point x="155" y="465" type="curve" smooth="yes"/>
      <point x="459" y="465" type="line"/>
      <point x="1" y="30" type="line" smooth="yes"/>
      <point x="-7" y="21"/>
      <point x="-15" y="0"/>
    </contour>
  </outline>
</glyph>
<glyph name="braceright" format="2">
  <advance width="329"/>
  <unicode hex="007D"/>
  <outline>
    <contour>
      <point x="-34" y="-75" type="curve" smooth="yes"/>
      <point x="88" y="-75"/>
      <point x="183" y="8"/>
      <point x="183" y="104" type="curve" smooth="yes"/>
      <point x="183" y="165"/>
      <point x="159" y="191"/>
      <point x="159" y="266" type="curve" smooth="yes"/>
      <point x="159" y="346"/>
      <point x="215" y="404"/>
      <point x="320" y="420" type="curve" smooth="yes"/>
      <point x="328" y="421"/>
      <point x="334" y="425"/>
      <point x="338" y="438" type="curve" smooth="yes"/>
      <point x="341" y="451"/>
      <point x="336" y="454"/>
      <point x="330" y="455" type="curve" smooth="yes"/>
      <point x="269" y="466"/>
      <point x="241" y="493"/>
      <point x="241" y="529" type="curve" smooth="yes"/>
      <point x="241" y="624"/>
      <point x="409" y="726"/>
      <point x="409" y="844" type="curve" smooth="yes"/>
      <point x="409" y="914"/>
      <point x="363" y="950"/>
      <point x="276" y="950" type="curve" smooth="yes"/>
      <point x="266" y="950"/>
      <point x="264" y="945"/>
      <point x="260" y="933" type="curve" smooth="yes"/>
      <point x="258" y="925"/>
      <point x="258" y="915"/>
      <point x="269" y="915" type="curve" smooth="yes"/>
      <point x="334" y="915"/>
      <point x="371" y="901"/>
      <point x="371" y="844" type="curve" smooth="yes"/>
      <point x="371" y="730"/>
      <point x="205" y="648"/>
      <point x="205" y="529" type="curve" smooth="yes"/>
      <point x="205" y="491"/>
      <point x="223" y="458"/>
      <point x="269" y="443" type="curve"/>
      <point x="176" y="419"/>
      <point x="121" y="345"/>
      <point x="121" y="266" type="curve" smooth="yes"/>
      <point x="121" y="186"/>
      <point x="145" y="154"/>
      <point x="145" y="104" type="curve" smooth="yes"/>
      <point x="145" y="20"/>
      <point x="69" y="-40"/>
      <point x="-26" y="-40" type="curve" smooth="yes"/>
      <point x="-36" y="-40"/>
      <point x="-39" y="-45"/>
      <point x="-42" y="-57" type="curve" smooth="yes"/>
      <point x="-45" y="-65"/>
      <point x="-45" y="-75"/>
    </contour>
  </outline>
</glyph>
<glyph name="cent" format="2">
  <advance width="530"/>
  <unicode hex="00A2"/>
  <outline>
    <contour>
      <point x="230" y="-19" type="curve" smooth="yes"/>
      <point x="314" y="-19"/>
      <point x="400" y="34"/>
      <point x="461" y="110" type="curve" smooth="yes"/>
      <point x="468" y="118"/>
      <point x="466" y="126"/>
      <point x="460" y="131" type="curve" smooth="yes"/>
      <point x="455" y="136"/>
      <point x="448" y="140"/>
      <point x="439" y="131" type="curve" smooth="yes"/>
      <point x="374" y="60"/>
      <point x="311" y="15"/>
      <point x="234" y="15" type="curve" smooth="yes"/>
      <point x="154" y="15"/>
      <point x="111" y="69"/>
      <point x="111" y="168" type="curve" smooth="yes"/>
      <point x="111" y="331"/>
      <point x="216" y="485"/>
      <point x="368" y="485" type="curve" smooth="yes"/>
      <point x="434" y="485"/>
      <point x="469" y="463"/>
      <point x="495" y="431" type="curve" smooth="yes"/>
      <point x="501" y="423"/>
      <point x="509" y="420"/>
      <point x="516" y="426" type="curve" smooth="yes"/>
      <point x="529" y="435"/>
      <point x="528" y="440"/>
      <point x="525" y="446" type="curve" smooth="yes"/>
      <point x="505" y="485"/>
      <point x="445" y="519"/>
      <point x="373" y="519" type="curve" smooth="yes"/>
      <point x="201" y="519"/>
      <point x="73" y="361"/>
      <point x="73" y="168" type="curve" smooth="yes"/>
      <point x="73" y="51"/>
      <point x="126" y="-19"/>
    </contour>
    <contour>
      <point x="159" y="-126" type="curve" smooth="yes"/>
      <point x="173" y="-126"/>
      <point x="179" y="-122"/>
      <point x="183" y="-111" type="curve" smooth="yes"/>
      <point x="421" y="625" type="line" smooth="yes"/>
      <point x="425" y="636"/>
      <point x="420" y="640"/>
      <point x="408" y="640" type="curve" smooth="yes"/>
      <point x="394" y="640"/>
      <point x="388" y="636"/>
      <point x="384" y="625" type="curve" smooth="yes"/>
      <point x="145" y="-111" type="line" smooth="yes"/>
      <point x="141" y="-122"/>
      <point x="145" y="-126"/>
    </contour>
  </outline>
</glyph>
<glyph name="sterling" format="2">
  <advance width="675"/>
  <unicode hex="00A3"/>
  <outline>
    <contour>
      <point x="-22" y="0" type="curve" smooth="yes"/>
      <point x="546" y="0" type="line" smooth="yes"/>
      <point x="553" y="0"/>
      <point x="560" y="6"/>
      <point x="564" y="19" type="curve" smooth="yes"/>
      <point x="568" y="31"/>
      <point x="564" y="35"/>
      <point x="558" y="35" type="curve" smooth="yes"/>
      <point x="166" y="35" type="line"/>
      <point x="273" y="360" type="line"/>
      <point x="501" y="360" type="line" smooth="yes"/>
      <point x="508" y="360"/>
      <point x="515" y="366"/>
      <point x="519" y="379" type="curve" smooth="yes"/>
      <point x="523" y="391"/>
      <point x="519" y="395"/>
      <point x="513" y="395" type="curve" smooth="yes"/>
      <point x="284" y="395" type="line"/>
      <point x="381" y="696" type="line" smooth="yes"/>
      <point x="414" y="798"/>
      <point x="474" y="853"/>
      <point x="555" y="853" type="curve" smooth="yes"/>
      <point x="629" y="853"/>
      <point x="690" y="824"/>
      <point x="741" y="775" type="curve" smooth="yes"/>
      <point x="749" y="768"/>
      <point x="756" y="766"/>
      <point x="769" y="776" type="curve" smooth="yes"/>
      <point x="780" y="786"/>
      <point x="779" y="796"/>
      <point x="771" y="804" type="curve" smooth="yes"/>
      <point x="721" y="855"/>
      <point x="645" y="890"/>
      <point x="560" y="890" type="curve" smooth="yes"/>
      <point x="454" y="890"/>
      <point x="386" y="825"/>
      <point x="345" y="699" type="curve" smooth="yes"/>
      <point x="246" y="395" type="line"/>
      <point x="130" y="395" type="line" smooth="yes"/>
      <point x="124" y="395"/>
      <point x="118" y="390"/>
      <point x="113" y="378" type="curve" smooth="yes"/>
      <point x="109" y="365"/>
      <point x="113" y="360"/>
      <point x="119" y="360" type="curve" smooth="yes"/>
      <point x="235" y="360" type="line"/>
      <point x="129" y="35" type="line"/>
      <point x="-11" y="35" type="line" smooth="yes"/>
      <point x="-17" y="35"/>
      <point x="-24" y="31"/>
      <point x="-27" y="19" type="curve" smooth="yes"/>
      <point x="-31" y="6"/>
      <point x="-29" y="0"/>
    </contour>
  </outline>
</glyph>
<glyph name="copyright" format="2">
  <advance width="905"/>
  <unicode hex="00A9"/>
  <outline>
    <contour>
      <point x="514" y="73" type="curve" smooth="yes"/>
      <point x="714" y="73"/>
      <point x="873" y="231"/>
      <point x="873" y="431" type="curve" smooth="yes"/>
      <point x="873" y="631"/>
      <point x="714" y="790"/>
      <point x="514" y="790" type="curve" smooth="yes"/>
      <point x="314" y="790"/>
      <point x="155" y="631"/>
      <point x="155" y="431" type="curve" smooth="yes"/>
      <point x="155" y="231"/>
      <point x="314" y="73"/>
    </contour>
    <contour>
      <point x="514" y="103" type="curve" smooth="yes"/>
      <point x="333" y="103"/>
      <point x="185" y="250"/>
      <point x="185" y="431" type="curve" smooth="yes"/>
      <point x="185" y="613"/>
      <point x="333" y="760"/>
      <point x="514" y="760" type="curve" smooth="yes"/>
      <point x="695" y="760"/>
      <point x="843" y="613"/>
      <point x="843" y="431" type="curve" smooth="yes"/>
      <point x="843" y="250"/>
      <point x="695" y="103"/>
    </contour>
    <contour>
      <point x="508" y="229" type="curve" smooth="yes"/>
      <point x="564" y="229"/>
      <point x="614" y="268"/>
      <point x="643" y="319" type="curve" smooth="yes"/>
      <point x="646" y="325"/>
      <point x="646" y="331"/>
      <point x="638" y="336" type="curve" smooth="yes"/>
      <point x="629" y="343"/>
      <point x="623" y="343"/>
      <point x="618" y="335" type="curve" smooth="yes"/>
      <point x="596" y="304"/>
      <point x="559" y="264"/>
      <point x="508" y="264" type="curve" smooth="yes"/>
      <point x="441" y="264"/>
      <point x="390" y="321"/>
      <point x="390" y="429" type="curve" smooth="yes"/>
      <point x="390" y="535"/>
      <point x="446" y="604"/>
      <point x="524" y="604" type="curve" smooth="yes"/>
      <point x="560" y="604"/>
      <point x="588" y="591"/>
      <point x="610" y="568" type="curve" smooth="yes"/>
      <point x="615" y="563"/>
      <point x="624" y="564"/>
      <point x="630" y="570" type="curve" smooth="yes"/>
      <point x="635" y="574"/>
      <point x="639" y="580"/>
      <point x="634" y="586" type="curve" smooth="yes"/>
      <point x="605" y="628"/>
      <point x="565" y="638"/>
      <point x="524" y="638" type="curve" smooth="yes"/>
      <point x="420" y="638"/>
      <point x="353" y="548"/>
      <point x="353" y="429" type="curve" smooth="yes"/>
      <point x="353" y="309"/>
      <point x="415" y="229"/>
    </contour>
  </outline>
</glyph>
<glyph name="ordfeminine" format="2">
  <advance width="479"/>
  <unicode hex="00AA"/>
  <outline>
    <contour>
      <point x="266" y="486" type="curve" smooth="yes"/>
      <point x="328" y="486"/>
      <point x="396" y="540"/>
      <point x="475" y="678" type="curve"/>
      <point x="464" y="644"/>
      <point x="455" y="618"/>
      <point x="441" y="574" type="curve" smooth="yes"/>
      <point x="424" y="521"/>
      <point x="435" y="486"/>
      <point x="476" y="486" type="curve" smooth="yes"/>
      <point x="525" y="486"/>
      <point x="568" y="538"/>
      <point x="588" y="566" type="curve" smooth="yes"/>
      <point x="591" y="571"/>
      <point x="593" y="576"/>
      <point x="583" y="584" type="curve" smooth="yes"/>
      <point x="576" y="589"/>
      <point x="571" y="589"/>
      <point x="565" y="581" type="curve" smooth="yes"/>
      <point x="536" y="545"/>
      <point x="508" y="519"/>
      <point x="484" y="519" type="curve" smooth="yes"/>
      <point x="465" y="519"/>
      <point x="464" y="536"/>
      <point x="475" y="571" type="curve" smooth="yes"/>
      <point x="576" y="879" type="line" smooth="yes"/>
      <point x="579" y="888"/>
      <point x="578" y="896"/>
      <point x="561" y="896" type="curve" smooth="yes"/>
      <point x="550" y="896"/>
      <point x="545" y="894"/>
      <point x="541" y="884" type="curve" smooth="yes"/>
      <point x="536" y="870" type="line"/>
      <point x="509" y="888"/>
      <point x="471" y="900"/>
      <point x="435" y="900" type="curve" smooth="yes"/>
      <point x="276" y="900"/>
      <point x="180" y="719"/>
      <point x="180" y="601" type="curve" smooth="yes"/>
      <point x="180" y="531"/>
      <point x="215" y="486"/>
    </contour>
    <contour>
      <point x="216" y="603" type="curve" smooth="yes"/>
      <point x="216" y="705"/>
      <point x="300" y="868"/>
      <point x="430" y="868" type="curve" smooth="yes"/>
      <point x="458" y="868"/>
      <point x="488" y="863"/>
      <point x="526" y="840" type="curve"/>
      <point x="515" y="803" type="line"/>
      <point x="426" y="615"/>
      <point x="336" y="519"/>
      <point x="274" y="519" type="curve" smooth="yes"/>
      <point x="236" y="519"/>
      <point x="216" y="553"/>
    </contour>
  </outline>
</glyph>
<glyph name="ordmasculine" format="2">
  <advance width="454"/>
  <unicode hex="00BA"/>
  <outline>
    <contour>
      <point x="320" y="485" type="curve" smooth="yes"/>
      <point x="479" y="485"/>
      <point x="553" y="656"/>
      <point x="553" y="763" type="curve" smooth="yes"/>
      <point x="553" y="845"/>
      <point x="506" y="900"/>
      <point x="424" y="900" type="curve" smooth="yes"/>
      <point x="269" y="900"/>
      <point x="190" y="740"/>
      <point x="190" y="628" type="curve" smooth="yes"/>
      <point x="190" y="544"/>
      <point x="235" y="485"/>
    </contour>
    <contour>
      <point x="324" y="519" type="curve" smooth="yes"/>
      <point x="261" y="519"/>
      <point x="228" y="563"/>
      <point x="228" y="629" type="curve" smooth="yes"/>
      <point x="228" y="725"/>
      <point x="296" y="866"/>
      <point x="419" y="866" type="curve" smooth="yes"/>
      <point x="481" y="866"/>
      <point x="514" y="825"/>
      <point x="514" y="759" type="curve" smooth="yes"/>
      <point x="514" y="665"/>
      <point x="450" y="519"/>
    </contour>
  </outline>
</glyph>
<glyph name="Thorn" format="2">
  <advance width="725"/>
  <unicode hex="00DE"/>
  <outline>
    <contour>
      <point x="85" y="-14" type="curve" smooth="yes"/>
      <point x="100" y="-14"/>
      <point x="104" y="-10"/>
      <point x="108" y="1" type="curve" smooth="yes"/>
      <point x="186" y="243" type="line"/>
      <point x="248" y="245"/>
      <point x="314" y="249"/>
      <point x="375" y="256" type="curve" smooth="yes"/>
      <point x="595" y="284"/>
      <point x="743" y="386"/>
      <point x="743" y="574" type="curve" smooth="yes"/>
      <point x="743" y="704"/>
      <point x="661" y="750"/>
      <point x="503" y="750" type="curve" smooth="yes"/>
      <point x="351" y="750" type="line"/>
      <point x="393" y="875" type="line" smooth="yes"/>
      <point x="396" y="886"/>
      <point x="390" y="890"/>
      <point x="378" y="890" type="curve" smooth="yes"/>
      <point x="363" y="890"/>
      <point x="359" y="886"/>
      <point x="355" y="875" type="curve" smooth="yes"/>
      <point x="70" y="1" type="line" smooth="yes"/>
      <point x="66" y="-10"/>
      <point x="73" y="-14"/>
    </contour>
    <contour>
      <point x="198" y="278" type="curve"/>
      <point x="339" y="715" type="line"/>
      <point x="503" y="715" type="line" smooth="yes"/>
      <point x="635" y="715"/>
      <point x="703" y="679"/>
      <point x="703" y="573" type="curve" smooth="yes"/>
      <point x="703" y="406"/>
      <point x="571" y="318"/>
      <point x="375" y="291" type="curve" smooth="yes"/>
      <point x="318" y="284"/>
      <point x="256" y="279"/>
    </contour>
  </outline>
</glyph>
<glyph name="eth" format="2">
  <advance width="603"/>
  <unicode hex="00F0"/>
  <outline>
    <contour>
      <point x="246" y="-19" type="curve" smooth="yes"/>
      <point x="420" y="-19"/>
      <point x="555" y="173"/>
      <point x="555" y="398" type="curve" smooth="yes"/>
      <point x="555" y="579"/>
      <point x="515" y="701"/>
      <point x="413" y="885" type="curve" smooth="yes"/>
      <point x="409" y="893"/>
      <point x="403" y="894"/>
      <point x="390" y="886" type="curve" smooth="yes"/>
      <point x="379" y="880"/>
      <point x="375" y="874"/>
      <point x="379" y="865" type="curve"/>
      <point x="461" y="718"/>
      <point x="499" y="610"/>
      <point x="510" y="482" type="curve"/>
      <point x="460" y="508"/>
      <point x="418" y="519"/>
      <point x="369" y="519" type="curve" smooth="yes"/>
      <point x="174" y="519"/>
      <point x="78" y="320"/>
      <point x="78" y="164" type="curve" smooth="yes"/>
      <point x="78" y="55"/>
      <point x="140" y="-19"/>
    </contour>
    <contour>
      <point x="250" y="16" type="curve" smooth="yes"/>
      <point x="168" y="16"/>
      <point x="118" y="75"/>
      <point x="118" y="164" type="curve" smooth="yes"/>
      <point x="118" y="299"/>
      <point x="201" y="484"/>
      <point x="364" y="484" type="curve" smooth="yes"/>
      <point x="411" y="484"/>
      <point x="457" y="473"/>
      <point x="513" y="442" type="curve"/>
      <point x="514" y="427"/>
      <point x="514" y="412"/>
      <point x="514" y="396" type="curve" smooth="yes"/>
      <point x="514" y="185"/>
      <point x="389" y="16"/>
    </contour>
    <contour>
      <point x="340" y="634" type="curve" smooth="yes"/>
      <point x="621" y="740" type="line" smooth="yes"/>
      <point x="631" y="744"/>
      <point x="633" y="750"/>
      <point x="630" y="761" type="curve" smooth="yes"/>
      <point x="626" y="775"/>
      <point x="619" y="779"/>
      <point x="609" y="775" type="curve" smooth="yes"/>
      <point x="329" y="669" type="line" smooth="yes"/>
      <point x="318" y="665"/>
      <point x="316" y="658"/>
      <point x="319" y="646" type="curve" smooth="yes"/>
      <point x="323" y="634"/>
      <point x="330" y="630"/>
    </contour>
  </outline>
</glyph>
<glyph name="Ohorn" format="2">
  <advance width="926"/>
  <unicode hex="01A0"/>
  <anchor x="381" y="0" name="bottom"/>
  <anchor x="524" y="438" name="center"/>
  <anchor x="755" y="13" name="ogonek"/>
  <anchor x="630" y="838" name="top"/>
  <outline>
    <contour>
      <point x="415" y="-19" type="curve" smooth="yes"/>
      <point x="736" y="-19"/>
      <point x="919" y="341"/>
      <point x="919" y="599" type="curve" smooth="yes"/>
      <point x="919" y="717"/>
      <point x="873" y="805"/>
      <point x="793" y="852" type="curve"/>
      <point x="905" y="861"/>
      <point x="953" y="935"/>
      <point x="939" y="1056" type="curve" smooth="yes"/>
      <point x="937" y="1077"/>
      <point x="898" y="1074"/>
      <point x="900" y="1053" type="curve" smooth="yes"/>
      <point x="910" y="923"/>
      <point x="868" y="880"/>
      <point x="740" y="875" type="curve"/>
      <point x="710" y="885"/>
      <point x="675" y="890"/>
      <point x="638" y="890" type="curve" smooth="yes"/>
      <point x="320" y="890"/>
      <point x="133" y="554"/>
      <point x="133" y="293" type="curve" smooth="yes"/>
      <point x="133" y="94"/>
      <point x="243" y="-19"/>
    </contour>
    <contour>
      <point x="418" y="19" type="curve" smooth="yes"/>
      <point x="268" y="19"/>
      <point x="174" y="118"/>
      <point x="174" y="293" type="curve" smooth="yes"/>
      <point x="174" y="538"/>
      <point x="349" y="853"/>
      <point x="635" y="853" type="curve" smooth="yes"/>
      <point x="784" y="853"/>
      <point x="878" y="764"/>
      <point x="878" y="599" type="curve" smooth="yes"/>
      <point x="878" y="359"/>
      <point x="705" y="19"/>
    </contour>
  </outline>
</glyph>
<glyph name="dotaccentcomb" format="2">
  <unicode hex="0307"/>
  <anchor x="81" y="500" name="_top"/>
  <anchor x="171" y="775" name="top"/>
  <outline>
    <contour>
      <point x="150" y="690" type="curve" smooth="yes"/>
      <point x="181" y="690"/>
      <point x="200" y="718"/>
      <point x="200" y="746" type="curve" smooth="yes"/>
      <point x="200" y="766"/>
      <point x="185" y="775"/>
      <point x="164" y="775" type="curve" smooth="yes"/>
      <point x="133" y="775"/>
      <point x="114" y="748"/>
      <point x="114" y="719" type="curve" smooth="yes"/>
      <point x="114" y="699"/>
      <point x="128" y="690"/>
    </contour>
  </outline>
</glyph>
<glyph name="hungarumlautcomb" format="2">
  <unicode hex="030B"/>
  <anchor x="81" y="500" name="_top"/>
  <anchor x="219" y="818" name="top"/>
  <outline>
    <contour>
      <point x="26" y="629" type="curve" smooth="yes"/>
      <point x="31" y="629"/>
      <point x="35" y="630"/>
      <point x="40" y="638" type="curve" smooth="yes"/>
      <point x="161" y="805" type="line" smooth="yes"/>
      <point x="165" y="810"/>
      <point x="168" y="814"/>
      <point x="168" y="818" type="curve" smooth="yes"/>
      <point x="168" y="829"/>
      <point x="151" y="838"/>
      <point x="143" y="838" type="curve" smooth="yes"/>
      <point x="136" y="838"/>
      <point x="131" y="833"/>
      <point x="128" y="826" type="curve" smooth="yes"/>
      <point x="15" y="659" type="line" smooth="yes"/>
      <point x="10" y="651"/>
      <point x="9" y="648"/>
      <point x="9" y="645" type="curve" smooth="yes"/>
      <point x="9" y="636"/>
      <point x="20" y="629"/>
    </contour>
    <contour>
      <point x="176" y="629" type="curve" smooth="yes"/>
      <point x="181" y="629"/>
      <point x="185" y="630"/>
      <point x="190" y="638" type="curve" smooth="yes"/>
      <point x="311" y="805" type="line" smooth="yes"/>
      <point x="315" y="810"/>
      <point x="318" y="814"/>
      <point x="318" y="818" type="curve" smooth="yes"/>
      <point x="318" y="829"/>
      <point x="301" y="838"/>
      <point x="293" y="838" type="curve" smooth="yes"/>
      <point x="286" y="838"/>
      <point x="281" y="833"/>
      <point x="278" y="826" type="curve" smooth="yes"/>
      <point x="165" y="659" type="line" smooth="yes"/>
      <point x="160" y="651"/>
      <point x="159" y="648"/>
      <point x="159" y="645" type="curve" smooth="yes"/>
      <point x="159" y="636"/>
      <point x="170" y="629"/>
    </contour>
  </outline>
</glyph>
<glyph name="commaaccentcomb" format="2">
  <unicode hex="0326"/>
  <anchor x="-81" y="0" name="_bottom"/>
  <outline>
    <contour>
      <point x="-187" y="-270" type="curve" smooth="yes"/>
      <point x="-179" y="-279"/>
      <point x="-169" y="-274"/>
      <point x="-162" y="-267" type="curve" smooth="yes"/>
      <point x="-97" y="-200"/>
      <point x="-80" y="-127"/>
      <point x="-80" y="-96" type="curve" smooth="yes"/>
      <point x="-80" y="-85"/>
      <point x="-86" y="-80"/>
      <point x="-99" y="-80" type="curve" smooth="yes"/>
      <point x="-111" y="-80"/>
      <point x="-119" y="-85"/>
      <point x="-120" y="-99" type="curve" smooth="yes"/>
      <point x="-125" y="-159"/>
      <point x="-150" y="-200"/>
      <point x="-189" y="-246" type="curve" smooth="yes"/>
      <point x="-196" y="-255"/>
      <point x="-195" y="-262"/>
    </contour>
  </outline>
</glyph>
<glyph name="ogonekcomb" format="2">
  <unicode hex="0328"/>
  <anchor x="8" y="0" name="_ogonek"/>
  <outline>
    <contour>
      <point x="-140" y="-257" type="curve" smooth="yes"/>
      <point x="-94" y="-257"/>
      <point x="-54" y="-230"/>
      <point x="-17" y="-187" type="curve" smooth="yes"/>
      <point x="-11" y="-180"/>
      <point x="-10" y="-174"/>
      <point x="-17" y="-166" type="curve" smooth="yes"/>
      <point x="-26" y="-157"/>
      <point x="-35" y="-160"/>
      <point x="-40" y="-166" type="curve" smooth="yes"/>
      <point x="-76" y="-205"/>
      <point x="-107" y="-225"/>
      <point x="-136" y="-225" type="curve" smooth="yes"/>
      <point x="-157" y="-225"/>
      <point x="-166" y="-209"/>
      <point x="-166" y="-192" type="curve" smooth="yes"/>
      <point x="-166" y="-139"/>
      <point x="-101" y="-80"/>
      <point x="8" y="0" type="curve"/>
      <point x="8" y="4" type="line"/>
      <point x="-30" y="5" type="line"/>
      <point x="-147" y="-82"/>
      <point x="-204" y="-132"/>
      <point x="-204" y="-197" type="curve" smooth="yes"/>
      <point x="-204" y="-232"/>
      <point x="-180" y="-257"/>
    </contour>
  </outline>
</glyph>
<glyph name="strokelongcomb" format="2">
  <unicode hex="0336"/>
  <anchor x="31" y="343" name="_center"/>
  <outline>
    <contour>
      <point x="-364" y="325" type="curve" smooth="yes"/>
      <point x="416" y="325" type="line" smooth="yes"/>
      <point x="429" y="325"/>
      <point x="434" y="329"/>
      <point x="438" y="343" type="curve" smooth="yes"/>
      <point x="440" y="354"/>
      <point x="440" y="360"/>
      <point x="426" y="360" type="curve" smooth="yes"/>
      <point x="-354" y="360" type="line" smooth="yes"/>
      <point x="-366" y="360"/>
      <point x="-371" y="356"/>
      <point x="-375" y="344" type="curve" smooth="yes"/>
      <point x="-379" y="331"/>
      <point x="-377" y="325"/>
    </contour>
  </outline>
</glyph>
<glyph name="slashlongcomb" format="2">
  <unicode hex="0338"/>
  <anchor x="0" y="268" name="_center"/>
  <outline>
    <contour>
      <point x="-225" y="-15" type="curve" smooth="yes"/>
      <point x="255" y="523" type="line" smooth="yes"/>
      <point x="263" y="531"/>
      <point x="260" y="538"/>
      <point x="253" y="545" type="curve" smooth="yes"/>
      <point x="244" y="554"/>
      <point x="235" y="555"/>
      <point x="228" y="546" type="curve" smooth="yes"/>
      <point x="-252" y="9" type="line" smooth="yes"/>
      <point x="-259" y="1"/>
      <point x="-257" y="-7"/>
      <point x="-249" y="-15" type="curve" smooth="yes"/>
      <point x="-240" y="-22"/>
      <point x="-232" y="-24"/>
    </contour>
  </outline>
</glyph>
<glyph name="emdash" format="2">
  <advance width="1250"/>
  <unicode hex="2014"/>
  <outline>
    <contour>
      <point x="116" y="325" type="curve" smooth="yes"/>
      <point x="1184" y="325" type="line" smooth="yes"/>
      <point x="1196" y="325"/>
      <point x="1201" y="329"/>
      <point x="1205" y="343" type="curve" smooth="yes"/>
      <point x="1208" y="354"/>
      <point x="1208" y="360"/>
      <point x="1194" y="360" type="curve" smooth="yes"/>
      <point x="126" y="360" type="line" smooth="yes"/>
      <point x="114" y="360"/>
      <point x="109" y="356"/>
      <point x="105" y="344" type="curve" smooth="yes"/>
      <point x="101" y="331"/>
      <point x="103" y="325"/>
    </contour>
  </outline>
</glyph>
<glyph name="quoteleft" format="2">
  <advance width="181"/>
  <unicode hex="2018"/>
  <outline>
    <contour>
      <point x="227" y="645" type="curve" smooth="yes"/>
      <point x="245" y="645"/>
      <point x="255" y="654"/>
      <point x="259" y="670" type="curve" smooth="yes"/>
      <point x="277" y="755"/>
      <point x="300" y="796"/>
      <point x="343" y="859" type="curve" smooth="yes"/>
      <point x="347" y="865"/>
      <point x="350" y="869"/>
      <point x="350" y="873" type="curve" smooth="yes"/>
      <point x="350" y="881"/>
      <point x="339" y="894"/>
      <point x="330" y="894" type="curve" smooth="yes"/>
      <point x="323" y="894"/>
      <point x="314" y="886"/>
      <point x="306" y="878" type="curve" smooth="yes"/>
      <point x="230" y="795"/>
      <point x="202" y="701"/>
      <point x="202" y="666" type="curve" smooth="yes"/>
      <point x="202" y="653"/>
      <point x="209" y="645"/>
    </contour>
  </outline>
</glyph>
<glyph name="quoteright" format="2">
  <advance width="206"/>
  <unicode hex="2019"/>
  <outline>
    <contour>
      <point x="318" y="894" type="curve" smooth="yes"/>
      <point x="298" y="894"/>
      <point x="288" y="885"/>
      <point x="284" y="869" type="curve" smooth="yes"/>
      <point x="266" y="784"/>
      <point x="246" y="748"/>
      <point x="204" y="695" type="curve" smooth="yes"/>
      <point x="199" y="689"/>
      <point x="196" y="685"/>
      <point x="196" y="681" type="curve" smooth="yes"/>
      <point x="196" y="673"/>
      <point x="210" y="660"/>
      <point x="219" y="660" type="curve" smooth="yes"/>
      <point x="226" y="660"/>
      <point x="235" y="668"/>
      <point x="244" y="675" type="curve" smooth="yes"/>
      <point x="319" y="749"/>
      <point x="345" y="838"/>
      <point x="345" y="873" type="curve" smooth="yes"/>
      <point x="345" y="886"/>
      <point x="338" y="894"/>
    </contour>
  </outline>
</glyph>
<glyph name="minute" format="2">
  <advance width="240"/>
  <unicode hex="2032"/>
  <outline>
    <contour>
      <point x="222" y="660" type="curve" smooth="yes"/>
      <point x="236" y="660"/>
      <point x="240" y="667"/>
      <point x="243" y="671" type="curve" smooth="yes"/>
      <point x="355" y="860" type="line" smooth="yes"/>
      <point x="368" y="882"/>
      <point x="355" y="894"/>
      <point x="330" y="894" type="curve" smooth="yes"/>
      <point x="313" y="894"/>
      <point x="305" y="887"/>
      <point x="297" y="869" type="curve" smooth="yes"/>
      <point x="207" y="680" type="line" smooth="yes"/>
      <point x="202" y="669"/>
      <point x="207" y="660"/>
    </contour>
  </outline>
</glyph>
<glyph name="A.cur" format="2">
  <advance width="979"/>
  <anchor x="309" y="0" name="bottom"/>
  <anchor x="805" y="13" name="ogonek"/>
  <anchor x="655" y="838" name="top"/>
  <outline>
    <contour>
      <point x="309" y="-17" type="curve" smooth="yes"/>
      <point x="458" y="-17"/>
      <point x="613" y="119"/>
      <point x="769" y="381" type="curve"/>
      <point x="680" y="114" type="line" smooth="yes"/>
      <point x="654" y="35"/>
      <point x="674" y="-17"/>
      <point x="730" y="-17" type="curve" smooth="yes"/>
      <point x="780" y="-17"/>
      <point x="845" y="34"/>
      <point x="906" y="120" type="curve" smooth="yes"/>
      <point x="911" y="128"/>
      <point x="910" y="134"/>
      <point x="901" y="140" type="curve" smooth="yes"/>
      <point x="894" y="146"/>
      <point x="889" y="146"/>
      <point x="881" y="138" type="curve" smooth="yes"/>
      <point x="821" y="61"/>
      <point x="771" y="20"/>
      <point x="738" y="20" type="curve" smooth="yes"/>
      <point x="704" y="20"/>
      <point x="699" y="50"/>
      <point x="720" y="115" type="curve" smooth="yes"/>
      <point x="866" y="559" type="line" smooth="yes"/>
      <point x="870" y="570"/>
      <point x="864" y="574"/>
      <point x="851" y="574" type="curve" smooth="yes"/>
      <point x="835" y="574"/>
      <point x="831" y="570"/>
      <point x="828" y="559" type="curve"/>
      <point x="664" y="238"/>
      <point x="484" y="20"/>
      <point x="316" y="20" type="curve" smooth="yes"/>
      <point x="226" y="20"/>
      <point x="165" y="106"/>
      <point x="165" y="233" type="curve" smooth="yes"/>
      <point x="165" y="543"/>
      <point x="418" y="853"/>
      <point x="669" y="853" type="curve" smooth="yes"/>
      <point x="775" y="853"/>
      <point x="848" y="814"/>
      <point x="891" y="733" type="curve" smooth="yes"/>
      <point x="898" y="723"/>
      <point x="905" y="720"/>
      <point x="916" y="726" type="curve" smooth="yes"/>
      <point x="929" y="733"/>
      <point x="931" y="741"/>
      <point x="924" y="755" type="curve" smooth="yes"/>
      <point x="878" y="844"/>
      <point x="793" y="890"/>
      <point x="675" y="890" type="curve" smooth="yes"/>
      <point x="395" y="890"/>
      <point x="124" y="568"/>
      <point x="124" y="235" type="curve" smooth="yes"/>
      <point x="124" y="84"/>
      <point x="199" y="-17"/>
    </contour>
  </outline>
</glyph>
<glyph name="A.cur_locl.ini" format="2">
  <advance width="929"/>
  <anchor x="309" y="0" name="bottom"/>
  <anchor x="848" y="0" name="cnct"/>
  <anchor x="805" y="13" name="ogonek"/>
  <anchor x="655" y="838" name="top"/>
  <outline>
    <contour>
      <point x="309" y="-17" type="curve" smooth="yes"/>
      <point x="456" y="-17"/>
      <point x="613" y="118"/>
      <point x="768" y="380" type="curve"/>
      <point x="688" y="136" type="line" smooth="yes"/>
      <point x="661" y="56"/>
      <point x="665" y="-17"/>
      <point x="749" y="-17" type="curve" smooth="yes"/>
      <point x="771" y="-17"/>
      <point x="781" y="18"/>
      <point x="756" y="18" type="curve" smooth="yes"/>
      <point x="693" y="18"/>
      <point x="710" y="84"/>
      <point x="728" y="138" type="curve" smooth="yes"/>
      <point x="970" y="875" type="line" smooth="yes"/>
      <point x="974" y="885"/>
      <point x="969" y="890"/>
      <point x="955" y="890" type="curve" smooth="yes"/>
      <point x="940" y="890"/>
      <point x="935" y="888"/>
      <point x="931" y="875" type="curve" smooth="yes"/>
      <point x="901" y="785" type="line"/>
      <point x="851" y="851"/>
      <point x="765" y="890"/>
      <point x="675" y="890" type="curve" smooth="yes"/>
      <point x="395" y="890"/>
      <point x="124" y="568"/>
      <point x="124" y="235" type="curve" smooth="yes"/>
      <point x="124" y="84"/>
      <point x="199" y="-17"/>
    </contour>
    <contour>
      <point x="165" y="233" type="curve" smooth="yes"/>
      <point x="165" y="543"/>
      <point x="418" y="853"/>
      <point x="669" y="853" type="curve" smooth="yes"/>
      <point x="770" y="853"/>
      <point x="840" y="815"/>
      <point x="888" y="743" type="curve"/>
      <point x="820" y="539" type="line"/>
      <point x="651" y="213"/>
      <point x="464" y="20"/>
      <point x="316" y="20" type="curve" smooth="yes"/>
      <point x="226" y="20"/>
      <point x="165" y="106"/>
    </contour>
  </outline>
</glyph>
<glyph name="A.dec" format="2">
  <advance width="931"/>
  <anchor x="476" y="0" name="bottom"/>
  <anchor x="750" y="0" name="ogonek"/>
  <anchor x="748" y="838" name="top"/>
  <outline>
    <contour>
      <point x="114" y="-17" type="curve" smooth="yes"/>
      <point x="214" y="-17"/>
      <point x="331" y="44"/>
      <point x="745" y="809" type="curve"/>
      <point x="714" y="547"/>
      <point x="697" y="288"/>
      <point x="711" y="3" type="curve"/>
      <point x="713" y="-14"/>
      <point x="718" y="-17"/>
      <point x="733" y="-16" type="curve" smooth="yes"/>
      <point x="748" y="-15"/>
      <point x="751" y="-9"/>
      <point x="751" y="6" type="curve" smooth="yes"/>
      <point x="739" y="309"/>
      <point x="755" y="588"/>
      <point x="789" y="868" type="curve" smooth="yes"/>
      <point x="791" y="883"/>
      <point x="784" y="890"/>
      <point x="769" y="890" type="curve" smooth="yes"/>
      <point x="754" y="890"/>
      <point x="745" y="881"/>
      <point x="738" y="868" type="curve" smooth="yes"/>
      <point x="313" y="86"/>
      <point x="198" y="20"/>
      <point x="115" y="20" type="curve" smooth="yes"/>
      <point x="80" y="20"/>
      <point x="55" y="40"/>
      <point x="40" y="58" type="curve" smooth="yes"/>
      <point x="34" y="64"/>
      <point x="26" y="68"/>
      <point x="15" y="58" type="curve" smooth="yes"/>
      <point x="3" y="46"/>
      <point x="5" y="39"/>
      <point x="11" y="31" type="curve" smooth="yes"/>
      <point x="31" y="9"/>
      <point x="65" y="-17"/>
    </contour>
    <contour>
      <point x="713" y="9" type="curve"/>
      <point x="740" y="21" type="line"/>
      <point x="731" y="319"/>
      <point x="543" y="376"/>
      <point x="411" y="376" type="curve" smooth="yes"/>
      <point x="334" y="376"/>
      <point x="248" y="339"/>
      <point x="248" y="264" type="curve" smooth="yes"/>
      <point x="248" y="189"/>
      <point x="329" y="151"/>
      <point x="450" y="151" type="curve" smooth="yes"/>
      <point x="569" y="151"/>
      <point x="678" y="170"/>
      <point x="855" y="231" type="curve" smooth="yes"/>
      <point x="864" y="234"/>
      <point x="868" y="239"/>
      <point x="863" y="253" type="curve" smooth="yes"/>
      <point x="859" y="264"/>
      <point x="853" y="266"/>
      <point x="845" y="264" type="curve" smooth="yes"/>
      <point x="683" y="205"/>
      <point x="556" y="186"/>
      <point x="454" y="186" type="curve" smooth="yes"/>
      <point x="355" y="186"/>
      <point x="289" y="209"/>
      <point x="289" y="268" type="curve" smooth="yes"/>
      <point x="289" y="321"/>
      <point x="358" y="341"/>
      <point x="410" y="341" type="curve" smooth="yes"/>
      <point x="530" y="341"/>
      <point x="695" y="295"/>
    </contour>
  </outline>
</glyph>
<glyph name="A.dec_locl" format="2">
  <advance width="1056"/>
  <anchor x="476" y="0" name="bottom"/>
  <anchor x="869" y="0" name="ogonek"/>
  <anchor x="748" y="838" name="top"/>
  <outline>
    <contour>
      <point x="114" y="-17" type="curve" smooth="yes"/>
      <point x="185" y="-17"/>
      <point x="264" y="13"/>
      <point x="452" y="303" type="curve"/>
      <point x="710" y="303" type="line"/>
      <point x="709" y="271"/>
      <point x="709" y="239"/>
      <point x="709" y="206" type="curve" smooth="yes"/>
      <point x="709" y="45"/>
      <point x="740" y="-17"/>
      <point x="811" y="-17" type="curve" smooth="yes"/>
      <point x="890" y="-17"/>
      <point x="968" y="81"/>
      <point x="1013" y="216" type="curve" smooth="yes"/>
      <point x="1016" y="228"/>
      <point x="1011" y="234"/>
      <point x="999" y="238" type="curve" smooth="yes"/>
      <point x="986" y="241"/>
      <point x="981" y="239"/>
      <point x="978" y="228" type="curve" smooth="yes"/>
      <point x="938" y="108"/>
      <point x="871" y="19"/>
      <point x="815" y="19" type="curve" smooth="yes"/>
      <point x="770" y="19"/>
      <point x="746" y="70"/>
      <point x="746" y="206" type="curve" smooth="yes"/>
      <point x="746" y="436"/>
      <point x="763" y="651"/>
      <point x="789" y="868" type="curve" smooth="yes"/>
      <point x="791" y="883"/>
      <point x="784" y="890"/>
      <point x="769" y="890" type="curve" smooth="yes"/>
      <point x="754" y="890"/>
      <point x="745" y="881"/>
      <point x="738" y="868" type="curve" smooth="yes"/>
      <point x="313" y="86"/>
      <point x="198" y="20"/>
      <point x="115" y="20" type="curve" smooth="yes"/>
      <point x="80" y="20"/>
      <point x="55" y="40"/>
      <point x="40" y="58" type="curve" smooth="yes"/>
      <point x="34" y="64"/>
      <point x="26" y="68"/>
      <point x="15" y="58" type="curve" smooth="yes"/>
      <point x="3" y="46"/>
      <point x="5" y="39"/>
      <point x="11" y="31" type="curve" smooth="yes"/>
      <point x="31" y="9"/>
      <point x="65" y="-17"/>
    </contour>
    <contour>
      <point x="472" y="335" type="line"/>
      <point x="546" y="451"/>
      <point x="635" y="605"/>
      <point x="745" y="809" type="curve"/>
      <point x="727" y="653"/>
      <point x="715" y="497"/>
      <point x="711" y="335" type="curve"/>
    </contour>
  </outline>
</glyph>
<glyph name="B.cur" format="2">
  <advance width="896"/>
  <anchor x="478" y="0" name="bottom"/>
  <anchor x="304" y="258" name="center"/>
  <anchor x="664" y="838" name="top"/>
  <outline>
    <contour>
      <point x="496" y="-12" type="curve" smooth="yes"/>
      <point x="684" y="-12"/>
      <point x="830" y="125"/>
      <point x="830" y="300" type="curve" smooth="yes"/>
      <point x="830" y="394"/>
      <point x="763" y="460"/>
      <point x="655" y="478" type="curve"/>
      <point x="656" y="480" type="line"/>
      <point x="789" y="504"/>
      <point x="904" y="580"/>
      <point x="904" y="703" type="curve" smooth="yes"/>
      <point x="904" y="833"/>
      <point x="791" y="890"/>
      <point x="634" y="890" type="curve"/>
      <point x="483" y="890"/>
      <point x="368" y="855"/>
      <point x="246" y="805" type="curve" smooth="yes"/>
      <point x="231" y="799"/>
      <point x="229" y="793"/>
      <point x="234" y="780" type="curve" smooth="yes"/>
      <point x="239" y="766"/>
      <point x="246" y="765"/>
      <point x="260" y="771" type="curve" smooth="yes"/>
      <point x="379" y="823"/>
      <point x="488" y="854"/>
      <point x="634" y="854" type="curve" smooth="yes"/>
      <point x="764" y="854"/>
      <point x="863" y="809"/>
      <point x="863" y="700" type="curve" smooth="yes"/>
      <point x="863" y="586"/>
      <point x="751" y="520"/>
      <point x="611" y="498" type="curve"/>
      <point x="600" y="503"/>
      <point x="584" y="505"/>
      <point x="564" y="505" type="curve"/>
      <point x="535" y="504"/>
      <point x="513" y="490"/>
      <point x="506" y="470" type="curve" smooth="yes"/>
      <point x="501" y="453"/>
      <point x="514" y="443"/>
      <point x="538" y="443" type="curve" smooth="yes"/>
      <point x="555" y="443"/>
      <point x="579" y="449"/>
      <point x="601" y="458" type="curve"/>
      <point x="718" y="448"/>
      <point x="789" y="386"/>
      <point x="789" y="296" type="curve" smooth="yes"/>
      <point x="789" y="146"/>
      <point x="660" y="24"/>
      <point x="499" y="24" type="curve" smooth="yes"/>
      <point x="435" y="24"/>
      <point x="384" y="50"/>
      <point x="364" y="93" type="curve" smooth="yes"/>
      <point x="358" y="105"/>
      <point x="350" y="108"/>
      <point x="336" y="99" type="curve" smooth="yes"/>
      <point x="325" y="91"/>
      <point x="324" y="85"/>
      <point x="330" y="70" type="curve" smooth="yes"/>
      <point x="351" y="21"/>
      <point x="420" y="-12"/>
    </contour>
    <contour>
      <point x="144" y="-17" type="curve" smooth="yes"/>
      <point x="210" y="-17"/>
      <point x="250" y="29"/>
      <point x="290" y="151" type="curve" smooth="yes"/>
      <point x="486" y="746" type="line" smooth="yes"/>
      <point x="490" y="756"/>
      <point x="485" y="761"/>
      <point x="471" y="761" type="curve" smooth="yes"/>
      <point x="456" y="761"/>
      <point x="451" y="758"/>
      <point x="448" y="746" type="curve" smooth="yes"/>
      <point x="256" y="165" type="line" smooth="yes"/>
      <point x="221" y="59"/>
      <point x="193" y="19"/>
      <point x="148" y="19" type="curve" smooth="yes"/>
      <point x="100" y="19"/>
      <point x="76" y="46"/>
      <point x="46" y="135" type="curve" smooth="yes"/>
      <point x="44" y="144"/>
      <point x="43" y="150"/>
      <point x="26" y="146" type="curve" smooth="yes"/>
      <point x="14" y="144"/>
      <point x="10" y="136"/>
      <point x="13" y="126" type="curve" smooth="yes"/>
      <point x="41" y="25"/>
      <point x="81" y="-17"/>
    </contour>
  </outline>
</glyph>
<glyph name="E.cur.ini" format="2">
  <advance width="690"/>
  <anchor x="316" y="0" name="bottom"/>
  <anchor x="609" y="0" name="cnct"/>
  <anchor x="416" y="0" name="ogonek"/>
  <anchor x="533" y="838" name="top"/>
  <outline>
    <contour>
      <point x="298" y="-17" type="curve" smooth="yes"/>
      <point x="318" y="-17"/>
      <point x="321" y="16"/>
      <point x="301" y="16" type="curve" smooth="yes"/>
      <point x="181" y="16"/>
      <point x="128" y="95"/>
      <point x="128" y="188" type="curve" smooth="yes"/>
      <point x="128" y="312"/>
      <point x="239" y="441"/>
      <point x="426" y="441" type="curve" smooth="yes"/>
      <point x="539" y="441" type="line" smooth="yes"/>
      <point x="548" y="441"/>
      <point x="555" y="448"/>
      <point x="558" y="458" type="curve" smooth="yes"/>
      <point x="560" y="470"/>
      <point x="556" y="476"/>
      <point x="545" y="476" type="curve" smooth="yes"/>
      <point x="433" y="476" type="line" smooth="yes"/>
      <point x="336" y="476"/>
      <point x="279" y="529"/>
      <point x="279" y="619" type="curve" smooth="yes"/>
      <point x="279" y="746"/>
      <point x="390" y="853"/>
      <point x="524" y="853" type="curve" smooth="yes"/>
      <point x="604" y="853"/>
      <point x="676" y="819"/>
      <point x="711" y="768" type="curve" smooth="yes"/>
      <point x="718" y="758"/>
      <point x="726" y="755"/>
      <point x="738" y="763" type="curve" smooth="yes"/>
      <point x="748" y="769"/>
      <point x="749" y="779"/>
      <point x="741" y="791" type="curve" smooth="yes"/>
      <point x="703" y="851"/>
      <point x="619" y="890"/>
      <point x="530" y="890" type="curve" smooth="yes"/>
      <point x="369" y="890"/>
      <point x="238" y="768"/>
      <point x="238" y="616" type="curve" smooth="yes"/>
      <point x="238" y="543"/>
      <point x="280" y="484"/>
      <point x="349" y="461" type="curve"/>
      <point x="187" y="437"/>
      <point x="86" y="308"/>
      <point x="86" y="183" type="curve" smooth="yes"/>
      <point x="86" y="75"/>
      <point x="150" y="-17"/>
    </contour>
  </outline>
</glyph>
<glyph name="F.dec" format="2">
  <advance width="928"/>
  <outline>
    <contour>
      <point x="370" y="-17" type="curve" smooth="yes"/>
      <point x="550" y="-17"/>
      <point x="626" y="169"/>
      <point x="711" y="410" type="curve" smooth="yes"/>
      <point x="719" y="431" type="line"/>
      <point x="864" y="431" type="line" smooth="yes"/>
      <point x="871" y="431"/>
      <point x="876" y="436"/>
      <point x="879" y="449" type="curve" smooth="yes"/>
      <point x="881" y="460"/>
      <point x="878" y="466"/>
      <point x="870" y="466" type="curve" smooth="yes"/>
      <point x="730" y="466" type="line"/>
      <point x="836" y="803" type="line"/>
      <point x="844" y="801"/>
      <point x="850" y="801"/>
      <point x="858" y="801" type="curve" smooth="yes"/>
      <point x="935" y="801"/>
      <point x="998" y="818"/>
      <point x="1068" y="846" type="curve" smooth="yes"/>
      <point x="1078" y="850"/>
      <point x="1081" y="858"/>
      <point x="1078" y="869" type="curve" smooth="yes"/>
      <point x="1073" y="883"/>
      <point x="1064" y="884"/>
      <point x="1055" y="880" type="curve" smooth="yes"/>
      <point x="991" y="853"/>
      <point x="921" y="835"/>
      <point x="863" y="835" type="curve" smooth="yes"/>
      <point x="768" y="835"/>
      <point x="725" y="890"/>
      <point x="609" y="890" type="curve" smooth="yes"/>
      <point x="488" y="890"/>
      <point x="384" y="841"/>
      <point x="281" y="748" type="curve" smooth="yes"/>
      <point x="270" y="738"/>
      <point x="273" y="733"/>
      <point x="281" y="724" type="curve" smooth="yes"/>
      <point x="291" y="713"/>
      <point x="300" y="715"/>
      <point x="309" y="723" type="curve" smooth="yes"/>
      <point x="394" y="805"/>
      <point x="501" y="856"/>
      <point x="610" y="856" type="curve" smooth="yes"/>
      <point x="689" y="856"/>
      <point x="728" y="820"/>
      <point x="801" y="806" type="curve"/>
      <point x="694" y="466" type="line"/>
      <point x="526" y="466" type="line" smooth="yes"/>
      <point x="519" y="466"/>
      <point x="515" y="461"/>
      <point x="513" y="450" type="curve" smooth="yes"/>
      <point x="510" y="439"/>
      <point x="513" y="431"/>
      <point x="520" y="431" type="curve" smooth="yes"/>
      <point x="681" y="431" type="line"/>
      <point x="675" y="413" type="line" smooth="yes"/>
      <point x="604" y="199"/>
      <point x="526" y="19"/>
      <point x="373" y="19" type="curve" smooth="yes"/>
      <point x="260" y="19"/>
      <point x="170" y="109"/>
      <point x="118" y="261" type="curve"/>
      <point x="198" y="236"/>
      <point x="286" y="226"/>
      <point x="376" y="226" type="curve" smooth="yes"/>
      <point x="388" y="226"/>
      <point x="393" y="230"/>
      <point x="396" y="243" type="curve" smooth="yes"/>
      <point x="400" y="255"/>
      <point x="394" y="261"/>
      <point x="384" y="261" type="curve" smooth="yes"/>
      <point x="290" y="261"/>
      <point x="195" y="271"/>
      <point x="126" y="296" type="curve" smooth="yes"/>
      <point x="120" y="299"/>
      <point x="108" y="304"/>
      <point x="93" y="295" type="curve" smooth="yes"/>
      <point x="78" y="286"/>
      <point x="74" y="273"/>
      <point x="76" y="264" type="curve" smooth="yes"/>
      <point x="129" y="98"/>
      <point x="236" y="-17"/>
    </contour>
  </outline>
</glyph>
<glyph name="G.cur" format="2">
  <advance width="863"/>
  <anchor x="329" y="0" name="bottom"/>
  <anchor x="619" y="838" name="top"/>
  <outline>
    <contour>
      <point x="434" y="-394" type="curve" smooth="yes"/>
      <point x="519" y="-394"/>
      <point x="591" y="-315"/>
      <point x="638" y="-171" type="curve" smooth="yes"/>
      <point x="826" y="409" type="line" smooth="yes"/>
      <point x="830" y="419"/>
      <point x="824" y="424"/>
      <point x="809" y="424" type="curve" smooth="yes"/>
      <point x="794" y="424"/>
      <point x="790" y="420"/>
      <point x="786" y="408" type="curve"/>
      <point x="649" y="109"/>
      <point x="475" y="50"/>
      <point x="389" y="50" type="curve" smooth="yes"/>
      <point x="256" y="50"/>
      <point x="174" y="146"/>
      <point x="174" y="301" type="curve" smooth="yes"/>
      <point x="174" y="593"/>
      <point x="391" y="853"/>
      <point x="635" y="853" type="curve" smooth="yes"/>
      <point x="741" y="853"/>
      <point x="801" y="811"/>
      <point x="860" y="769" type="curve" smooth="yes"/>
      <point x="869" y="763"/>
      <point x="875" y="759"/>
      <point x="886" y="769" type="curve" smooth="yes"/>
      <point x="898" y="780"/>
      <point x="896" y="788"/>
      <point x="888" y="795" type="curve" smooth="yes"/>
      <point x="833" y="839"/>
      <point x="753" y="890"/>
      <point x="638" y="890" type="curve" smooth="yes"/>
      <point x="368" y="890"/>
      <point x="133" y="615"/>
      <point x="133" y="300" type="curve" smooth="yes"/>
      <point x="133" y="124"/>
      <point x="230" y="13"/>
      <point x="386" y="13" type="curve" smooth="yes"/>
      <point x="515" y="13"/>
      <point x="640" y="103"/>
      <point x="739" y="261" type="curve"/>
      <point x="604" y="-160" type="line" smooth="yes"/>
      <point x="564" y="-285"/>
      <point x="503" y="-357"/>
      <point x="438" y="-357" type="curve" smooth="yes"/>
      <point x="400" y="-357"/>
      <point x="383" y="-340"/>
      <point x="383" y="-302" type="curve" smooth="yes"/>
      <point x="383" y="-246"/>
      <point x="418" y="-197"/>
      <point x="536" y="-90" type="curve" smooth="yes"/>
      <point x="659" y="14"/>
      <point x="799" y="120"/>
      <point x="906" y="191" type="curve" smooth="yes"/>
      <point x="915" y="198"/>
      <point x="919" y="203"/>
      <point x="913" y="214" type="curve" smooth="yes"/>
      <point x="904" y="228"/>
      <point x="896" y="225"/>
      <point x="888" y="219" type="curve" smooth="yes"/>
      <point x="803" y="164"/>
      <point x="670" y="65"/>
      <point x="538" y="-44" type="curve" smooth="yes"/>
      <point x="393" y="-171"/>
      <point x="343" y="-236"/>
      <point x="343" y="-306" type="curve" smooth="yes"/>
      <point x="343" y="-360"/>
      <point x="378" y="-394"/>
    </contour>
  </outline>
</glyph>
<glyph name="G.cur_locl" format="2">
  <advance width="901"/>
  <anchor x="244" y="0" name="bottom"/>
  <anchor x="513" y="838" name="top"/>
  <outline>
    <contour>
      <point x="354" y="-394" type="curve" smooth="yes"/>
      <point x="440" y="-394"/>
      <point x="513" y="-315"/>
      <point x="560" y="-171" type="curve" smooth="yes"/>
      <point x="765" y="460" type="line" smooth="yes"/>
      <point x="769" y="470"/>
      <point x="763" y="475"/>
      <point x="748" y="475" type="curve" smooth="yes"/>
      <point x="733" y="475"/>
      <point x="729" y="471"/>
      <point x="725" y="459" type="curve"/>
      <point x="596" y="221"/>
      <point x="400" y="49"/>
      <point x="258" y="49" type="curve" smooth="yes"/>
      <point x="166" y="49"/>
      <point x="118" y="106"/>
      <point x="118" y="223" type="curve" smooth="yes"/>
      <point x="118" y="443"/>
      <point x="403" y="853"/>
      <point x="621" y="853" type="curve" smooth="yes"/>
      <point x="669" y="853"/>
      <point x="696" y="833"/>
      <point x="696" y="789" type="curve" smooth="yes"/>
      <point x="696" y="674"/>
      <point x="444" y="434"/>
      <point x="6" y="124" type="curve"/>
      <point x="-2" y="119"/>
      <point x="-6" y="111"/>
      <point x="1" y="100" type="curve" smooth="yes"/>
      <point x="9" y="89"/>
      <point x="16" y="88"/>
      <point x="25" y="94" type="curve" smooth="yes"/>
      <point x="479" y="416"/>
      <point x="738" y="658"/>
      <point x="738" y="791" type="curve" smooth="yes"/>
      <point x="738" y="854"/>
      <point x="698" y="890"/>
      <point x="628" y="890" type="curve" smooth="yes"/>
      <point x="374" y="890"/>
      <point x="76" y="461"/>
      <point x="76" y="220" type="curve" smooth="yes"/>
      <point x="76" y="78"/>
      <point x="144" y="11"/>
      <point x="249" y="11" type="curve" smooth="yes"/>
      <point x="388" y="11"/>
      <point x="570" y="145"/>
      <point x="683" y="329" type="curve"/>
      <point x="524" y="-160" type="line" smooth="yes"/>
      <point x="483" y="-285"/>
      <point x="423" y="-357"/>
      <point x="358" y="-357" type="curve" smooth="yes"/>
      <point x="320" y="-357"/>
      <point x="303" y="-340"/>
      <point x="303" y="-302" type="curve" smooth="yes"/>
      <point x="303" y="-189"/>
      <point x="479" y="-51"/>
      <point x="863" y="155" type="curve" smooth="yes"/>
      <point x="871" y="160"/>
      <point x="876" y="165"/>
      <point x="870" y="178" type="curve" smooth="yes"/>
      <point x="863" y="191"/>
      <point x="855" y="190"/>
      <point x="846" y="185" type="curve" smooth="yes"/>
      <point x="451" y="-27"/>
      <point x="263" y="-171"/>
      <point x="263" y="-305" type="curve" smooth="yes"/>
      <point x="263" y="-359"/>
      <point x="298" y="-394"/>
    </contour>
  </outline>
</glyph>
<glyph name="G.cur_locl.ini" format="2">
  <advance width="784"/>
  <anchor x="244" y="0" name="bottom"/>
  <anchor x="703" y="0" name="cnct"/>
  <anchor x="513" y="838" name="top"/>
  <outline>
    <contour>
      <point x="343" y="-394" type="curve" smooth="yes"/>
      <point x="433" y="-394"/>
      <point x="511" y="-316"/>
      <point x="559" y="-171" type="curve" smooth="yes"/>
      <point x="765" y="460" type="line" smooth="yes"/>
      <point x="769" y="470"/>
      <point x="763" y="475"/>
      <point x="748" y="475" type="curve" smooth="yes"/>
      <point x="733" y="475"/>
      <point x="729" y="471"/>
      <point x="725" y="459" type="curve"/>
      <point x="596" y="221"/>
      <point x="400" y="49"/>
      <point x="258" y="49" type="curve" smooth="yes"/>
      <point x="166" y="49"/>
      <point x="118" y="106"/>
      <point x="118" y="223" type="curve" smooth="yes"/>
      <point x="118" y="443"/>
      <point x="403" y="853"/>
      <point x="621" y="853" type="curve" smooth="yes"/>
      <point x="669" y="853"/>
      <point x="696" y="833"/>
      <point x="696" y="789" type="curve" smooth="yes"/>
      <point x="696" y="674"/>
      <point x="444" y="434"/>
      <point x="6" y="124" type="curve"/>
      <point x="-2" y="119"/>
      <point x="-6" y="111"/>
      <point x="1" y="100" type="curve" smooth="yes"/>
      <point x="9" y="89"/>
      <point x="16" y="88"/>
      <point x="25" y="94" type="curve" smooth="yes"/>
      <point x="479" y="416"/>
      <point x="738" y="658"/>
      <point x="738" y="791" type="curve" smooth="yes"/>
      <point x="738" y="854"/>
      <point x="698" y="890"/>
      <point x="628" y="890" type="curve" smooth="yes"/>
      <point x="374" y="890"/>
      <point x="76" y="461"/>
      <point x="76" y="220" type="curve" smooth="yes"/>
      <point x="76" y="78"/>
      <point x="144" y="11"/>
      <point x="249" y="11" type="curve" smooth="yes"/>
      <point x="388" y="11"/>
      <point x="570" y="145"/>
      <point x="683" y="329" type="curve"/>
      <point x="525" y="-160" type="line" smooth="yes"/>
      <point x="484" y="-289"/>
      <point x="415" y="-357"/>
      <point x="346" y="-357" type="curve" smooth="yes"/>
      <point x="300" y="-357"/>
      <point x="279" y="-340"/>
      <point x="279" y="-302" type="curve" smooth="yes"/>
      <point x="279" y="-277"/>
      <point x="239" y="-281"/>
      <point x="239" y="-306" type="curve" smooth="yes"/>
      <point x="239" y="-360"/>
      <point x="279" y="-394"/>
    </contour>
  </outline>
</glyph>
<glyph name="G.cur_ro" format="2">
  <advance width="745"/>
  <anchor x="292" y="0" name="bottom"/>
  <anchor x="556" y="875" name="top"/>
  <outline>
    <contour>
      <point x="278" y="-20" type="curve" smooth="yes"/>
      <point x="458" y="-20"/>
      <point x="599" y="163"/>
      <point x="715" y="522" type="curve" smooth="yes"/>
      <point x="718" y="532"/>
      <point x="712" y="537"/>
      <point x="699" y="537" type="curve" smooth="yes"/>
      <point x="690" y="537"/>
      <point x="687" y="535"/>
      <point x="675" y="526" type="curve" smooth="yes"/>
      <point x="573" y="450"/>
      <point x="459" y="392"/>
      <point x="355" y="392" type="curve" smooth="yes"/>
      <point x="285" y="392"/>
      <point x="254" y="425"/>
      <point x="254" y="491" type="curve" smooth="yes"/>
      <point x="254" y="641"/>
      <point x="465" y="856"/>
      <point x="613" y="856" type="curve" smooth="yes"/>
      <point x="647" y="856"/>
      <point x="663" y="840"/>
      <point x="663" y="809" type="curve" smooth="yes"/>
      <point x="663" y="694"/>
      <point x="448" y="544"/>
      <point x="298" y="544" type="curve" smooth="yes"/>
      <point x="199" y="544"/>
      <point x="198" y="660"/>
      <point x="260" y="854" type="curve" smooth="yes"/>
      <point x="264" y="867"/>
      <point x="256" y="871"/>
      <point x="247" y="871" type="curve" smooth="yes"/>
      <point x="237" y="871"/>
      <point x="227" y="867"/>
      <point x="223" y="854" type="curve" smooth="yes"/>
      <point x="161" y="663"/>
      <point x="163" y="508"/>
      <point x="286" y="508" type="curve" smooth="yes"/>
      <point x="466" y="508"/>
      <point x="703" y="676"/>
      <point x="703" y="814" type="curve" smooth="yes"/>
      <point x="703" y="859"/>
      <point x="669" y="893"/>
      <point x="617" y="893" type="curve" smooth="yes"/>
      <point x="443" y="893"/>
      <point x="214" y="661"/>
      <point x="214" y="487" type="curve" smooth="yes"/>
      <point x="214" y="400"/>
      <point x="269" y="355"/>
      <point x="349" y="355" type="curve" smooth="yes"/>
      <point x="441" y="355"/>
      <point x="556" y="403"/>
      <point x="663" y="481" type="curve"/>
      <point x="560" y="182"/>
      <point x="433" y="17"/>
      <point x="285" y="17" type="curve" smooth="yes"/>
      <point x="233" y="17"/>
      <point x="185" y="46"/>
      <point x="168" y="127" type="curve" smooth="yes"/>
      <point x="166" y="138"/>
      <point x="157" y="141"/>
      <point x="143" y="137" type="curve" smooth="yes"/>
      <point x="132" y="134"/>
      <point x="128" y="127"/>
      <point x="130" y="117" type="curve" smooth="yes"/>
      <point x="148" y="21"/>
      <point x="214" y="-20"/>
    </contour>
  </outline>
</glyph>
<glyph name="G.dec" format="2">
  <advance width="1030"/>
  <guideline x="611" y="6" angle="72"/>
  <guideline x="884" y="628" angle="0"/>
  <anchor x="496" y="0" name="bottom"/>
  <anchor x="730" y="838" name="top"/>
  <outline>
    <contour>
      <point x="29" y="-12" type="curve" smooth="yes"/>
      <point x="321" y="-12"/>
      <point x="606" y="563"/>
      <point x="606" y="794" type="curve" smooth="yes"/>
      <point x="606" y="849"/>
      <point x="586" y="890"/>
      <point x="528" y="890" type="curve" smooth="yes"/>
      <point x="449" y="890"/>
      <point x="366" y="765"/>
      <point x="366" y="661" type="curve" smooth="yes"/>
      <point x="366" y="570"/>
      <point x="435" y="529"/>
      <point x="516" y="529" type="curve" smooth="yes"/>
      <point x="664" y="529"/>
      <point x="836" y="609"/>
      <point x="1004" y="755" type="curve"/>
      <point x="988" y="753" type="line"/>
      <point x="973" y="708"/>
      <point x="958" y="663"/>
      <point x="943" y="618" type="curve" smooth="yes"/>
      <point x="796" y="193"/>
      <point x="735" y="25"/>
      <point x="561" y="25" type="curve" smooth="yes"/>
      <point x="393" y="25"/>
      <point x="273" y="189"/>
      <point x="170" y="404" type="curve"/>
      <point x="163" y="395" type="line"/>
      <point x="439" y="265"/>
      <point x="698" y="226"/>
      <point x="979" y="226" type="curve" smooth="yes"/>
      <point x="988" y="226"/>
      <point x="994" y="230"/>
      <point x="998" y="244" type="curve" smooth="yes"/>
      <point x="1001" y="256"/>
      <point x="995" y="261"/>
      <point x="988" y="261" type="curve" smooth="yes"/>
      <point x="709" y="261"/>
      <point x="446" y="300"/>
      <point x="188" y="421" type="curve" smooth="yes"/>
      <point x="176" y="426"/>
      <point x="164" y="431"/>
      <point x="149" y="418" type="curve" smooth="yes"/>
      <point x="133" y="403"/>
      <point x="134" y="393"/>
      <point x="139" y="381" type="curve" smooth="yes"/>
      <point x="245" y="170"/>
      <point x="370" y="-12"/>
      <point x="559" y="-12" type="curve" smooth="yes"/>
      <point x="754" y="-12"/>
      <point x="840" y="173"/>
      <point x="980" y="611" type="curve" smooth="yes"/>
      <point x="995" y="659"/>
      <point x="1010" y="705"/>
      <point x="1025" y="753" type="curve" smooth="yes"/>
      <point x="1029" y="765"/>
      <point x="1029" y="776"/>
      <point x="1009" y="784" type="curve" smooth="yes"/>
      <point x="990" y="791"/>
      <point x="980" y="781"/>
      <point x="971" y="773" type="curve" smooth="yes"/>
      <point x="831" y="648"/>
      <point x="650" y="564"/>
      <point x="521" y="564" type="curve" smooth="yes"/>
      <point x="456" y="564"/>
      <point x="408" y="588"/>
      <point x="408" y="663" type="curve" smooth="yes"/>
      <point x="408" y="748"/>
      <point x="469" y="855"/>
      <point x="525" y="855" type="curve" smooth="yes"/>
      <point x="555" y="855"/>
      <point x="565" y="833"/>
      <point x="565" y="793" type="curve" smooth="yes"/>
      <point x="565" y="560"/>
      <point x="284" y="25"/>
      <point x="34" y="25" type="curve" smooth="yes"/>
      <point x="23" y="25"/>
      <point x="18" y="21"/>
      <point x="14" y="8" type="curve" smooth="yes"/>
      <point x="10" y="-6"/>
      <point x="15" y="-12"/>
    </contour>
  </outline>
</glyph>
<glyph name="G_locl.au" format="2">
  <advance width="875"/>
  <anchor x="418" y="0" name="bottom"/>
  <anchor x="621" y="838" name="top"/>
  <outline>
    <contour>
      <point x="354" y="-17" type="curve" smooth="yes"/>
      <point x="505" y="-17"/>
      <point x="643" y="126"/>
      <point x="746" y="306" type="curve"/>
      <point x="650" y="1" type="line" smooth="yes"/>
      <point x="646" y="-9"/>
      <point x="653" y="-14"/>
      <point x="665" y="-14" type="curve" smooth="yes"/>
      <point x="681" y="-14"/>
      <point x="685" y="-9"/>
      <point x="689" y="1" type="curve" smooth="yes"/>
      <point x="838" y="471" type="line" smooth="yes"/>
      <point x="840" y="480"/>
      <point x="835" y="486"/>
      <point x="820" y="486" type="curve" smooth="yes"/>
      <point x="805" y="486"/>
      <point x="801" y="481"/>
      <point x="798" y="470" type="curve"/>
      <point x="674" y="201"/>
      <point x="518" y="20"/>
      <point x="356" y="20" type="curve" smooth="yes"/>
      <point x="241" y="20"/>
      <point x="174" y="124"/>
      <point x="174" y="286" type="curve" smooth="yes"/>
      <point x="174" y="585"/>
      <point x="389" y="853"/>
      <point x="624" y="853" type="curve" smooth="yes"/>
      <point x="724" y="853"/>
      <point x="786" y="811"/>
      <point x="845" y="769" type="curve" smooth="yes"/>
      <point x="854" y="763"/>
      <point x="860" y="759"/>
      <point x="871" y="769" type="curve" smooth="yes"/>
      <point x="883" y="780"/>
      <point x="881" y="788"/>
      <point x="873" y="795" type="curve" smooth="yes"/>
      <point x="818" y="839"/>
      <point x="735" y="890"/>
      <point x="626" y="890" type="curve" smooth="yes"/>
      <point x="365" y="890"/>
      <point x="133" y="608"/>
      <point x="133" y="285" type="curve" smooth="yes"/>
      <point x="133" y="101"/>
      <point x="215" y="-17"/>
    </contour>
  </outline>
</glyph>
<glyph name="G_locl" format="2">
  <advance width="876"/>
  <anchor x="370" y="0" name="bottom"/>
  <anchor x="620" y="838" name="top"/>
  <outline>
    <contour>
      <point x="375" y="-19" type="curve" smooth="yes"/>
      <point x="501" y="-19"/>
      <point x="625" y="70"/>
      <point x="725" y="228" type="curve"/>
      <point x="652" y="1" type="line" smooth="yes"/>
      <point x="649" y="-10"/>
      <point x="655" y="-14"/>
      <point x="666" y="-14" type="curve" smooth="yes"/>
      <point x="682" y="-14"/>
      <point x="686" y="-10"/>
      <point x="690" y="1" type="curve" smooth="yes"/>
      <point x="826" y="430" type="line" smooth="yes"/>
      <point x="830" y="441"/>
      <point x="824" y="445"/>
      <point x="811" y="445" type="curve" smooth="yes"/>
      <point x="554" y="445" type="line" smooth="yes"/>
      <point x="541" y="445"/>
      <point x="536" y="441"/>
      <point x="532" y="430" type="curve" smooth="yes"/>
      <point x="527" y="418"/>
      <point x="529" y="410"/>
      <point x="542" y="410" type="curve" smooth="yes"/>
      <point x="782" y="410" type="line"/>
      <point x="774" y="384" type="line"/>
      <point x="676" y="164"/>
      <point x="526" y="19"/>
      <point x="377" y="19" type="curve" smooth="yes"/>
      <point x="251" y="19"/>
      <point x="171" y="113"/>
      <point x="171" y="280" type="curve" smooth="yes"/>
      <point x="171" y="530"/>
      <point x="346" y="853"/>
      <point x="632" y="853" type="curve" smooth="yes"/>
      <point x="715" y="853"/>
      <point x="792" y="823"/>
      <point x="836" y="778" type="curve" smooth="yes"/>
      <point x="850" y="764"/>
      <point x="852" y="759"/>
      <point x="864" y="764" type="curve" smooth="yes"/>
      <point x="879" y="771"/>
      <point x="885" y="780"/>
      <point x="876" y="791" type="curve" smooth="yes"/>
      <point x="830" y="850"/>
      <point x="737" y="890"/>
      <point x="635" y="890" type="curve" smooth="yes"/>
      <point x="317" y="890"/>
      <point x="130" y="546"/>
      <point x="130" y="280" type="curve" smooth="yes"/>
      <point x="130" y="89"/>
      <point x="225" y="-19"/>
    </contour>
  </outline>
</glyph>
<glyph name="I.cur.ini" format="2">
  <advance width="985"/>
  <anchor x="586" y="0" name="bottom"/>
  <anchor x="904" y="0" name="cnct"/>
  <anchor x="445" y="-6" name="ogonek"/>
  <anchor x="726" y="838" name="top"/>
  <outline>
    <contour>
      <point x="365" y="-17" type="curve" smooth="yes"/>
      <point x="593" y="-17"/>
      <point x="906" y="288"/>
      <point x="906" y="661" type="curve" smooth="yes"/>
      <point x="906" y="809"/>
      <point x="834" y="891"/>
      <point x="742" y="891" type="curve" smooth="yes"/>
      <point x="589" y="891"/>
      <point x="538" y="712"/>
      <point x="538" y="528" type="curve" smooth="yes"/>
      <point x="538" y="235"/>
      <point x="644" y="-17"/>
      <point x="800" y="-17" type="curve" smooth="yes"/>
      <point x="819" y="-17"/>
      <point x="833" y="18"/>
      <point x="814" y="18" type="curve" smooth="yes"/>
      <point x="665" y="18"/>
      <point x="579" y="260"/>
      <point x="579" y="528" type="curve" smooth="yes"/>
      <point x="579" y="694"/>
      <point x="619" y="853"/>
      <point x="739" y="853" type="curve" smooth="yes"/>
      <point x="808" y="853"/>
      <point x="865" y="785"/>
      <point x="865" y="659" type="curve" smooth="yes"/>
      <point x="865" y="308"/>
      <point x="566" y="20"/>
      <point x="368" y="20" type="curve" smooth="yes"/>
      <point x="256" y="20"/>
      <point x="176" y="89"/>
      <point x="130" y="261" type="curve"/>
      <point x="210" y="236"/>
      <point x="294" y="226"/>
      <point x="378" y="226" type="curve" smooth="yes"/>
      <point x="389" y="226"/>
      <point x="395" y="231"/>
      <point x="398" y="244" type="curve" smooth="yes"/>
      <point x="400" y="256"/>
      <point x="395" y="261"/>
      <point x="385" y="261" type="curve" smooth="yes"/>
      <point x="299" y="261"/>
      <point x="209" y="271"/>
      <point x="140" y="296" type="curve"/>
      <point x="134" y="299"/>
      <point x="121" y="304"/>
      <point x="106" y="295" type="curve" smooth="yes"/>
      <point x="91" y="286"/>
      <point x="88" y="273"/>
      <point x="90" y="264" type="curve" smooth="yes"/>
      <point x="138" y="70"/>
      <point x="224" y="-17"/>
    </contour>
  </outline>
</glyph>
<glyph name="I.dec" format="2">
  <advance width="546"/>
  <anchor x="199" y="0" name="bottom"/>
  <anchor x="451" y="838" name="top"/>
  <outline>
    <contour>
      <point x="205" y="-17" type="curve" smooth="yes"/>
      <point x="284" y="-17"/>
      <point x="338" y="36"/>
      <point x="375" y="153" type="curve" smooth="yes"/>
      <point x="606" y="868" type="line"/>
      <point x="610" y="878"/>
      <point x="605" y="888"/>
      <point x="593" y="888" type="curve" smooth="yes"/>
      <point x="583" y="888"/>
      <point x="575" y="885"/>
      <point x="565" y="876" type="curve" smooth="yes"/>
      <point x="549" y="861"/>
      <point x="523" y="846"/>
      <point x="499" y="846" type="curve" smooth="yes"/>
      <point x="460" y="846"/>
      <point x="461" y="880"/>
      <point x="399" y="880" type="curve" smooth="yes"/>
      <point x="350" y="880"/>
      <point x="305" y="853"/>
      <point x="245" y="794" type="curve" smooth="yes"/>
      <point x="236" y="786"/>
      <point x="235" y="780"/>
      <point x="244" y="770" type="curve" smooth="yes"/>
      <point x="254" y="759"/>
      <point x="261" y="763"/>
      <point x="269" y="769" type="curve" smooth="yes"/>
      <point x="324" y="821"/>
      <point x="361" y="846"/>
      <point x="401" y="846" type="curve" smooth="yes"/>
      <point x="436" y="846"/>
      <point x="443" y="813"/>
      <point x="493" y="813" type="curve" smooth="yes"/>
      <point x="516" y="813"/>
      <point x="539" y="821"/>
      <point x="559" y="836" type="curve"/>
      <point x="339" y="166" type="line" smooth="yes"/>
      <point x="304" y="59"/>
      <point x="266" y="18"/>
      <point x="206" y="18" type="curve" smooth="yes"/>
      <point x="154" y="18"/>
      <point x="115" y="51"/>
      <point x="76" y="135" type="curve" smooth="yes"/>
      <point x="71" y="146"/>
      <point x="68" y="151"/>
      <point x="54" y="146" type="curve" smooth="yes"/>
      <point x="44" y="143"/>
      <point x="39" y="136"/>
      <point x="44" y="124" type="curve" smooth="yes"/>
      <point x="80" y="34"/>
      <point x="138" y="-17"/>
    </contour>
  </outline>
</glyph>
<glyph name="IJ.cur" format="2">
  <advance width="750"/>
  <guideline x="458" y="697" angle="90"/>
  <anchor x="141" y="0" name="bottom"/>
  <anchor x="559" y="838" name="top"/>
  <outline>
    <contour>
      <point x="279" y="-394" type="curve" smooth="yes"/>
      <point x="378" y="-394"/>
      <point x="429" y="-275"/>
      <point x="463" y="-171" type="curve" smooth="yes"/>
      <point x="800" y="871" type="line" smooth="yes"/>
      <point x="804" y="884"/>
      <point x="799" y="888"/>
      <point x="786" y="888" type="curve" smooth="yes"/>
      <point x="774" y="888"/>
      <point x="766" y="884"/>
      <point x="763" y="871" type="curve" smooth="yes"/>
      <point x="646" y="513" type="line"/>
      <point x="510" y="174"/>
      <point x="336" y="88"/>
      <point x="259" y="88" type="curve" smooth="yes"/>
      <point x="159" y="88"/>
      <point x="145" y="153"/>
      <point x="176" y="248" type="curve" smooth="yes"/>
      <point x="381" y="871" type="line" smooth="yes"/>
      <point x="385" y="884"/>
      <point x="380" y="888"/>
      <point x="368" y="888" type="curve" smooth="yes"/>
      <point x="355" y="888"/>
      <point x="348" y="884"/>
      <point x="344" y="871" type="curve" smooth="yes"/>
      <point x="138" y="245" type="line" smooth="yes"/>
      <point x="104" y="141"/>
      <point x="136" y="51"/>
      <point x="251" y="51" type="curve" smooth="yes"/>
      <point x="331" y="51"/>
      <point x="470" y="118"/>
      <point x="588" y="330" type="curve"/>
      <point x="429" y="-160" type="line" smooth="yes"/>
      <point x="395" y="-264"/>
      <point x="353" y="-357"/>
      <point x="284" y="-357" type="curve" smooth="yes"/>
      <point x="250" y="-357"/>
      <point x="235" y="-341"/>
      <point x="235" y="-304" type="curve" smooth="yes"/>
      <point x="235" y="-224"/>
      <point x="321" y="-156"/>
      <point x="389" y="-96" type="curve" smooth="yes"/>
      <point x="525" y="20"/>
      <point x="655" y="123"/>
      <point x="734" y="175" type="curve" smooth="yes"/>
      <point x="743" y="181"/>
      <point x="746" y="186"/>
      <point x="740" y="198" type="curve" smooth="yes"/>
      <point x="731" y="211"/>
      <point x="724" y="209"/>
      <point x="715" y="203" type="curve" smooth="yes"/>
      <point x="663" y="169"/>
      <point x="539" y="74"/>
      <point x="390" y="-50" type="curve" smooth="yes"/>
      <point x="319" y="-112"/>
      <point x="195" y="-206"/>
      <point x="195" y="-309" type="curve" smooth="yes"/>
      <point x="195" y="-364"/>
      <point x="229" y="-394"/>
    </contour>
  </outline>
</glyph>
<glyph name="I_locl" format="2">
  <advance width="375"/>
  <anchor x="106" y="0" name="bottom"/>
  <anchor x="143" y="13" name="ogonek"/>
  <anchor x="371" y="840" name="top"/>
  <outline>
    <contour>
      <point x="-34" y="0" type="curve" smooth="yes"/>
      <point x="256" y="0" type="line" smooth="yes"/>
      <point x="269" y="0"/>
      <point x="274" y="4"/>
      <point x="278" y="16" type="curve" smooth="yes"/>
      <point x="281" y="29"/>
      <point x="280" y="35"/>
      <point x="266" y="35" type="curve" smooth="yes"/>
      <point x="136" y="35" type="line"/>
      <point x="399" y="840" type="line"/>
      <point x="520" y="840" type="line" smooth="yes"/>
      <point x="533" y="840"/>
      <point x="538" y="844"/>
      <point x="541" y="858" type="curve" smooth="yes"/>
      <point x="544" y="869"/>
      <point x="544" y="875"/>
      <point x="530" y="875" type="curve" smooth="yes"/>
      <point x="240" y="875" type="line" smooth="yes"/>
      <point x="228" y="875"/>
      <point x="223" y="871"/>
      <point x="219" y="859" type="curve" smooth="yes"/>
      <point x="215" y="846"/>
      <point x="216" y="840"/>
      <point x="230" y="840" type="curve" smooth="yes"/>
      <point x="360" y="840" type="line"/>
      <point x="98" y="35" type="line"/>
      <point x="-24" y="35" type="line" smooth="yes"/>
      <point x="-36" y="35"/>
      <point x="-41" y="31"/>
      <point x="-45" y="18" type="curve" smooth="yes"/>
      <point x="-47" y="6"/>
      <point x="-47" y="0"/>
    </contour>
  </outline>
</glyph>
<glyph name="J.cur.ini" format="2">
  <advance width="656"/>
  <anchor x="189" y="-406" name="bottom"/>
  <anchor x="575" y="0" name="cnct"/>
  <anchor x="528" y="838" name="top"/>
  <outline>
    <contour>
      <point x="203" y="-394" type="curve" smooth="yes"/>
      <point x="288" y="-394"/>
      <point x="359" y="-315"/>
      <point x="406" y="-171" type="curve" smooth="yes"/>
      <point x="674" y="648" type="line" smooth="yes"/>
      <point x="723" y="799"/>
      <point x="679" y="890"/>
      <point x="551" y="890" type="curve" smooth="yes"/>
      <point x="366" y="890"/>
      <point x="211" y="694"/>
      <point x="211" y="494" type="curve" smooth="yes"/>
      <point x="211" y="373"/>
      <point x="240" y="243"/>
      <point x="314" y="136" type="curve" smooth="yes"/>
      <point x="321" y="125"/>
      <point x="326" y="121"/>
      <point x="343" y="133" type="curve" smooth="yes"/>
      <point x="354" y="140"/>
      <point x="355" y="149"/>
      <point x="348" y="160" type="curve" smooth="yes"/>
      <point x="281" y="250"/>
      <point x="253" y="385"/>
      <point x="253" y="496" type="curve" smooth="yes"/>
      <point x="253" y="681"/>
      <point x="391" y="853"/>
      <point x="548" y="853" type="curve" smooth="yes"/>
      <point x="651" y="853"/>
      <point x="679" y="780"/>
      <point x="639" y="658" type="curve" smooth="yes"/>
      <point x="373" y="-160" type="line" smooth="yes"/>
      <point x="331" y="-285"/>
      <point x="271" y="-357"/>
      <point x="206" y="-357" type="curve" smooth="yes"/>
      <point x="169" y="-357"/>
      <point x="151" y="-340"/>
      <point x="151" y="-302" type="curve" smooth="yes"/>
      <point x="151" y="-277"/>
      <point x="111" y="-280"/>
      <point x="111" y="-305" type="curve" smooth="yes"/>
      <point x="111" y="-359"/>
      <point x="146" y="-394"/>
    </contour>
  </outline>
</glyph>
<glyph name="J.dec" format="2">
  <advance width="506"/>
  <anchor x="-1" y="-406" name="bottom"/>
  <anchor x="450" y="838" name="top"/>
  <outline>
    <contour>
      <point x="23" y="-394" type="curve" smooth="yes"/>
      <point x="108" y="-394"/>
      <point x="179" y="-316"/>
      <point x="226" y="-171" type="curve" smooth="yes"/>
      <point x="564" y="868" type="line"/>
      <point x="568" y="878"/>
      <point x="563" y="888"/>
      <point x="550" y="888" type="curve" smooth="yes"/>
      <point x="540" y="888"/>
      <point x="533" y="885"/>
      <point x="523" y="876" type="curve" smooth="yes"/>
      <point x="506" y="861"/>
      <point x="480" y="846"/>
      <point x="456" y="846" type="curve" smooth="yes"/>
      <point x="418" y="846"/>
      <point x="419" y="880"/>
      <point x="356" y="880" type="curve" smooth="yes"/>
      <point x="308" y="880"/>
      <point x="263" y="853"/>
      <point x="203" y="794" type="curve" smooth="yes"/>
      <point x="194" y="786"/>
      <point x="193" y="780"/>
      <point x="201" y="770" type="curve" smooth="yes"/>
      <point x="211" y="759"/>
      <point x="219" y="763"/>
      <point x="226" y="769" type="curve" smooth="yes"/>
      <point x="281" y="821"/>
      <point x="319" y="846"/>
      <point x="359" y="846" type="curve" smooth="yes"/>
      <point x="394" y="846"/>
      <point x="400" y="813"/>
      <point x="450" y="813" type="curve" smooth="yes"/>
      <point x="474" y="813"/>
      <point x="496" y="821"/>
      <point x="516" y="836" type="curve"/>
      <point x="193" y="-160" type="line" smooth="yes"/>
      <point x="153" y="-282"/>
      <point x="90" y="-357"/>
      <point x="26" y="-357" type="curve" smooth="yes"/>
      <point x="-11" y="-357"/>
      <point x="-29" y="-340"/>
      <point x="-29" y="-302" type="curve" smooth="yes"/>
      <point x="-29" y="-242"/>
      <point x="-2" y="-205"/>
      <point x="125" y="-90" type="curve" smooth="yes"/>
      <point x="260" y="23"/>
      <point x="400" y="129"/>
      <point x="495" y="191" type="curve" smooth="yes"/>
      <point x="504" y="198"/>
      <point x="508" y="203"/>
      <point x="501" y="214" type="curve" smooth="yes"/>
      <point x="493" y="228"/>
      <point x="485" y="224"/>
      <point x="476" y="218" type="curve" smooth="yes"/>
      <point x="399" y="169"/>
      <point x="266" y="71"/>
      <point x="126" y="-44" type="curve" smooth="yes"/>
      <point x="-22" y="-174"/>
      <point x="-69" y="-226"/>
      <point x="-69" y="-306" type="curve" smooth="yes"/>
      <point x="-69" y="-360"/>
      <point x="-34" y="-394"/>
    </contour>
  </outline>
</glyph>
<glyph name="J.dec.ini" format="2">
  <advance width="453"/>
  <anchor x="-1" y="-406" name="bottom"/>
  <anchor x="395" y="0" name="cnct"/>
  <anchor x="450" y="838" name="top"/>
  <outline>
    <contour>
      <point x="10" y="-394" type="curve" smooth="yes"/>
      <point x="99" y="-394"/>
      <point x="179" y="-317"/>
      <point x="226" y="-171" type="curve" smooth="yes"/>
      <point x="564" y="868" type="line"/>
      <point x="568" y="878"/>
      <point x="563" y="888"/>
      <point x="550" y="888" type="curve" smooth="yes"/>
      <point x="540" y="888"/>
      <point x="533" y="885"/>
      <point x="523" y="876" type="curve" smooth="yes"/>
      <point x="506" y="861"/>
      <point x="480" y="846"/>
      <point x="456" y="846" type="curve" smooth="yes"/>
      <point x="418" y="846"/>
      <point x="419" y="880"/>
      <point x="356" y="880" type="curve" smooth="yes"/>
      <point x="308" y="880"/>
      <point x="263" y="853"/>
      <point x="203" y="794" type="curve" smooth="yes"/>
      <point x="194" y="786"/>
      <point x="193" y="780"/>
      <point x="201" y="770" type="curve" smooth="yes"/>
      <point x="211" y="759"/>
      <point x="219" y="763"/>
      <point x="226" y="769" type="curve" smooth="yes"/>
      <point x="281" y="821"/>
      <point x="319" y="846"/>
      <point x="359" y="846" type="curve" smooth="yes"/>
      <point x="394" y="846"/>
      <point x="400" y="813"/>
      <point x="450" y="813" type="curve" smooth="yes"/>
      <point x="474" y="813"/>
      <point x="496" y="821"/>
      <point x="516" y="836" type="curve"/>
      <point x="193" y="-160" type="line" smooth="yes"/>
      <point x="153" y="-285"/>
      <point x="85" y="-357"/>
      <point x="14" y="-357" type="curve" smooth="yes"/>
      <point x="-32" y="-357"/>
      <point x="-54" y="-340"/>
      <point x="-54" y="-302" type="curve" smooth="yes"/>
      <point x="-54" y="-277"/>
      <point x="-94" y="-281"/>
      <point x="-94" y="-306" type="curve" smooth="yes"/>
      <point x="-94" y="-360"/>
      <point x="-54" y="-394"/>
    </contour>
  </outline>
</glyph>
<glyph name="M.cur" format="2">
  <advance width="1296"/>
  <guideline x="555" y="713" angle="260.22"/>
  <guideline x="150"/>
  <anchor x="565" y="0" name="bottom"/>
  <anchor x="874" y="838" name="top"/>
  <outline>
    <contour>
      <point x="1040" y="-17" type="curve" smooth="yes"/>
      <point x="1114" y="-17"/>
      <point x="1184" y="74"/>
      <point x="1216" y="120" type="curve" smooth="yes"/>
      <point x="1221" y="126"/>
      <point x="1221" y="133"/>
      <point x="1211" y="140" type="curve" smooth="yes"/>
      <point x="1204" y="146"/>
      <point x="1194" y="149"/>
      <point x="1188" y="140" type="curve" smooth="yes"/>
      <point x="1158" y="99"/>
      <point x="1096" y="20"/>
      <point x="1048" y="20" type="curve" smooth="yes"/>
      <point x="1003" y="20"/>
      <point x="1015" y="74"/>
      <point x="1029" y="115" type="curve" smooth="yes"/>
      <point x="1223" y="698" type="line" smooth="yes"/>
      <point x="1256" y="799"/>
      <point x="1226" y="891"/>
      <point x="1115" y="891" type="curve" smooth="yes"/>
      <point x="1045" y="891"/>
      <point x="914" y="833"/>
      <point x="809" y="653" type="curve"/>
      <point x="814" y="668"/>
      <point x="819" y="683"/>
      <point x="824" y="698" type="curve" smooth="yes"/>
      <point x="858" y="799"/>
      <point x="828" y="891"/>
      <point x="716" y="891" type="curve" smooth="yes"/>
      <point x="645" y="891"/>
      <point x="512" y="832"/>
      <point x="406" y="645" type="curve"/>
      <point x="421" y="691"/>
      <point x="436" y="738"/>
      <point x="451" y="784" type="curve" smooth="yes"/>
      <point x="476" y="861"/>
      <point x="446" y="891"/>
      <point x="396" y="891" type="curve" smooth="yes"/>
      <point x="336" y="891"/>
      <point x="274" y="844"/>
      <point x="204" y="738" type="curve" smooth="yes"/>
      <point x="198" y="728"/>
      <point x="198" y="720"/>
      <point x="208" y="714" type="curve" smooth="yes"/>
      <point x="218" y="708"/>
      <point x="226" y="709"/>
      <point x="234" y="720" type="curve" smooth="yes"/>
      <point x="296" y="815"/>
      <point x="350" y="856"/>
      <point x="393" y="856" type="curve" smooth="yes"/>
      <point x="428" y="856"/>
      <point x="428" y="828"/>
      <point x="414" y="785" type="curve" smooth="yes"/>
      <point x="159" y="1" type="line" smooth="yes"/>
      <point x="155" y="-11"/>
      <point x="160" y="-15"/>
      <point x="173" y="-15" type="curve" smooth="yes"/>
      <point x="185" y="-15"/>
      <point x="193" y="-11"/>
      <point x="196" y="1" type="curve" smooth="yes"/>
      <point x="330" y="413" type="line"/>
      <point x="451" y="766"/>
      <point x="638" y="855"/>
      <point x="710" y="855" type="curve" smooth="yes"/>
      <point x="814" y="855"/>
      <point x="811" y="775"/>
      <point x="785" y="695" type="curve" smooth="yes"/>
      <point x="558" y="1" type="line" smooth="yes"/>
      <point x="554" y="-11"/>
      <point x="559" y="-15"/>
      <point x="571" y="-15" type="curve" smooth="yes"/>
      <point x="584" y="-15"/>
      <point x="591" y="-11"/>
      <point x="595" y="1" type="curve" smooth="yes"/>
      <point x="739" y="440" type="line"/>
      <point x="860" y="771"/>
      <point x="1038" y="855"/>
      <point x="1109" y="855" type="curve" smooth="yes"/>
      <point x="1213" y="855"/>
      <point x="1210" y="775"/>
      <point x="1184" y="695" type="curve" smooth="yes"/>
      <point x="990" y="114" type="line" smooth="yes"/>
      <point x="970" y="53"/>
      <point x="971" y="-17"/>
    </contour>
  </outline>
</glyph>
<glyph name="M.cur.ini" format="2">
  <advance width="1251"/>
  <guideline x="554" y="713" angle="260.22"/>
  <guideline x="149"/>
  <anchor x="564" y="0" name="bottom"/>
  <anchor x="1170" y="0" name="cnct"/>
  <anchor x="873" y="838" name="top"/>
  <outline>
    <contour>
      <point x="1071" y="-17" type="curve" smooth="yes"/>
      <point x="1094" y="-17"/>
      <point x="1104" y="18"/>
      <point x="1079" y="18" type="curve" smooth="yes"/>
      <point x="1006" y="18"/>
      <point x="1018" y="85"/>
      <point x="1035" y="139" type="curve" smooth="yes"/>
      <point x="1221" y="698" type="line" smooth="yes"/>
      <point x="1255" y="799"/>
      <point x="1225" y="891"/>
      <point x="1114" y="891" type="curve" smooth="yes"/>
      <point x="1028" y="891"/>
      <point x="848" y="803"/>
      <point x="739" y="503" type="curve"/>
      <point x="728" y="411" type="line"/>
      <point x="849" y="766"/>
      <point x="1035" y="855"/>
      <point x="1108" y="855" type="curve" smooth="yes"/>
      <point x="1211" y="855"/>
      <point x="1209" y="775"/>
      <point x="1183" y="695" type="curve" smooth="yes"/>
      <point x="995" y="136" type="line" smooth="yes"/>
      <point x="969" y="56"/>
      <point x="983" y="-17"/>
    </contour>
    <contour>
      <point x="173" y="-15" type="curve" smooth="yes"/>
      <point x="185" y="-15"/>
      <point x="193" y="-11"/>
      <point x="196" y="1" type="curve" smooth="yes"/>
      <point x="451" y="784" type="line" smooth="yes"/>
      <point x="476" y="861"/>
      <point x="446" y="891"/>
      <point x="396" y="891" type="curve" smooth="yes"/>
      <point x="336" y="891"/>
      <point x="274" y="844"/>
      <point x="204" y="738" type="curve" smooth="yes"/>
      <point x="198" y="728"/>
      <point x="198" y="720"/>
      <point x="208" y="714" type="curve" smooth="yes"/>
      <point x="218" y="708"/>
      <point x="226" y="709"/>
      <point x="234" y="720" type="curve" smooth="yes"/>
      <point x="296" y="815"/>
      <point x="350" y="856"/>
      <point x="393" y="856" type="curve" smooth="yes"/>
      <point x="428" y="856"/>
      <point x="428" y="828"/>
      <point x="414" y="785" type="curve" smooth="yes"/>
      <point x="159" y="1" type="line" smooth="yes"/>
      <point x="155" y="-11"/>
      <point x="160" y="-15"/>
    </contour>
    <contour>
      <point x="570" y="-15" type="curve" smooth="yes"/>
      <point x="583" y="-15"/>
      <point x="590" y="-11"/>
      <point x="594" y="1" type="curve" smooth="yes"/>
      <point x="823" y="698" type="line" smooth="yes"/>
      <point x="856" y="799"/>
      <point x="826" y="891"/>
      <point x="715" y="891" type="curve" smooth="yes"/>
      <point x="629" y="891"/>
      <point x="449" y="803"/>
      <point x="340" y="503" type="curve"/>
      <point x="329" y="411" type="line"/>
      <point x="450" y="766"/>
      <point x="636" y="855"/>
      <point x="709" y="855" type="curve" smooth="yes"/>
      <point x="813" y="855"/>
      <point x="810" y="775"/>
      <point x="784" y="695" type="curve" smooth="yes"/>
      <point x="556" y="1" type="line" smooth="yes"/>
      <point x="553" y="-11"/>
      <point x="558" y="-15"/>
    </contour>
  </outline>
</glyph>
<glyph name="M.dec.ini" format="2">
  <advance width="1286"/>
  <anchor x="631" y="0" name="bottom"/>
  <anchor x="1205" y="0" name="cnct"/>
  <anchor x="880" y="838" name="top"/>
  <outline>
    <contour>
      <point x="111" y="-17" type="curve" smooth="yes"/>
      <point x="203" y="-17"/>
      <point x="286" y="78"/>
      <point x="663" y="821" type="curve"/>
      <point x="620" y="554"/>
      <point x="611" y="285"/>
      <point x="611" y="5" type="curve" smooth="yes"/>
      <point x="611" y="-10"/>
      <point x="616" y="-17"/>
      <point x="631" y="-17" type="curve" smooth="yes"/>
      <point x="646" y="-17"/>
      <point x="656" y="-9"/>
      <point x="665" y="5" type="curve" smooth="yes"/>
      <point x="1151" y="800" type="line"/>
      <point x="976" y="54"/>
      <point x="1015" y="-17"/>
      <point x="1103" y="-17" type="curve" smooth="yes"/>
      <point x="1123" y="-17"/>
      <point x="1129" y="18"/>
      <point x="1109" y="18" type="curve" smooth="yes"/>
      <point x="1049" y="18"/>
      <point x="1028" y="93"/>
      <point x="1201" y="864" type="curve" smooth="yes"/>
      <point x="1205" y="879"/>
      <point x="1198" y="886"/>
      <point x="1183" y="886" type="curve" smooth="yes"/>
      <point x="1168" y="886"/>
      <point x="1159" y="878"/>
      <point x="1150" y="864" type="curve" smooth="yes"/>
      <point x="648" y="43" type="line"/>
      <point x="649" y="328"/>
      <point x="659" y="593"/>
      <point x="701" y="864" type="curve" smooth="yes"/>
      <point x="704" y="879"/>
      <point x="695" y="886"/>
      <point x="680" y="886" type="curve" smooth="yes"/>
      <point x="665" y="886"/>
      <point x="658" y="878"/>
      <point x="650" y="864" type="curve" smooth="yes"/>
      <point x="270" y="131"/>
      <point x="186" y="20"/>
      <point x="114" y="20" type="curve" smooth="yes"/>
      <point x="85" y="20"/>
      <point x="64" y="48"/>
      <point x="64" y="90" type="curve" smooth="yes"/>
      <point x="64" y="139"/>
      <point x="90" y="191"/>
      <point x="121" y="241" type="curve" smooth="yes"/>
      <point x="128" y="251"/>
      <point x="130" y="259"/>
      <point x="118" y="266" type="curve" smooth="yes"/>
      <point x="105" y="274"/>
      <point x="99" y="270"/>
      <point x="91" y="259" type="curve" smooth="yes"/>
      <point x="56" y="205"/>
      <point x="28" y="149"/>
      <point x="28" y="89" type="curve" smooth="yes"/>
      <point x="28" y="23"/>
      <point x="61" y="-17"/>
    </contour>
  </outline>
</glyph>
<glyph name="M_locl.au" format="2">
  <advance width="1050"/>
  <anchor x="456" y="0" name="bottom"/>
  <anchor x="705" y="838" name="top"/>
  <outline>
    <contour>
      <point x="84" y="-14" type="curve" smooth="yes"/>
      <point x="100" y="-14"/>
      <point x="104" y="-10"/>
      <point x="108" y="1" type="curve" smooth="yes"/>
      <point x="370" y="815" type="line"/>
      <point x="426" y="18" type="line" smooth="yes"/>
      <point x="428" y="5"/>
      <point x="438" y="0"/>
      <point x="449" y="0" type="curve" smooth="yes"/>
      <point x="459" y="0"/>
      <point x="469" y="3"/>
      <point x="479" y="18" type="curve" smooth="yes"/>
      <point x="1044" y="815" type="line"/>
      <point x="781" y="1" type="line" smooth="yes"/>
      <point x="778" y="-10"/>
      <point x="784" y="-14"/>
      <point x="796" y="-14" type="curve" smooth="yes"/>
      <point x="811" y="-14"/>
      <point x="815" y="-10"/>
      <point x="819" y="1" type="curve" smooth="yes"/>
      <point x="1100" y="871" type="line" smooth="yes"/>
      <point x="1105" y="885"/>
      <point x="1095" y="890"/>
      <point x="1083" y="890" type="curve" smooth="yes"/>
      <point x="1064" y="890"/>
      <point x="1055" y="888"/>
      <point x="1048" y="878" type="curve" smooth="yes"/>
      <point x="458" y="46" type="line"/>
      <point x="398" y="878" type="line" smooth="yes"/>
      <point x="396" y="888"/>
      <point x="389" y="890"/>
      <point x="379" y="890" type="curve" smooth="yes"/>
      <point x="363" y="890"/>
      <point x="356" y="886"/>
      <point x="353" y="875" type="curve" smooth="yes"/>
      <point x="70" y="1" type="line" smooth="yes"/>
      <point x="66" y="-10"/>
      <point x="73" y="-14"/>
    </contour>
  </outline>
</glyph>
<glyph name="N.cur.ini" format="2">
  <advance width="916"/>
  <anchor x="396" y="0" name="bottom"/>
  <anchor x="835" y="0" name="cnct"/>
  <anchor x="663" y="838" name="top"/>
  <outline>
    <contour>
      <point x="736" y="-17" type="curve" smooth="yes"/>
      <point x="759" y="-17"/>
      <point x="769" y="18"/>
      <point x="744" y="18" type="curve" smooth="yes"/>
      <point x="671" y="18"/>
      <point x="684" y="85"/>
      <point x="701" y="139" type="curve" smooth="yes"/>
      <point x="884" y="698" type="line" smooth="yes"/>
      <point x="918" y="801"/>
      <point x="885" y="891"/>
      <point x="768" y="891" type="curve" smooth="yes"/>
      <point x="681" y="891"/>
      <point x="518" y="822"/>
      <point x="391" y="598" type="curve"/>
      <point x="451" y="784" type="line" smooth="yes"/>
      <point x="476" y="861"/>
      <point x="446" y="891"/>
      <point x="396" y="891" type="curve" smooth="yes"/>
      <point x="336" y="891"/>
      <point x="274" y="844"/>
      <point x="204" y="738" type="curve" smooth="yes"/>
      <point x="198" y="728"/>
      <point x="198" y="720"/>
      <point x="208" y="714" type="curve" smooth="yes"/>
      <point x="218" y="708"/>
      <point x="226" y="709"/>
      <point x="234" y="720" type="curve" smooth="yes"/>
      <point x="296" y="815"/>
      <point x="350" y="856"/>
      <point x="393" y="856" type="curve" smooth="yes"/>
      <point x="428" y="856"/>
      <point x="428" y="828"/>
      <point x="414" y="785" type="curve" smooth="yes"/>
      <point x="159" y="1" type="line" smooth="yes"/>
      <point x="155" y="-11"/>
      <point x="160" y="-15"/>
      <point x="173" y="-15" type="curve" smooth="yes"/>
      <point x="185" y="-15"/>
      <point x="193" y="-11"/>
      <point x="196" y="1" type="curve" smooth="yes"/>
      <point x="335" y="427" type="line"/>
      <point x="480" y="769"/>
      <point x="679" y="855"/>
      <point x="761" y="855" type="curve" smooth="yes"/>
      <point x="871" y="855"/>
      <point x="873" y="780"/>
      <point x="845" y="695" type="curve" smooth="yes"/>
      <point x="661" y="136" type="line" smooth="yes"/>
      <point x="635" y="56"/>
      <point x="648" y="-17"/>
    </contour>
  </outline>
</glyph>
<glyph name="N.dec" format="2">
  <advance width="1085"/>
  <anchor x="439" y="0" name="bottom"/>
  <anchor x="760" y="838" name="top"/>
  <outline>
    <contour>
      <point x="113" y="-17" type="curve" smooth="yes"/>
      <point x="218" y="-17"/>
      <point x="306" y="136"/>
      <point x="455" y="595" type="curve" smooth="yes"/>
      <point x="521" y="800" type="line"/>
      <point x="681" y="-1" type="line" smooth="yes"/>
      <point x="683" y="-10"/>
      <point x="690" y="-14"/>
      <point x="703" y="-14" type="curve" smooth="yes"/>
      <point x="714" y="-14"/>
      <point x="721" y="-10"/>
      <point x="725" y="1" type="curve" smooth="yes"/>
      <point x="860" y="405" type="line" smooth="yes"/>
      <point x="963" y="711"/>
      <point x="1014" y="853"/>
      <point x="1119" y="853" type="curve" smooth="yes"/>
      <point x="1154" y="853"/>
      <point x="1190" y="841"/>
      <point x="1229" y="824" type="curve" smooth="yes"/>
      <point x="1241" y="819"/>
      <point x="1249" y="821"/>
      <point x="1255" y="835" type="curve" smooth="yes"/>
      <point x="1260" y="846"/>
      <point x="1258" y="853"/>
      <point x="1245" y="859" type="curve" smooth="yes"/>
      <point x="1206" y="879"/>
      <point x="1165" y="890"/>
      <point x="1124" y="890" type="curve" smooth="yes"/>
      <point x="985" y="890"/>
      <point x="933" y="744"/>
      <point x="824" y="416" type="curve" smooth="yes"/>
      <point x="706" y="64" type="line"/>
      <point x="546" y="863" type="line" smooth="yes"/>
      <point x="544" y="873"/>
      <point x="538" y="878"/>
      <point x="525" y="878" type="curve" smooth="yes"/>
      <point x="514" y="878"/>
      <point x="506" y="874"/>
      <point x="503" y="863" type="curve" smooth="yes"/>
      <point x="419" y="606" type="line" smooth="yes"/>
      <point x="279" y="179"/>
      <point x="195" y="20"/>
      <point x="118" y="20" type="curve" smooth="yes"/>
      <point x="85" y="20"/>
      <point x="68" y="49"/>
      <point x="68" y="90" type="curve" smooth="yes"/>
      <point x="68" y="135"/>
      <point x="83" y="194"/>
      <point x="108" y="248" type="curve" smooth="yes"/>
      <point x="113" y="259"/>
      <point x="113" y="265"/>
      <point x="99" y="270" type="curve" smooth="yes"/>
      <point x="86" y="275"/>
      <point x="83" y="273"/>
      <point x="76" y="260" type="curve" smooth="yes"/>
      <point x="46" y="198"/>
      <point x="31" y="138"/>
      <point x="31" y="89" type="curve" smooth="yes"/>
      <point x="31" y="25"/>
      <point x="63" y="-17"/>
    </contour>
  </outline>
</glyph>
<glyph name="O.cur" format="2">
  <advance width="929"/>
  <anchor x="381" y="0" name="bottom"/>
  <anchor x="524" y="438" name="center"/>
  <anchor x="755" y="13" name="ogonek"/>
  <anchor x="630" y="838" name="top"/>
  <anchor x="793" y="875" name="topright"/>
  <outline>
    <contour>
      <point x="416" y="-19" type="curve" smooth="yes"/>
      <point x="739" y="-19"/>
      <point x="921" y="341"/>
      <point x="921" y="599" type="curve" smooth="yes"/>
      <point x="921" y="780"/>
      <point x="858" y="890"/>
      <point x="708" y="890" type="curve" smooth="yes"/>
      <point x="551" y="890"/>
      <point x="425" y="759"/>
      <point x="364" y="666" type="curve" smooth="yes"/>
      <point x="355" y="653"/>
      <point x="359" y="645"/>
      <point x="365" y="640" type="curve" smooth="yes"/>
      <point x="371" y="635"/>
      <point x="385" y="634"/>
      <point x="393" y="646" type="curve" smooth="yes"/>
      <point x="449" y="731"/>
      <point x="571" y="854"/>
      <point x="696" y="854" type="curve" smooth="yes"/>
      <point x="833" y="854"/>
      <point x="880" y="764"/>
      <point x="880" y="599" type="curve" smooth="yes"/>
      <point x="880" y="359"/>
      <point x="708" y="19"/>
      <point x="419" y="19" type="curve" smooth="yes"/>
      <point x="268" y="19"/>
      <point x="174" y="118"/>
      <point x="174" y="293" type="curve" smooth="yes"/>
      <point x="174" y="475"/>
      <point x="271" y="696"/>
      <point x="426" y="798" type="curve" smooth="yes"/>
      <point x="441" y="808"/>
      <point x="440" y="818"/>
      <point x="435" y="825" type="curve" smooth="yes"/>
      <point x="430" y="833"/>
      <point x="426" y="839"/>
      <point x="406" y="826" type="curve" smooth="yes"/>
      <point x="238" y="718"/>
      <point x="133" y="485"/>
      <point x="133" y="293" type="curve" smooth="yes"/>
      <point x="133" y="94"/>
      <point x="243" y="-19"/>
    </contour>
  </outline>
</glyph>
<glyph name="O.dec" format="2">
  <advance width="985"/>
  <anchor x="381" y="0" name="bottom"/>
  <anchor x="524" y="438" name="center"/>
  <anchor x="755" y="13" name="ogonek"/>
  <anchor x="630" y="838" name="top"/>
  <anchor x="792" y="855" name="topright"/>
  <outline>
    <contour>
      <point x="646" y="890" type="curve" smooth="yes"/>
      <point x="513" y="890"/>
      <point x="421" y="793"/>
      <point x="421" y="708" type="curve" smooth="yes"/>
      <point x="421" y="581"/>
      <point x="524" y="519"/>
      <point x="695" y="519" type="curve" smooth="yes"/>
      <point x="805" y="519"/>
      <point x="928" y="544"/>
      <point x="1084" y="591" type="curve" smooth="yes"/>
      <point x="1096" y="595"/>
      <point x="1100" y="601"/>
      <point x="1096" y="615" type="curve" smooth="yes"/>
      <point x="1091" y="631"/>
      <point x="1085" y="633"/>
      <point x="1073" y="629" type="curve" smooth="yes"/>
      <point x="933" y="584"/>
      <point x="795" y="556"/>
      <point x="696" y="556" type="curve" smooth="yes"/>
      <point x="541" y="556"/>
      <point x="463" y="605"/>
      <point x="463" y="710" type="curve" smooth="yes"/>
      <point x="463" y="783"/>
      <point x="519" y="853"/>
      <point x="644" y="853" type="curve" smooth="yes"/>
      <point x="798" y="853"/>
      <point x="879" y="755"/>
      <point x="879" y="590" type="curve" smooth="yes"/>
      <point x="879" y="350"/>
      <point x="709" y="19"/>
      <point x="421" y="19" type="curve" smooth="yes"/>
      <point x="271" y="19"/>
      <point x="178" y="118"/>
      <point x="178" y="293" type="curve" smooth="yes"/>
      <point x="178" y="510"/>
      <point x="316" y="800"/>
      <point x="584" y="853" type="curve" smooth="yes"/>
      <point x="600" y="856"/>
      <point x="603" y="864"/>
      <point x="599" y="876" type="curve" smooth="yes"/>
      <point x="595" y="888"/>
      <point x="591" y="890"/>
      <point x="573" y="886" type="curve" smooth="yes"/>
      <point x="284" y="830"/>
      <point x="136" y="525"/>
      <point x="136" y="293" type="curve" smooth="yes"/>
      <point x="136" y="94"/>
      <point x="246" y="-19"/>
      <point x="419" y="-19" type="curve" smooth="yes"/>
      <point x="740" y="-19"/>
      <point x="920" y="333"/>
      <point x="920" y="590" type="curve" smooth="yes"/>
      <point x="920" y="774"/>
      <point x="825" y="890"/>
    </contour>
  </outline>
</glyph>
<glyph name="OE.cur.ini" format="2">
  <advance width="1317"/>
  <anchor x="1236" y="0" name="cnct"/>
  <anchor x="871" y="838" name="top"/>
  <outline>
    <contour>
      <point x="360" y="-19" type="curve" smooth="yes"/>
      <point x="670" y="-19"/>
      <point x="876" y="383"/>
      <point x="876" y="643" type="curve" smooth="yes"/>
      <point x="876" y="793"/>
      <point x="828" y="890"/>
      <point x="698" y="890" type="curve" smooth="yes"/>
      <point x="555" y="890"/>
      <point x="425" y="759"/>
      <point x="364" y="666" type="curve" smooth="yes"/>
      <point x="355" y="653"/>
      <point x="359" y="645"/>
      <point x="365" y="640" type="curve" smooth="yes"/>
      <point x="371" y="635"/>
      <point x="385" y="634"/>
      <point x="393" y="646" type="curve" smooth="yes"/>
      <point x="449" y="731"/>
      <point x="580" y="854"/>
      <point x="691" y="854" type="curve" smooth="yes"/>
      <point x="801" y="854"/>
      <point x="835" y="776"/>
      <point x="835" y="643" type="curve" smooth="yes"/>
      <point x="835" y="400"/>
      <point x="640" y="19"/>
      <point x="363" y="19" type="curve" smooth="yes"/>
      <point x="228" y="19"/>
      <point x="168" y="108"/>
      <point x="168" y="270" type="curve" smooth="yes"/>
      <point x="168" y="453"/>
      <point x="271" y="696"/>
      <point x="426" y="798" type="curve" smooth="yes"/>
      <point x="441" y="808"/>
      <point x="440" y="818"/>
      <point x="435" y="825" type="curve" smooth="yes"/>
      <point x="430" y="833"/>
      <point x="426" y="839"/>
      <point x="406" y="826" type="curve" smooth="yes"/>
      <point x="238" y="718"/>
      <point x="126" y="463"/>
      <point x="126" y="270" type="curve" smooth="yes"/>
      <point x="126" y="84"/>
      <point x="203" y="-19"/>
    </contour>
    <contour>
      <point x="926" y="-17" type="curve" smooth="yes"/>
      <point x="946" y="-17"/>
      <point x="949" y="16"/>
      <point x="929" y="16" type="curve" smooth="yes"/>
      <point x="833" y="16"/>
      <point x="774" y="86"/>
      <point x="774" y="200" type="curve" smooth="yes"/>
      <point x="774" y="369"/>
      <point x="933" y="441"/>
      <point x="1116" y="441" type="curve" smooth="yes"/>
      <point x="1179" y="441" type="line" smooth="yes"/>
      <point x="1188" y="441"/>
      <point x="1195" y="448"/>
      <point x="1198" y="458" type="curve" smooth="yes"/>
      <point x="1200" y="470"/>
      <point x="1196" y="476"/>
      <point x="1185" y="476" type="curve" smooth="yes"/>
      <point x="1123" y="476" type="line" smooth="yes"/>
      <point x="1026" y="476"/>
      <point x="953" y="529"/>
      <point x="953" y="641" type="curve" smooth="yes"/>
      <point x="953" y="756"/>
      <point x="1036" y="853"/>
      <point x="1161" y="853" type="curve" smooth="yes"/>
      <point x="1239" y="853"/>
      <point x="1304" y="819"/>
      <point x="1339" y="768" type="curve" smooth="yes"/>
      <point x="1345" y="758"/>
      <point x="1354" y="755"/>
      <point x="1365" y="763" type="curve" smooth="yes"/>
      <point x="1375" y="769"/>
      <point x="1376" y="779"/>
      <point x="1369" y="791" type="curve" smooth="yes"/>
      <point x="1330" y="851"/>
      <point x="1254" y="890"/>
      <point x="1168" y="890" type="curve" smooth="yes"/>
      <point x="1015" y="890"/>
      <point x="911" y="778"/>
      <point x="911" y="639" type="curve" smooth="yes"/>
      <point x="911" y="543"/>
      <point x="964" y="486"/>
      <point x="1033" y="464" type="curve"/>
      <point x="844" y="444"/>
      <point x="733" y="361"/>
      <point x="733" y="198" type="curve" smooth="yes"/>
      <point x="733" y="64"/>
      <point x="806" y="-17"/>
    </contour>
  </outline>
</glyph>
<glyph name="P.dec" format="2">
  <advance width="770"/>
  <outline>
    <contour>
      <point x="399" y="350" type="curve" smooth="yes"/>
      <point x="663" y="366"/>
      <point x="864" y="528"/>
      <point x="864" y="741" type="curve" smooth="yes"/>
      <point x="864" y="829"/>
      <point x="813" y="890"/>
      <point x="725" y="890" type="curve" smooth="yes"/>
      <point x="615" y="890"/>
      <point x="495" y="798"/>
      <point x="401" y="648" type="curve"/>
      <point x="473" y="868" type="line" smooth="yes"/>
      <point x="476" y="880"/>
      <point x="470" y="888"/>
      <point x="456" y="888" type="curve" smooth="yes"/>
      <point x="444" y="888"/>
      <point x="438" y="881"/>
      <point x="431" y="873" type="curve" smooth="yes"/>
      <point x="366" y="778"/>
      <point x="275" y="698"/>
      <point x="166" y="626" type="curve" smooth="yes"/>
      <point x="159" y="621"/>
      <point x="155" y="614"/>
      <point x="163" y="603" type="curve" smooth="yes"/>
      <point x="170" y="591"/>
      <point x="175" y="590"/>
      <point x="186" y="598" type="curve" smooth="yes"/>
      <point x="281" y="660"/>
      <point x="354" y="720"/>
      <point x="414" y="799" type="curve"/>
      <point x="154" y="1" type="line" smooth="yes"/>
      <point x="150" y="-9"/>
      <point x="156" y="-14"/>
      <point x="169" y="-14" type="curve" smooth="yes"/>
      <point x="183" y="-14"/>
      <point x="188" y="-9"/>
      <point x="191" y="1" type="curve" smooth="yes"/>
      <point x="336" y="446" type="line"/>
      <point x="420" y="680"/>
      <point x="586" y="856"/>
      <point x="720" y="856" type="curve" smooth="yes"/>
      <point x="788" y="856"/>
      <point x="823" y="810"/>
      <point x="823" y="740" type="curve" smooth="yes"/>
      <point x="823" y="544"/>
      <point x="646" y="403"/>
      <point x="400" y="385" type="curve" smooth="yes"/>
      <point x="389" y="384"/>
      <point x="384" y="380"/>
      <point x="381" y="368" type="curve" smooth="yes"/>
      <point x="379" y="355"/>
      <point x="386" y="349"/>
    </contour>
  </outline>
</glyph>
<glyph name="Q.cur" format="2">
  <advance width="954"/>
  <outline>
    <contour>
      <point x="713" y="-114" type="curve" smooth="yes"/>
      <point x="794" y="-114"/>
      <point x="848" y="-16"/>
      <point x="879" y="38" type="curve" smooth="yes"/>
      <point x="884" y="46"/>
      <point x="883" y="53"/>
      <point x="875" y="59" type="curve" smooth="yes"/>
      <point x="866" y="66"/>
      <point x="855" y="66"/>
      <point x="850" y="58" type="curve" smooth="yes"/>
      <point x="799" y="-34"/>
      <point x="755" y="-77"/>
      <point x="714" y="-77" type="curve" smooth="yes"/>
      <point x="613" y="-77"/>
      <point x="544" y="259"/>
      <point x="366" y="259" type="curve" smooth="yes"/>
      <point x="296" y="259"/>
      <point x="251" y="215"/>
      <point x="251" y="149" type="curve" smooth="yes"/>
      <point x="251" y="51"/>
      <point x="350" y="-19"/>
      <point x="441" y="-19" type="curve" smooth="yes"/>
      <point x="675" y="-19"/>
      <point x="903" y="286"/>
      <point x="903" y="599" type="curve" smooth="yes"/>
      <point x="903" y="780"/>
      <point x="799" y="890"/>
      <point x="630" y="890" type="curve" smooth="yes"/>
      <point x="366" y="890"/>
      <point x="134" y="610"/>
      <point x="134" y="293" type="curve" smooth="yes"/>
      <point x="134" y="250"/>
      <point x="139" y="213"/>
      <point x="149" y="183" type="curve" smooth="yes"/>
      <point x="155" y="164"/>
      <point x="190" y="176"/>
      <point x="186" y="195" type="curve" smooth="yes"/>
      <point x="179" y="234"/>
      <point x="175" y="265"/>
      <point x="175" y="293" type="curve" smooth="yes"/>
      <point x="175" y="588"/>
      <point x="389" y="853"/>
      <point x="626" y="853" type="curve" smooth="yes"/>
      <point x="775" y="853"/>
      <point x="861" y="760"/>
      <point x="861" y="599" type="curve" smooth="yes"/>
      <point x="861" y="311"/>
      <point x="651" y="16"/>
      <point x="445" y="16" type="curve" smooth="yes"/>
      <point x="371" y="16"/>
      <point x="290" y="70"/>
      <point x="290" y="150" type="curve" smooth="yes"/>
      <point x="290" y="196"/>
      <point x="318" y="223"/>
      <point x="365" y="223" type="curve" smooth="yes"/>
      <point x="520" y="223"/>
      <point x="583" y="-114"/>
    </contour>
  </outline>
</glyph>
<glyph name="Q.cur_locl.ini" format="2">
  <advance width="966"/>
  <anchor x="885" y="0" name="cnct"/>
  <anchor x="381" y="0" name="bottom"/>
  <anchor x="524" y="438" name="center"/>
  <anchor x="755" y="13" name="ogonek"/>
  <anchor x="630" y="838" name="top"/>
  <anchor x="739" y="875" name="topright"/>
  <outline>
    <contour>
      <point x="783" y="-17" type="curve" smooth="yes"/>
      <point x="800" y="-17"/>
      <point x="814" y="18"/>
      <point x="794" y="18" type="curve" smooth="yes"/>
      <point x="668" y="18"/>
      <point x="546" y="259"/>
      <point x="404" y="259" type="curve" smooth="yes"/>
      <point x="379" y="259"/>
      <point x="378" y="223"/>
      <point x="403" y="223" type="curve" smooth="yes"/>
      <point x="521" y="223"/>
      <point x="654" y="-17"/>
    </contour>
    <component base="O"/>
  </outline>
</glyph>
<glyph name="Q_locl.ini" format="2">
  <advance width="948"/>
  <anchor x="866" y="0" name="cnct"/>
  <outline>
    <contour>
      <point x="294" y="-17" type="curve" smooth="yes"/>
      <point x="435" y="-17"/>
      <point x="593" y="106"/>
      <point x="756" y="386" type="curve"/>
      <point x="509" y="-375" type="line" smooth="yes"/>
      <point x="505" y="-386"/>
      <point x="511" y="-390"/>
      <point x="525" y="-390" type="curve" smooth="yes"/>
      <point x="538" y="-390"/>
      <point x="543" y="-385"/>
      <point x="546" y="-375" type="curve" smooth="yes"/>
      <point x="851" y="559" type="line" smooth="yes"/>
      <point x="855" y="570"/>
      <point x="850" y="574"/>
      <point x="836" y="574" type="curve" smooth="yes"/>
      <point x="823" y="574"/>
      <point x="816" y="570"/>
      <point x="813" y="558" type="curve"/>
      <point x="661" y="254"/>
      <point x="468" y="20"/>
      <point x="301" y="20" type="curve" smooth="yes"/>
      <point x="206" y="20"/>
      <point x="150" y="113"/>
      <point x="150" y="233" type="curve" smooth="yes"/>
      <point x="150" y="506"/>
      <point x="373" y="853"/>
      <point x="654" y="853" type="curve" smooth="yes"/>
      <point x="778" y="853"/>
      <point x="840" y="800"/>
      <point x="876" y="733" type="curve" smooth="yes"/>
      <point x="883" y="723"/>
      <point x="889" y="720"/>
      <point x="901" y="726" type="curve" smooth="yes"/>
      <point x="916" y="734"/>
      <point x="915" y="744"/>
      <point x="909" y="755" type="curve" smooth="yes"/>
      <point x="868" y="834"/>
      <point x="790" y="890"/>
      <point x="660" y="890" type="curve" smooth="yes"/>
      <point x="349" y="890"/>
      <point x="109" y="530"/>
      <point x="109" y="235" type="curve" smooth="yes"/>
      <point x="109" y="85"/>
      <point x="183" y="-17"/>
    </contour>
  </outline>
</glyph>
<glyph name="R.cur.ini" format="2">
  <advance width="900"/>
  <anchor x="433" y="0" name="bottom"/>
  <anchor x="819" y="0" name="cnct"/>
  <anchor x="666" y="838" name="top"/>
  <outline>
    <contour>
      <point x="716" y="-17" type="curve" smooth="yes"/>
      <point x="744" y="-17"/>
      <point x="748" y="18"/>
      <point x="728" y="18" type="curve" smooth="yes"/>
      <point x="669" y="18"/>
      <point x="659" y="53"/>
      <point x="596" y="230" type="curve" smooth="yes"/>
      <point x="574" y="295"/>
      <point x="559" y="335"/>
      <point x="543" y="391" type="curve"/>
      <point x="779" y="420"/>
      <point x="908" y="523"/>
      <point x="908" y="683" type="curve" smooth="yes"/>
      <point x="908" y="810"/>
      <point x="806" y="890"/>
      <point x="636" y="890" type="curve" smooth="yes"/>
      <point x="493" y="890"/>
      <point x="363" y="855"/>
      <point x="241" y="805" type="curve" smooth="yes"/>
      <point x="226" y="799"/>
      <point x="224" y="793"/>
      <point x="229" y="780" type="curve" smooth="yes"/>
      <point x="234" y="766"/>
      <point x="241" y="765"/>
      <point x="255" y="771" type="curve" smooth="yes"/>
      <point x="374" y="823"/>
      <point x="494" y="854"/>
      <point x="633" y="854" type="curve" smooth="yes"/>
      <point x="785" y="854"/>
      <point x="868" y="793"/>
      <point x="868" y="678" type="curve" smooth="yes"/>
      <point x="868" y="539"/>
      <point x="751" y="450"/>
      <point x="534" y="425" type="curve"/>
      <point x="524" y="443"/>
      <point x="500" y="455"/>
      <point x="479" y="455" type="curve" smooth="yes"/>
      <point x="454" y="455"/>
      <point x="436" y="441"/>
      <point x="436" y="420" type="curve" smooth="yes"/>
      <point x="436" y="395"/>
      <point x="465" y="381"/>
      <point x="506" y="385" type="curve"/>
      <point x="530" y="308"/>
      <point x="541" y="274"/>
      <point x="566" y="205" type="curve" smooth="yes"/>
      <point x="631" y="23"/>
      <point x="650" y="-17"/>
    </contour>
    <contour>
      <point x="145" y="-17" type="curve" smooth="yes"/>
      <point x="206" y="-17"/>
      <point x="244" y="28"/>
      <point x="285" y="151" type="curve" smooth="yes"/>
      <point x="480" y="743" type="line" smooth="yes"/>
      <point x="484" y="753"/>
      <point x="479" y="758"/>
      <point x="465" y="758" type="curve" smooth="yes"/>
      <point x="450" y="758"/>
      <point x="445" y="754"/>
      <point x="441" y="743" type="curve" smooth="yes"/>
      <point x="249" y="165" type="line" smooth="yes"/>
      <point x="213" y="55"/>
      <point x="186" y="19"/>
      <point x="149" y="19" type="curve" smooth="yes"/>
      <point x="101" y="19"/>
      <point x="78" y="46"/>
      <point x="48" y="135" type="curve" smooth="yes"/>
      <point x="44" y="148"/>
      <point x="39" y="150"/>
      <point x="28" y="146" type="curve" smooth="yes"/>
      <point x="15" y="143"/>
      <point x="10" y="136"/>
      <point x="14" y="126" type="curve" smooth="yes"/>
      <point x="44" y="25"/>
      <point x="83" y="-17"/>
    </contour>
  </outline>
</glyph>
<glyph name="S.cur" format="2">
  <advance width="893"/>
  <anchor x="515" y="0" name="bottom"/>
  <anchor x="598" y="875" name="top"/>
  <outline>
    <contour>
      <point x="524" y="-19" type="curve" smooth="yes"/>
      <point x="689" y="-19"/>
      <point x="828" y="116"/>
      <point x="828" y="278" type="curve" smooth="yes"/>
      <point x="828" y="422"/>
      <point x="704" y="535"/>
      <point x="614" y="674" type="curve"/>
      <point x="675" y="759"/>
      <point x="718" y="813"/>
      <point x="718" y="871" type="curve" smooth="yes"/>
      <point x="718" y="913"/>
      <point x="686" y="941"/>
      <point x="643" y="941" type="curve" smooth="yes"/>
      <point x="580" y="941"/>
      <point x="528" y="880"/>
      <point x="528" y="809" type="curve" smooth="yes"/>
      <point x="528" y="766"/>
      <point x="539" y="729"/>
      <point x="569" y="674" type="curve"/>
      <point x="214" y="177"/>
      <point x="128" y="25"/>
      <point x="-31" y="25" type="curve" smooth="yes"/>
      <point x="-45" y="25"/>
      <point x="-54" y="21"/>
      <point x="-57" y="8" type="curve" smooth="yes"/>
      <point x="-61" y="-7"/>
      <point x="-52" y="-12"/>
      <point x="-42" y="-12" type="curve" smooth="yes"/>
      <point x="139" y="-12"/>
      <point x="219" y="112"/>
      <point x="590" y="640" type="curve"/>
      <point x="661" y="530"/>
      <point x="789" y="408"/>
      <point x="789" y="278" type="curve" smooth="yes"/>
      <point x="789" y="135"/>
      <point x="669" y="18"/>
      <point x="524" y="18" type="curve" smooth="yes"/>
      <point x="453" y="18"/>
      <point x="391" y="49"/>
      <point x="338" y="113" type="curve"/>
      <point x="326" y="125"/>
      <point x="321" y="126"/>
      <point x="310" y="119" type="curve" smooth="yes"/>
      <point x="299" y="113"/>
      <point x="298" y="103"/>
      <point x="308" y="90" type="curve" smooth="yes"/>
      <point x="363" y="21"/>
      <point x="443" y="-19"/>
    </contour>
    <contour>
      <point x="594" y="708" type="curve"/>
      <point x="576" y="741"/>
      <point x="566" y="778"/>
      <point x="566" y="809" type="curve" smooth="yes"/>
      <point x="566" y="861"/>
      <point x="601" y="906"/>
      <point x="643" y="906" type="curve" smooth="yes"/>
      <point x="664" y="906"/>
      <point x="679" y="891"/>
      <point x="679" y="871" type="curve" smooth="yes"/>
      <point x="679" y="827"/>
      <point x="631" y="759"/>
    </contour>
  </outline>
</glyph>
<glyph name="S.dec" format="2">
  <advance width="844"/>
  <anchor x="234" y="0" name="bottom"/>
  <anchor x="773" y="875" name="top"/>
  <outline>
    <contour>
      <point x="239" y="-17" type="curve" smooth="yes"/>
      <point x="326" y="-17"/>
      <point x="381" y="35"/>
      <point x="420" y="153" type="curve" smooth="yes"/>
      <point x="544" y="529" type="line" smooth="yes"/>
      <point x="600" y="701"/>
      <point x="680" y="855"/>
      <point x="794" y="855" type="curve" smooth="yes"/>
      <point x="845" y="855"/>
      <point x="879" y="824"/>
      <point x="879" y="766" type="curve" smooth="yes"/>
      <point x="879" y="615"/>
      <point x="698" y="494"/>
      <point x="536" y="494" type="curve" smooth="yes"/>
      <point x="384" y="494"/>
      <point x="268" y="531"/>
      <point x="171" y="579" type="curve" smooth="yes"/>
      <point x="161" y="584"/>
      <point x="154" y="585"/>
      <point x="145" y="570" type="curve" smooth="yes"/>
      <point x="139" y="559"/>
      <point x="139" y="550"/>
      <point x="151" y="544" type="curve" smooth="yes"/>
      <point x="253" y="498"/>
      <point x="366" y="460"/>
      <point x="533" y="460" type="curve" smooth="yes"/>
      <point x="715" y="460"/>
      <point x="920" y="595"/>
      <point x="920" y="770" type="curve" smooth="yes"/>
      <point x="920" y="846"/>
      <point x="868" y="890"/>
      <point x="798" y="890" type="curve" smooth="yes"/>
      <point x="659" y="890"/>
      <point x="575" y="739"/>
      <point x="510" y="543" type="curve" smooth="yes"/>
      <point x="386" y="166" type="line" smooth="yes"/>
      <point x="351" y="59"/>
      <point x="305" y="19"/>
      <point x="243" y="19" type="curve" smooth="yes"/>
      <point x="183" y="19"/>
      <point x="130" y="63"/>
      <point x="85" y="141" type="curve" smooth="yes"/>
      <point x="79" y="151"/>
      <point x="74" y="155"/>
      <point x="63" y="149" type="curve" smooth="yes"/>
      <point x="48" y="140"/>
      <point x="48" y="134"/>
      <point x="54" y="124" type="curve" smooth="yes"/>
      <point x="104" y="36"/>
      <point x="165" y="-17"/>
    </contour>
  </outline>
</glyph>
<glyph name="T.cur" format="2">
  <advance width="721"/>
  <anchor x="381" y="0" name="bottom"/>
  <anchor x="336" y="438" name="center"/>
  <anchor x="601" y="838" name="top"/>
  <outline>
    <contour>
      <point x="368" y="-17" type="curve" smooth="yes"/>
      <point x="463" y="-17"/>
      <point x="560" y="41"/>
      <point x="643" y="149" type="curve" smooth="yes"/>
      <point x="649" y="156"/>
      <point x="648" y="166"/>
      <point x="639" y="173" type="curve" smooth="yes"/>
      <point x="631" y="178"/>
      <point x="620" y="176"/>
      <point x="615" y="170" type="curve" smooth="yes"/>
      <point x="534" y="68"/>
      <point x="453" y="18"/>
      <point x="370" y="18" type="curve" smooth="yes"/>
      <point x="296" y="18"/>
      <point x="256" y="65"/>
      <point x="256" y="154" type="curve" smooth="yes"/>
      <point x="256" y="328"/>
      <point x="398" y="575"/>
      <point x="649" y="840" type="curve"/>
      <point x="889" y="840" type="line" smooth="yes"/>
      <point x="895" y="840"/>
      <point x="901" y="848"/>
      <point x="905" y="859" type="curve" smooth="yes"/>
      <point x="909" y="870"/>
      <point x="906" y="875"/>
      <point x="899" y="875" type="curve" smooth="yes"/>
      <point x="418" y="875" type="line" smooth="yes"/>
      <point x="315" y="875"/>
      <point x="226" y="815"/>
      <point x="165" y="704" type="curve" smooth="yes"/>
      <point x="159" y="694"/>
      <point x="161" y="684"/>
      <point x="170" y="681" type="curve" smooth="yes"/>
      <point x="180" y="678"/>
      <point x="191" y="681"/>
      <point x="196" y="691" type="curve" smooth="yes"/>
      <point x="250" y="786"/>
      <point x="326" y="840"/>
      <point x="406" y="840" type="curve" smooth="yes"/>
      <point x="603" y="840" type="line"/>
      <point x="356" y="580"/>
      <point x="219" y="334"/>
      <point x="219" y="151" type="curve" smooth="yes"/>
      <point x="219" y="46"/>
      <point x="275" y="-17"/>
    </contour>
  </outline>
</glyph>
<glyph name="T.cur.ini" format="2">
  <advance width="671"/>
  <anchor x="381" y="0" name="bottom"/>
  <anchor x="336" y="438" name="center"/>
  <anchor x="590" y="0" name="cnct"/>
  <anchor x="601" y="838" name="top"/>
  <outline>
    <contour>
      <point x="380" y="-17" type="curve" smooth="yes"/>
      <point x="413" y="-17"/>
      <point x="409" y="16"/>
      <point x="384" y="16" type="curve" smooth="yes"/>
      <point x="300" y="16"/>
      <point x="256" y="65"/>
      <point x="256" y="154" type="curve" smooth="yes"/>
      <point x="256" y="328"/>
      <point x="398" y="575"/>
      <point x="649" y="840" type="curve"/>
      <point x="889" y="840" type="line" smooth="yes"/>
      <point x="895" y="840"/>
      <point x="901" y="848"/>
      <point x="905" y="859" type="curve" smooth="yes"/>
      <point x="909" y="870"/>
      <point x="906" y="875"/>
      <point x="899" y="875" type="curve" smooth="yes"/>
      <point x="418" y="875" type="line" smooth="yes"/>
      <point x="315" y="875"/>
      <point x="226" y="815"/>
      <point x="165" y="704" type="curve" smooth="yes"/>
      <point x="159" y="694"/>
      <point x="161" y="684"/>
      <point x="170" y="681" type="curve" smooth="yes"/>
      <point x="180" y="678"/>
      <point x="191" y="681"/>
      <point x="196" y="691" type="curve" smooth="yes"/>
      <point x="250" y="786"/>
      <point x="326" y="840"/>
      <point x="406" y="840" type="curve" smooth="yes"/>
      <point x="603" y="840" type="line"/>
      <point x="356" y="580"/>
      <point x="219" y="334"/>
      <point x="219" y="151" type="curve" smooth="yes"/>
      <point x="219" y="43"/>
      <point x="275" y="-17"/>
    </contour>
  </outline>
</glyph>
<glyph name="T.cur_locl" format="2">
  <advance width="961"/>
  <anchor x="534" y="0" name="bottom"/>
  <anchor x="432" y="387" name="center"/>
  <anchor x="651" y="838" name="top"/>
  <outline>
    <contour>
      <point x="566" y="-17" type="curve" smooth="yes"/>
      <point x="671" y="-17"/>
      <point x="764" y="18"/>
      <point x="864" y="80" type="curve" smooth="yes"/>
      <point x="874" y="86"/>
      <point x="879" y="94"/>
      <point x="870" y="106" type="curve" smooth="yes"/>
      <point x="861" y="119"/>
      <point x="853" y="119"/>
      <point x="844" y="114" type="curve" smooth="yes"/>
      <point x="753" y="53"/>
      <point x="664" y="20"/>
      <point x="573" y="20" type="curve" smooth="yes"/>
      <point x="440" y="20"/>
      <point x="361" y="108"/>
      <point x="361" y="234" type="curve" smooth="yes"/>
      <point x="361" y="283"/>
      <point x="371" y="326"/>
      <point x="389" y="369" type="curve"/>
      <point x="624" y="369" type="line" smooth="yes"/>
      <point x="631" y="369"/>
      <point x="636" y="374"/>
      <point x="639" y="386" type="curve" smooth="yes"/>
      <point x="641" y="398"/>
      <point x="638" y="404"/>
      <point x="630" y="404" type="curve" smooth="yes"/>
      <point x="406" y="404" type="line"/>
      <point x="495" y="560"/>
      <point x="710" y="685"/>
      <point x="1021" y="845" type="curve" smooth="yes"/>
      <point x="1030" y="850"/>
      <point x="1034" y="859"/>
      <point x="1026" y="871" type="curve" smooth="yes"/>
      <point x="1019" y="883"/>
      <point x="1011" y="885"/>
      <point x="1000" y="880" type="curve" smooth="yes"/>
      <point x="936" y="853"/>
      <point x="871" y="835"/>
      <point x="808" y="835" type="curve" smooth="yes"/>
      <point x="713" y="835"/>
      <point x="670" y="890"/>
      <point x="554" y="890" type="curve" smooth="yes"/>
      <point x="433" y="890"/>
      <point x="329" y="841"/>
      <point x="226" y="748" type="curve" smooth="yes"/>
      <point x="215" y="738"/>
      <point x="218" y="733"/>
      <point x="226" y="724" type="curve" smooth="yes"/>
      <point x="236" y="713"/>
      <point x="245" y="715"/>
      <point x="254" y="723" type="curve" smooth="yes"/>
      <point x="339" y="805"/>
      <point x="446" y="856"/>
      <point x="555" y="856" type="curve" smooth="yes"/>
      <point x="653" y="856"/>
      <point x="689" y="801"/>
      <point x="803" y="801" type="curve" smooth="yes"/>
      <point x="836" y="801"/>
      <point x="869" y="808"/>
      <point x="900" y="816" type="curve"/>
      <point x="634" y="681"/>
      <point x="444" y="558"/>
      <point x="363" y="404" type="curve"/>
      <point x="238" y="404" type="line" smooth="yes"/>
      <point x="230" y="404"/>
      <point x="226" y="399"/>
      <point x="224" y="388" type="curve" smooth="yes"/>
      <point x="221" y="376"/>
      <point x="224" y="369"/>
      <point x="231" y="369" type="curve" smooth="yes"/>
      <point x="346" y="369" type="line"/>
      <point x="329" y="325"/>
      <point x="320" y="279"/>
      <point x="320" y="230" type="curve" smooth="yes"/>
      <point x="320" y="83"/>
      <point x="419" y="-17"/>
    </contour>
  </outline>
</glyph>
<glyph name="T.dec" format="2">
  <advance width="721"/>
  <anchor x="225" y="0" name="bottom"/>
  <anchor x="455" y="438" name="center"/>
  <anchor x="566" y="838" name="top"/>
  <outline>
    <contour>
      <point x="239" y="-17" type="curve" smooth="yes"/>
      <point x="304" y="-17"/>
      <point x="340" y="25"/>
      <point x="381" y="151" type="curve" smooth="yes"/>
      <point x="606" y="840" type="line"/>
      <point x="889" y="840" type="line" smooth="yes"/>
      <point x="895" y="840"/>
      <point x="901" y="848"/>
      <point x="905" y="859" type="curve" smooth="yes"/>
      <point x="909" y="870"/>
      <point x="906" y="875"/>
      <point x="899" y="875" type="curve" smooth="yes"/>
      <point x="418" y="875" type="line" smooth="yes"/>
      <point x="315" y="875"/>
      <point x="226" y="815"/>
      <point x="165" y="704" type="curve" smooth="yes"/>
      <point x="159" y="694"/>
      <point x="161" y="684"/>
      <point x="170" y="681" type="curve" smooth="yes"/>
      <point x="180" y="678"/>
      <point x="191" y="681"/>
      <point x="196" y="691" type="curve" smooth="yes"/>
      <point x="250" y="786"/>
      <point x="326" y="840"/>
      <point x="406" y="840" type="curve" smooth="yes"/>
      <point x="568" y="840" type="line"/>
      <point x="346" y="165" type="line" smooth="yes"/>
      <point x="311" y="56"/>
      <point x="285" y="19"/>
      <point x="243" y="19" type="curve" smooth="yes"/>
      <point x="195" y="19"/>
      <point x="171" y="46"/>
      <point x="141" y="135" type="curve" smooth="yes"/>
      <point x="139" y="144"/>
      <point x="138" y="150"/>
      <point x="121" y="146" type="curve" smooth="yes"/>
      <point x="109" y="144"/>
      <point x="104" y="136"/>
      <point x="108" y="126" type="curve" smooth="yes"/>
      <point x="138" y="25"/>
      <point x="176" y="-17"/>
    </contour>
  </outline>
</glyph>
<glyph name="U.cur" format="2">
  <advance width="949"/>
  <guideline x="195" y="143" angle="72.91"/>
  <anchor x="395" y="0" name="bottom"/>
  <anchor x="780" y="13" name="ogonek"/>
  <anchor x="654" y="838" name="top"/>
  <anchor x="919" y="889" name="topright"/>
  <outline>
    <contour>
      <point x="334" y="-17" type="curve" smooth="yes"/>
      <point x="457" y="-17"/>
      <point x="606" y="108"/>
      <point x="705" y="288" type="curve"/>
      <point x="686" y="230"/>
      <point x="667" y="172"/>
      <point x="648" y="114" type="curve" smooth="yes"/>
      <point x="621" y="35"/>
      <point x="641" y="-17"/>
      <point x="698" y="-17" type="curve" smooth="yes"/>
      <point x="748" y="-17"/>
      <point x="813" y="34"/>
      <point x="874" y="120" type="curve" smooth="yes"/>
      <point x="879" y="128"/>
      <point x="878" y="134"/>
      <point x="869" y="140" type="curve" smooth="yes"/>
      <point x="860" y="148"/>
      <point x="850" y="148"/>
      <point x="845" y="140" type="curve" smooth="yes"/>
      <point x="790" y="64"/>
      <point x="739" y="20"/>
      <point x="705" y="20" type="curve" smooth="yes"/>
      <point x="671" y="20"/>
      <point x="666" y="53"/>
      <point x="686" y="115" type="curve" smooth="yes"/>
      <point x="933" y="873" type="line" smooth="yes"/>
      <point x="936" y="884"/>
      <point x="933" y="889"/>
      <point x="919" y="889" type="curve" smooth="yes"/>
      <point x="905" y="889"/>
      <point x="899" y="884"/>
      <point x="895" y="873" type="curve" smooth="yes"/>
      <point x="760" y="463" type="line"/>
      <point x="660" y="211"/>
      <point x="478" y="19"/>
      <point x="340" y="19" type="curve" smooth="yes"/>
      <point x="248" y="19"/>
      <point x="220" y="69"/>
      <point x="255" y="179" type="curve" smooth="yes"/>
      <point x="449" y="784" type="line" smooth="yes"/>
      <point x="474" y="861"/>
      <point x="444" y="891"/>
      <point x="394" y="891" type="curve" smooth="yes"/>
      <point x="334" y="891"/>
      <point x="271" y="844"/>
      <point x="201" y="738" type="curve" smooth="yes"/>
      <point x="195" y="728"/>
      <point x="195" y="720"/>
      <point x="205" y="714" type="curve" smooth="yes"/>
      <point x="215" y="708"/>
      <point x="224" y="709"/>
      <point x="231" y="720" type="curve" smooth="yes"/>
      <point x="294" y="815"/>
      <point x="348" y="856"/>
      <point x="390" y="856" type="curve" smooth="yes"/>
      <point x="425" y="856"/>
      <point x="425" y="828"/>
      <point x="411" y="785" type="curve" smooth="yes"/>
      <point x="216" y="176" type="line" smooth="yes"/>
      <point x="179" y="58"/>
      <point x="224" y="-17"/>
    </contour>
  </outline>
</glyph>
<glyph name="U.cur.ini" format="2">
  <advance width="909"/>
  <anchor x="405" y="0" name="bottom"/>
  <anchor x="828" y="0" name="cnct"/>
  <anchor x="780" y="13" name="ogonek"/>
  <anchor x="634" y="838" name="top"/>
  <anchor x="919" y="889" name="topright"/>
  <outline>
    <contour>
      <point x="334" y="-17" type="curve" smooth="yes"/>
      <point x="475" y="-17"/>
      <point x="650" y="148"/>
      <point x="745" y="371" type="curve"/>
      <point x="760" y="463" type="line"/>
      <point x="660" y="211"/>
      <point x="478" y="19"/>
      <point x="340" y="19" type="curve" smooth="yes"/>
      <point x="248" y="19"/>
      <point x="220" y="69"/>
      <point x="255" y="179" type="curve" smooth="yes"/>
      <point x="449" y="784" type="line" smooth="yes"/>
      <point x="474" y="861"/>
      <point x="444" y="891"/>
      <point x="394" y="891" type="curve" smooth="yes"/>
      <point x="334" y="891"/>
      <point x="271" y="844"/>
      <point x="201" y="738" type="curve" smooth="yes"/>
      <point x="195" y="728"/>
      <point x="195" y="720"/>
      <point x="205" y="714" type="curve" smooth="yes"/>
      <point x="215" y="708"/>
      <point x="224" y="709"/>
      <point x="231" y="720" type="curve" smooth="yes"/>
      <point x="294" y="815"/>
      <point x="348" y="856"/>
      <point x="390" y="856" type="curve" smooth="yes"/>
      <point x="425" y="856"/>
      <point x="425" y="828"/>
      <point x="411" y="785" type="curve" smooth="yes"/>
      <point x="216" y="176" type="line" smooth="yes"/>
      <point x="179" y="58"/>
      <point x="224" y="-17"/>
    </contour>
    <contour>
      <point x="729" y="-17" type="curve" smooth="yes"/>
      <point x="751" y="-17"/>
      <point x="761" y="18"/>
      <point x="736" y="18" type="curve" smooth="yes"/>
      <point x="664" y="18"/>
      <point x="676" y="85"/>
      <point x="694" y="139" type="curve" smooth="yes"/>
      <point x="933" y="873" type="line" smooth="yes"/>
      <point x="936" y="884"/>
      <point x="933" y="889"/>
      <point x="919" y="889" type="curve" smooth="yes"/>
      <point x="905" y="889"/>
      <point x="899" y="884"/>
      <point x="895" y="873" type="curve" smooth="yes"/>
      <point x="654" y="136" type="line" smooth="yes"/>
      <point x="628" y="56"/>
      <point x="640" y="-17"/>
    </contour>
  </outline>
</glyph>
<glyph name="V.cur" format="2">
  <advance width="914"/>
  <outline>
    <contour>
      <point x="286" y="-19" type="curve" smooth="yes"/>
      <point x="441" y="-19"/>
      <point x="634" y="184"/>
      <point x="798" y="520" type="curve" smooth="yes"/>
      <point x="843" y="613"/>
      <point x="881" y="720"/>
      <point x="903" y="818" type="curve"/>
      <point x="923" y="803"/>
      <point x="1008" y="776"/>
      <point x="1044" y="775" type="curve" smooth="yes"/>
      <point x="1059" y="774"/>
      <point x="1071" y="804"/>
      <point x="1058" y="806" type="curve" smooth="yes"/>
      <point x="991" y="816"/>
      <point x="931" y="839"/>
      <point x="916" y="859" type="curve"/>
      <point x="911" y="883"/>
      <point x="891" y="901"/>
      <point x="869" y="901" type="curve" smooth="yes"/>
      <point x="845" y="901"/>
      <point x="828" y="886"/>
      <point x="828" y="864" type="curve" smooth="yes"/>
      <point x="828" y="845"/>
      <point x="844" y="830"/>
      <point x="869" y="825" type="curve"/>
      <point x="854" y="749"/>
      <point x="809" y="626"/>
      <point x="755" y="516" type="curve" smooth="yes"/>
      <point x="609" y="219"/>
      <point x="423" y="16"/>
      <point x="294" y="16" type="curve" smooth="yes"/>
      <point x="228" y="16"/>
      <point x="213" y="68"/>
      <point x="245" y="176" type="curve" smooth="yes"/>
      <point x="306" y="375"/>
      <point x="374" y="584"/>
      <point x="433" y="784" type="curve" smooth="yes"/>
      <point x="458" y="861"/>
      <point x="428" y="891"/>
      <point x="378" y="891" type="curve" smooth="yes"/>
      <point x="318" y="891"/>
      <point x="255" y="844"/>
      <point x="185" y="738" type="curve" smooth="yes"/>
      <point x="179" y="728"/>
      <point x="179" y="720"/>
      <point x="189" y="714" type="curve" smooth="yes"/>
      <point x="199" y="708"/>
      <point x="208" y="709"/>
      <point x="215" y="720" type="curve" smooth="yes"/>
      <point x="278" y="815"/>
      <point x="331" y="856"/>
      <point x="374" y="856" type="curve" smooth="yes"/>
      <point x="409" y="856"/>
      <point x="409" y="828"/>
      <point x="395" y="785" type="curve" smooth="yes"/>
      <point x="334" y="586"/>
      <point x="269" y="375"/>
      <point x="208" y="176" type="curve" smooth="yes"/>
      <point x="170" y="54"/>
      <point x="200" y="-19"/>
    </contour>
  </outline>
</glyph>
<glyph name="X.dec.ini" format="2">
  <advance width="850"/>
  <anchor x="769" y="0" name="cnct"/>
  <outline>
    <contour>
      <point x="190" y="-17" type="curve" smooth="yes"/>
      <point x="283" y="-17"/>
      <point x="374" y="103"/>
      <point x="441" y="246" type="curve"/>
      <point x="425" y="130"/>
      <point x="425" y="-17"/>
      <point x="585" y="-17" type="curve" smooth="yes"/>
      <point x="605" y="-17"/>
      <point x="613" y="18"/>
      <point x="593" y="18" type="curve" smooth="yes"/>
      <point x="514" y="18"/>
      <point x="468" y="46"/>
      <point x="468" y="164" type="curve" smooth="yes"/>
      <point x="468" y="336"/>
      <point x="625" y="853"/>
      <point x="808" y="853" type="curve" smooth="yes"/>
      <point x="849" y="853"/>
      <point x="884" y="821"/>
      <point x="911" y="763" type="curve" smooth="yes"/>
      <point x="916" y="753"/>
      <point x="925" y="748"/>
      <point x="936" y="755" type="curve" smooth="yes"/>
      <point x="951" y="763"/>
      <point x="951" y="770"/>
      <point x="946" y="781" type="curve" smooth="yes"/>
      <point x="916" y="844"/>
      <point x="875" y="890"/>
      <point x="810" y="890" type="curve" smooth="yes"/>
      <point x="713" y="890"/>
      <point x="624" y="774"/>
      <point x="559" y="631" type="curve"/>
      <point x="568" y="735"/>
      <point x="545" y="890"/>
      <point x="424" y="890" type="curve" smooth="yes"/>
      <point x="369" y="890"/>
      <point x="309" y="851"/>
      <point x="255" y="781" type="curve" smooth="yes"/>
      <point x="249" y="773"/>
      <point x="246" y="768"/>
      <point x="260" y="758" type="curve" smooth="yes"/>
      <point x="273" y="748"/>
      <point x="280" y="751"/>
      <point x="285" y="759" type="curve" smooth="yes"/>
      <point x="330" y="820"/>
      <point x="380" y="853"/>
      <point x="420" y="853" type="curve" smooth="yes"/>
      <point x="498" y="853"/>
      <point x="528" y="766"/>
      <point x="528" y="663" type="curve" smooth="yes"/>
      <point x="528" y="501"/>
      <point x="355" y="20"/>
      <point x="193" y="20" type="curve" smooth="yes"/>
      <point x="135" y="20"/>
      <point x="96" y="79"/>
      <point x="79" y="139" type="curve" smooth="yes"/>
      <point x="76" y="150"/>
      <point x="70" y="156"/>
      <point x="55" y="151" type="curve" smooth="yes"/>
      <point x="40" y="146"/>
      <point x="39" y="138"/>
      <point x="41" y="128" type="curve" smooth="yes"/>
      <point x="64" y="55"/>
      <point x="115" y="-17"/>
    </contour>
  </outline>
</glyph>
<glyph name="X.dec_ro" format="2">
  <advance width="888"/>
  <outline>
    <contour>
      <point x="306" y="431" type="curve" smooth="yes"/>
      <point x="690" y="431" type="line" smooth="yes"/>
      <point x="697" y="431"/>
      <point x="702" y="436"/>
      <point x="705" y="449" type="curve" smooth="yes"/>
      <point x="707" y="460"/>
      <point x="704" y="466"/>
      <point x="696" y="466" type="curve" smooth="yes"/>
      <point x="312" y="466" type="line" smooth="yes"/>
      <point x="305" y="466"/>
      <point x="301" y="461"/>
      <point x="299" y="450" type="curve" smooth="yes"/>
      <point x="296" y="439"/>
      <point x="299" y="431"/>
    </contour>
    <component base="X.dec"/>
  </outline>
</glyph>
<glyph name="X.dec_ro.ini" format="2">
  <advance width="850"/>
  <anchor x="769" y="0" name="cnct"/>
  <outline>
    <contour>
      <point x="306" y="431" type="curve" smooth="yes"/>
      <point x="690" y="431" type="line" smooth="yes"/>
      <point x="697" y="431"/>
      <point x="702" y="436"/>
      <point x="705" y="449" type="curve" smooth="yes"/>
      <point x="707" y="460"/>
      <point x="704" y="466"/>
      <point x="696" y="466" type="curve" smooth="yes"/>
      <point x="312" y="466" type="line" smooth="yes"/>
      <point x="305" y="466"/>
      <point x="301" y="461"/>
      <point x="299" y="450" type="curve" smooth="yes"/>
      <point x="296" y="439"/>
      <point x="299" y="431"/>
    </contour>
    <component base="X.dec.ini"/>
  </outline>
</glyph>
<glyph name="Y.cur.ini" format="2">
  <advance width="784"/>
  <anchor x="729" y="0" name="bottom"/>
  <anchor x="702" y="0" name="cnct"/>
  <anchor x="620" y="838" name="top"/>
  <outline>
    <contour>
      <point x="345" y="51" type="curve" smooth="yes"/>
      <point x="425" y="51"/>
      <point x="566" y="119"/>
      <point x="684" y="333" type="curve"/>
      <point x="525" y="-160" type="line" smooth="yes"/>
      <point x="485" y="-285"/>
      <point x="417" y="-357"/>
      <point x="346" y="-357" type="curve" smooth="yes"/>
      <point x="300" y="-357"/>
      <point x="279" y="-340"/>
      <point x="279" y="-302" type="curve" smooth="yes"/>
      <point x="279" y="-277"/>
      <point x="239" y="-281"/>
      <point x="239" y="-306" type="curve" smooth="yes"/>
      <point x="239" y="-360"/>
      <point x="279" y="-394"/>
      <point x="342" y="-394" type="curve" smooth="yes"/>
      <point x="431" y="-394"/>
      <point x="511" y="-317"/>
      <point x="559" y="-171" type="curve" smooth="yes"/>
      <point x="896" y="871" type="line" smooth="yes"/>
      <point x="900" y="884"/>
      <point x="895" y="888"/>
      <point x="882" y="888" type="curve" smooth="yes"/>
      <point x="870" y="888"/>
      <point x="862" y="884"/>
      <point x="859" y="871" type="curve" smooth="yes"/>
      <point x="742" y="514" type="line"/>
      <point x="605" y="174"/>
      <point x="430" y="88"/>
      <point x="352" y="88" type="curve" smooth="yes"/>
      <point x="247" y="88"/>
      <point x="235" y="153"/>
      <point x="266" y="248" type="curve" smooth="yes"/>
      <point x="444" y="784" type="line" smooth="yes"/>
      <point x="469" y="861"/>
      <point x="439" y="891"/>
      <point x="389" y="891" type="curve" smooth="yes"/>
      <point x="329" y="891"/>
      <point x="266" y="844"/>
      <point x="196" y="738" type="curve" smooth="yes"/>
      <point x="190" y="728"/>
      <point x="190" y="720"/>
      <point x="200" y="714" type="curve" smooth="yes"/>
      <point x="210" y="708"/>
      <point x="219" y="709"/>
      <point x="226" y="720" type="curve" smooth="yes"/>
      <point x="289" y="815"/>
      <point x="342" y="856"/>
      <point x="385" y="856" type="curve" smooth="yes"/>
      <point x="420" y="856"/>
      <point x="420" y="828"/>
      <point x="406" y="785" type="curve" smooth="yes"/>
      <point x="227" y="245" type="line" smooth="yes"/>
      <point x="192" y="141"/>
      <point x="226" y="51"/>
    </contour>
  </outline>
</glyph>
<glyph name="Y_locl" format="2">
  <advance width="686"/>
  <anchor x="241" y="0" name="bottom"/>
  <anchor x="533" y="838" name="top"/>
  <outline>
    <contour>
      <point x="134" y="-4" type="curve" smooth="yes"/>
      <point x="859" y="859" type="line" smooth="yes"/>
      <point x="868" y="869"/>
      <point x="869" y="875"/>
      <point x="856" y="885" type="curve" smooth="yes"/>
      <point x="848" y="891"/>
      <point x="840" y="893"/>
      <point x="830" y="881" type="curve" smooth="yes"/>
      <point x="410" y="381" type="line"/>
      <point x="261" y="875" type="line" smooth="yes"/>
      <point x="258" y="889"/>
      <point x="251" y="890"/>
      <point x="239" y="886" type="curve" smooth="yes"/>
      <point x="225" y="883"/>
      <point x="224" y="875"/>
      <point x="226" y="865" type="curve" smooth="yes"/>
      <point x="381" y="348" type="line"/>
      <point x="105" y="19" type="line" smooth="yes"/>
      <point x="99" y="11"/>
      <point x="96" y="1"/>
      <point x="108" y="-7" type="curve" smooth="yes"/>
      <point x="116" y="-14"/>
      <point x="123" y="-16"/>
    </contour>
  </outline>
</glyph>
<glyph name=".notdef" format="2">
  <advance width="845"/>
  <outline>
    <contour>
      <point x="353" y="890" type="line"/>
      <point x="63" y="0" type="line"/>
      <point x="619" y="0" type="line"/>
      <point x="909" y="890" type="line"/>
    </contour>
    <contour>
      <point x="376" y="854" type="line"/>
      <point x="860" y="854" type="line"/>
      <point x="595" y="36" type="line"/>
      <point x="111" y="36" type="line"/>
    </contour>
  </outline>
</glyph>
<glyph name="ae.ful" format="2">
  <advance width="775"/>
  <anchor x="462" y="500" name="top"/>
  <outline>
    <contour>
      <point x="158" y="-17" type="curve" smooth="yes"/>
      <point x="238" y="-17"/>
      <point x="316" y="60"/>
      <point x="410" y="203" type="curve"/>
      <point x="402" y="245" type="line"/>
      <point x="313" y="111"/>
      <point x="233" y="18"/>
      <point x="162" y="18" type="curve" smooth="yes"/>
      <point x="110" y="18"/>
      <point x="100" y="73"/>
      <point x="100" y="138" type="curve" smooth="yes"/>
      <point x="100" y="301"/>
      <point x="196" y="485"/>
      <point x="368" y="485" type="curve" smooth="yes"/>
      <point x="426" y="485"/>
      <point x="461" y="470"/>
      <point x="506" y="443" type="curve"/>
      <point x="525" y="474" type="line"/>
      <point x="476" y="504"/>
      <point x="423" y="519"/>
      <point x="375" y="519" type="curve" smooth="yes"/>
      <point x="171" y="519"/>
      <point x="57" y="316"/>
      <point x="57" y="136" type="curve" smooth="yes"/>
      <point x="57" y="48"/>
      <point x="83" y="-17"/>
    </contour>
    <contour>
      <point x="570" y="-17" type="curve" smooth="yes"/>
      <point x="676" y="-17"/>
      <point x="770" y="60"/>
      <point x="813" y="111" type="curve" smooth="yes"/>
      <point x="821" y="121"/>
      <point x="817" y="129"/>
      <point x="811" y="134" type="curve" smooth="yes"/>
      <point x="803" y="140"/>
      <point x="797" y="140"/>
      <point x="788" y="131" type="curve" smooth="yes"/>
      <point x="751" y="90"/>
      <point x="671" y="16"/>
      <point x="577" y="16" type="curve" smooth="yes"/>
      <point x="475" y="16"/>
      <point x="433" y="100"/>
      <point x="433" y="199" type="curve" smooth="yes"/>
      <point x="433" y="305"/>
      <point x="497" y="485"/>
      <point x="616" y="485" type="curve" smooth="yes"/>
      <point x="651" y="485"/>
      <point x="668" y="464"/>
      <point x="668" y="436" type="curve" smooth="yes"/>
      <point x="668" y="338"/>
      <point x="558" y="271"/>
      <point x="406" y="241" type="curve"/>
      <point x="415" y="213" type="line"/>
      <point x="583" y="245"/>
      <point x="707" y="324"/>
      <point x="707" y="440" type="curve" smooth="yes"/>
      <point x="707" y="488"/>
      <point x="678" y="519"/>
      <point x="623" y="519" type="curve" smooth="yes"/>
      <point x="472" y="519"/>
      <point x="396" y="321"/>
      <point x="396" y="199" type="curve" smooth="yes"/>
      <point x="396" y="84"/>
      <point x="452" y="-17"/>
    </contour>
  </outline>
</glyph>
<glyph name="ae.ful.ini" format="2">
  <advance width="775"/>
  <anchor x="693" y="0" name="cnct"/>
  <anchor x="462" y="500" name="top"/>
  <outline>
    <contour>
      <point x="158" y="-17" type="curve" smooth="yes"/>
      <point x="238" y="-17"/>
      <point x="316" y="60"/>
      <point x="410" y="203" type="curve"/>
      <point x="402" y="245" type="line"/>
      <point x="313" y="111"/>
      <point x="233" y="18"/>
      <point x="162" y="18" type="curve" smooth="yes"/>
      <point x="110" y="18"/>
      <point x="100" y="73"/>
      <point x="100" y="138" type="curve" smooth="yes"/>
      <point x="100" y="301"/>
      <point x="196" y="485"/>
      <point x="368" y="485" type="curve" smooth="yes"/>
      <point x="426" y="485"/>
      <point x="461" y="470"/>
      <point x="506" y="443" type="curve"/>
      <point x="525" y="474" type="line"/>
      <point x="476" y="504"/>
      <point x="423" y="519"/>
      <point x="375" y="519" type="curve" smooth="yes"/>
      <point x="171" y="519"/>
      <point x="57" y="316"/>
      <point x="57" y="136" type="curve" smooth="yes"/>
      <point x="57" y="48"/>
      <point x="83" y="-17"/>
    </contour>
    <contour>
      <point x="623" y="519" type="curve" smooth="yes"/>
      <point x="598" y="519"/>
      <point x="591" y="485"/>
      <point x="616" y="485" type="curve" smooth="yes"/>
      <point x="651" y="485"/>
      <point x="668" y="464"/>
      <point x="668" y="436" type="curve" smooth="yes"/>
      <point x="668" y="338"/>
      <point x="558" y="271"/>
      <point x="406" y="241" type="curve"/>
      <point x="415" y="213" type="line"/>
      <point x="583" y="245"/>
      <point x="707" y="324"/>
      <point x="707" y="440" type="curve" smooth="yes"/>
      <point x="707" y="488"/>
      <point x="678" y="519"/>
    </contour>
  </outline>
</glyph>
<glyph name="ae.mod.ini" format="2">
  <advance width="877"/>
  <anchor x="795" y="0" name="cnct"/>
  <anchor x="526" y="500" name="top"/>
  <outline>
    <contour>
      <point x="865" y="415" type="curve" smooth="yes"/>
      <point x="865" y="479"/>
      <point x="810" y="519"/>
      <point x="721" y="519" type="curve" smooth="yes"/>
      <point x="653" y="519"/>
      <point x="603" y="499"/>
      <point x="546" y="466" type="curve"/>
      <point x="557" y="431" type="line"/>
      <point x="611" y="465"/>
      <point x="661" y="485"/>
      <point x="716" y="485" type="curve" smooth="yes"/>
      <point x="777" y="485"/>
      <point x="823" y="460"/>
      <point x="823" y="411" type="curve" smooth="yes"/>
      <point x="823" y="289"/>
      <point x="622" y="241"/>
      <point x="467" y="223" type="curve"/>
      <point x="466" y="190" type="line"/>
      <point x="607" y="209"/>
      <point x="865" y="251"/>
    </contour>
    <contour>
      <point x="612" y="-17" type="curve" smooth="yes"/>
      <point x="633" y="-17"/>
      <point x="638" y="18"/>
      <point x="620" y="18" type="curve" smooth="yes"/>
      <point x="535" y="18"/>
      <point x="468" y="84"/>
      <point x="468" y="184" type="curve" smooth="yes"/>
      <point x="468" y="276"/>
      <point x="523" y="376"/>
      <point x="587" y="466" type="curve"/>
      <point x="506" y="501"/>
      <point x="446" y="519"/>
      <point x="375" y="519" type="curve" smooth="yes"/>
      <point x="171" y="519"/>
      <point x="57" y="316"/>
      <point x="57" y="136" type="curve" smooth="yes"/>
      <point x="57" y="48"/>
      <point x="88" y="-17"/>
      <point x="158" y="-17" type="curve" smooth="yes"/>
      <point x="238" y="-17"/>
      <point x="336" y="54"/>
      <point x="547" y="421" type="curve"/>
      <point x="523" y="438" type="line"/>
      <point x="321" y="96"/>
      <point x="230" y="18"/>
      <point x="162" y="18" type="curve" smooth="yes"/>
      <point x="110" y="18"/>
      <point x="100" y="73"/>
      <point x="100" y="138" type="curve" smooth="yes"/>
      <point x="100" y="301"/>
      <point x="196" y="485"/>
      <point x="368" y="485" type="curve" smooth="yes"/>
      <point x="432" y="485"/>
      <point x="492" y="466"/>
      <point x="541" y="445" type="curve"/>
      <point x="541" y="465" type="line"/>
      <point x="493" y="395"/>
      <point x="430" y="281"/>
      <point x="430" y="185" type="curve" smooth="yes"/>
      <point x="430" y="66"/>
      <point x="511" y="-17"/>
    </contour>
  </outline>
</glyph>
<glyph name="b.ful" format="2">
  <advance width="584"/>
  <anchor x="225" y="0" name="bottom"/>
  <anchor x="306" y="250" name="center"/>
  <anchor x="388" y="500" name="top"/>
  <outline>
    <contour>
      <point x="184" y="-19" type="curve" smooth="yes"/>
      <point x="361" y="-19"/>
      <point x="521" y="245"/>
      <point x="521" y="415" type="curve" smooth="yes"/>
      <point x="521" y="446"/>
      <point x="518" y="478"/>
      <point x="509" y="500" type="curve" smooth="yes"/>
      <point x="504" y="514"/>
      <point x="498" y="519"/>
      <point x="490" y="519" type="curve" smooth="yes"/>
      <point x="478" y="519"/>
      <point x="473" y="511"/>
      <point x="475" y="498" type="curve" smooth="yes"/>
      <point x="483" y="463"/>
      <point x="486" y="434"/>
      <point x="486" y="408" type="curve" smooth="yes"/>
      <point x="486" y="251"/>
      <point x="329" y="15"/>
      <point x="193" y="15" type="curve" smooth="yes"/>
      <point x="110" y="15"/>
      <point x="100" y="86"/>
      <point x="134" y="189" type="curve" smooth="yes"/>
      <point x="356" y="876" type="line" smooth="yes"/>
      <point x="360" y="888"/>
      <point x="356" y="891"/>
      <point x="344" y="891" type="curve" smooth="yes"/>
      <point x="331" y="891"/>
      <point x="324" y="888"/>
      <point x="320" y="876" type="curve" smooth="yes"/>
      <point x="98" y="189" type="line" smooth="yes"/>
      <point x="56" y="61"/>
      <point x="93" y="-19"/>
    </contour>
  </outline>
</glyph>
<glyph name="b.ful.ini" format="2">
  <advance width="584"/>
  <anchor x="225" y="0" name="bottom"/>
  <anchor x="306" y="250" name="center"/>
  <anchor x="503" y="0" name="cnct"/>
  <anchor x="388" y="500" name="top"/>
  <outline>
    <contour>
      <point x="184" y="-19" type="curve" smooth="yes"/>
      <point x="373" y="-19"/>
      <point x="524" y="265"/>
      <point x="524" y="419" type="curve" smooth="yes"/>
      <point x="524" y="476"/>
      <point x="506" y="519"/>
      <point x="481" y="519" type="curve" smooth="yes"/>
      <point x="463" y="519"/>
      <point x="450" y="504"/>
      <point x="450" y="485" type="curve" smooth="yes"/>
      <point x="450" y="466"/>
      <point x="461" y="445"/>
      <point x="489" y="429" type="curve"/>
      <point x="490" y="425"/>
      <point x="490" y="421"/>
      <point x="490" y="418" type="curve" smooth="yes"/>
      <point x="490" y="266"/>
      <point x="335" y="15"/>
      <point x="193" y="15" type="curve" smooth="yes"/>
      <point x="110" y="15"/>
      <point x="100" y="86"/>
      <point x="134" y="189" type="curve" smooth="yes"/>
      <point x="356" y="876" type="line" smooth="yes"/>
      <point x="360" y="888"/>
      <point x="356" y="891"/>
      <point x="344" y="891" type="curve" smooth="yes"/>
      <point x="331" y="891"/>
      <point x="324" y="888"/>
      <point x="320" y="876" type="curve" smooth="yes"/>
      <point x="98" y="189" type="line" smooth="yes"/>
      <point x="56" y="60"/>
      <point x="93" y="-19"/>
    </contour>
  </outline>
</glyph>
<glyph name="b.jmc_dk.fin" format="2">
  <advance width="623"/>
  <anchor x="266" y="0" name="bottom"/>
  <anchor x="350" y="250" name="center"/>
  <anchor x="516" y="500" name="top"/>
  <outline>
    <contour>
      <point x="80" y="-15" type="curve" smooth="yes"/>
      <point x="93" y="-15"/>
      <point x="99" y="-11"/>
      <point x="103" y="0" type="curve" smooth="yes"/>
      <point x="310" y="645" type="line" smooth="yes"/>
      <point x="358" y="793"/>
      <point x="396" y="859"/>
      <point x="448" y="859" type="curve" smooth="yes"/>
      <point x="476" y="859"/>
      <point x="489" y="838"/>
      <point x="489" y="809" type="curve" smooth="yes"/>
      <point x="489" y="734"/>
      <point x="403" y="608"/>
      <point x="221" y="416" type="curve"/>
      <point x="203" y="355" type="line"/>
      <point x="423" y="578"/>
      <point x="528" y="724"/>
      <point x="528" y="809" type="curve" smooth="yes"/>
      <point x="528" y="854"/>
      <point x="505" y="894"/>
      <point x="448" y="894" type="curve" smooth="yes"/>
      <point x="381" y="894"/>
      <point x="331" y="825"/>
      <point x="280" y="669" type="curve" smooth="yes"/>
      <point x="63" y="1" type="line" smooth="yes"/>
      <point x="59" y="-10"/>
      <point x="68" y="-15"/>
    </contour>
    <contour>
      <point x="100" y="32" type="curve" smooth="yes"/>
      <point x="148" y="-4"/>
      <point x="200" y="-17"/>
      <point x="242" y="-17" type="curve" smooth="yes"/>
      <point x="450" y="-17"/>
      <point x="575" y="218"/>
      <point x="575" y="370" type="curve" smooth="yes"/>
      <point x="575" y="461"/>
      <point x="530" y="519"/>
      <point x="462" y="519" type="curve" smooth="yes"/>
      <point x="334" y="519"/>
      <point x="223" y="348"/>
      <point x="108" y="111" type="curve"/>
      <point x="138" y="111" type="line"/>
      <point x="255" y="360"/>
      <point x="373" y="484"/>
      <point x="456" y="484" type="curve" smooth="yes"/>
      <point x="510" y="484"/>
      <point x="536" y="438"/>
      <point x="536" y="370" type="curve" smooth="yes"/>
      <point x="536" y="229"/>
      <point x="422" y="18"/>
      <point x="248" y="18" type="curve" smooth="yes"/>
      <point x="211" y="18"/>
      <point x="171" y="24"/>
      <point x="113" y="58" type="curve" smooth="yes"/>
      <point x="93" y="70"/>
      <point x="79" y="48"/>
    </contour>
  </outline>
</glyph>
<glyph name="b.jmc_dk" format="2">
  <advance width="623"/>
  <anchor x="264" y="0" name="bottom"/>
  <anchor x="348" y="250" name="center"/>
  <anchor x="514" y="500" name="top"/>
  <outline>
    <contour>
      <point x="-184" y="-17" type="curve" smooth="yes"/>
      <point x="-102" y="-17"/>
      <point x="-9" y="76"/>
      <point x="194" y="356" type="curve" smooth="yes"/>
      <point x="214" y="384"/>
      <point x="221" y="440"/>
      <point x="199" y="410" type="curve" smooth="yes"/>
      <point x="-17" y="123"/>
      <point x="-111" y="18"/>
      <point x="-172" y="18" type="curve" smooth="yes"/>
      <point x="-195" y="18"/>
      <point x="-206" y="-17"/>
    </contour>
    <component base="b.jmc_dk.fin" xOffset="-2"/>
  </outline>
</glyph>
<glyph name="b.jmc_dk.ini" format="2">
  <advance width="623"/>
  <anchor x="542" y="0" name="cnct"/>
  <anchor x="264" y="0" name="bottom"/>
  <anchor x="348" y="250" name="center"/>
  <anchor x="514" y="500" name="top"/>
  <outline>
    <contour>
      <point x="438" y="-17" type="curve" smooth="yes"/>
      <point x="471" y="-17"/>
      <point x="474" y="18"/>
      <point x="449" y="18" type="curve" smooth="yes"/>
      <point x="406" y="18"/>
      <point x="396" y="30"/>
      <point x="308" y="5" type="curve"/>
      <point x="287" y="-12" type="line"/>
      <point x="375" y="5"/>
      <point x="369" y="-17"/>
    </contour>
    <component base="b.jmc_dk"/>
  </outline>
</glyph>
<glyph name="b.lop.fin" format="2">
  <advance width="614"/>
  <anchor x="255" y="0" name="bottom"/>
  <anchor x="336" y="250" name="center"/>
  <anchor x="418" y="500" name="top"/>
  <outline>
    <contour>
      <point x="218" y="-19" type="curve" smooth="yes"/>
      <point x="393" y="-19"/>
      <point x="553" y="245"/>
      <point x="553" y="415" type="curve" smooth="yes"/>
      <point x="553" y="446"/>
      <point x="549" y="478"/>
      <point x="540" y="500" type="curve" smooth="yes"/>
      <point x="535" y="514"/>
      <point x="529" y="519"/>
      <point x="521" y="519" type="curve" smooth="yes"/>
      <point x="509" y="519"/>
      <point x="503" y="511"/>
      <point x="506" y="498" type="curve" smooth="yes"/>
      <point x="514" y="463"/>
      <point x="518" y="434"/>
      <point x="518" y="408" type="curve" smooth="yes"/>
      <point x="518" y="251"/>
      <point x="360" y="15"/>
      <point x="224" y="15" type="curve" smooth="yes"/>
      <point x="141" y="15"/>
      <point x="135" y="86"/>
      <point x="168" y="189" type="curve" smooth="yes"/>
      <point x="315" y="645" type="line" smooth="yes"/>
      <point x="363" y="793"/>
      <point x="400" y="859"/>
      <point x="450" y="859" type="curve" smooth="yes"/>
      <point x="479" y="859"/>
      <point x="491" y="838"/>
      <point x="491" y="804" type="curve" smooth="yes"/>
      <point x="491" y="779"/>
      <point x="530" y="779"/>
      <point x="530" y="804" type="curve" smooth="yes"/>
      <point x="530" y="854"/>
      <point x="508" y="894"/>
      <point x="450" y="894" type="curve" smooth="yes"/>
      <point x="385" y="894"/>
      <point x="336" y="825"/>
      <point x="286" y="669" type="curve" smooth="yes"/>
      <point x="131" y="189" type="line" smooth="yes"/>
      <point x="90" y="60"/>
      <point x="124" y="-19"/>
    </contour>
  </outline>
</glyph>
<glyph name="b.lop.med" format="2">
  <advance width="614"/>
  <anchor x="255" y="0" name="bottom"/>
  <anchor x="336" y="250" name="center"/>
  <anchor x="533" y="0" name="cnct"/>
  <anchor x="418" y="500" name="top"/>
  <outline>
    <contour>
      <point x="216" y="-19" type="curve" smooth="yes"/>
      <point x="403" y="-19"/>
      <point x="554" y="265"/>
      <point x="554" y="419" type="curve" smooth="yes"/>
      <point x="554" y="476"/>
      <point x="536" y="519"/>
      <point x="511" y="519" type="curve" smooth="yes"/>
      <point x="493" y="519"/>
      <point x="480" y="504"/>
      <point x="480" y="485" type="curve" smooth="yes"/>
      <point x="480" y="466"/>
      <point x="491" y="445"/>
      <point x="516" y="429" type="curve"/>
      <point x="519" y="420"/>
      <point x="519" y="411"/>
      <point x="518" y="389" type="curve" smooth="yes"/>
      <point x="511" y="263"/>
      <point x="365" y="15"/>
      <point x="225" y="15" type="curve" smooth="yes"/>
      <point x="139" y="15"/>
      <point x="130" y="86"/>
      <point x="164" y="189" type="curve" smooth="yes"/>
      <point x="313" y="645" type="line" smooth="yes"/>
      <point x="360" y="793"/>
      <point x="399" y="859"/>
      <point x="450" y="859" type="curve" smooth="yes"/>
      <point x="479" y="859"/>
      <point x="491" y="838"/>
      <point x="491" y="804" type="curve" smooth="yes"/>
      <point x="491" y="779"/>
      <point x="530" y="779"/>
      <point x="530" y="804" type="curve" smooth="yes"/>
      <point x="530" y="854"/>
      <point x="508" y="894"/>
      <point x="450" y="894" type="curve" smooth="yes"/>
      <point x="384" y="894"/>
      <point x="333" y="825"/>
      <point x="283" y="669" type="curve" smooth="yes"/>
      <point x="128" y="189" type="line" smooth="yes"/>
      <point x="85" y="59"/>
      <point x="123" y="-19"/>
    </contour>
  </outline>
</glyph>
